<?xml version="1.0" encoding="utf-8"?>
<!-- Generator: Adobe Illustrator 17.0.0, SVG Export Plug-In . SVG Version: 6.00 Build 0)  -->
<!DOCTYPE svg PUBLIC "-//W3C//DTD SVG 1.1//EN" "http://www.w3.org/Graphics/SVG/1.1/DTD/svg11.dtd">
<svg version="1.1" xmlns="http://www.w3.org/2000/svg" xmlns:xlink="http://www.w3.org/1999/xlink" x="0px" y="0px" width="93px"
	 height="93px" viewBox="0 0 93 93" enable-background="new 0 0 93 93" xml:space="preserve">
<g id="Layer_1" display="none">
	<path display="inline" fill="#EEEEEE" d="M91.561,22.55C91.56,11.806,83.124,2.957,72.394,2.445
		C61.663,1.932,52.421,9.936,51.396,20.63c-1.025,10.694,6.528,20.308,17.161,21.843v8.832h5.751v-8.832
		C84.205,41.031,91.549,32.551,91.561,22.55z"/>
	<path display="inline" fill="#82EDFF" d="M65.681,51.305h11.502v40.257H65.681V51.305z"/>
	<path display="inline" fill="#82EDFF" d="M85.81,22.55c0,7.941-6.437,14.378-14.378,14.378S57.055,30.49,57.055,22.55
		S63.492,8.172,71.433,8.172S85.81,14.609,85.81,22.55z"/>
	<g display="inline">
		<path fill="#D5F9FF" d="M5.295,71.434h11.502v20.129H5.295V71.434z"/>
		<path fill="#C0F6FF" d="M25.424,57.056h11.502v34.506H25.424V57.056z"/>
		<path fill="#ABF3FF" d="M45.553,45.554h11.502v46.008H45.553V45.554z"/>
	</g>
	<path display="inline" fill="#FFFFFF" d="M75.808,21.05l-4.375-4.375l-4.375,4.375l-2.033-2.033l6.408-6.408l6.408,6.408
		L75.808,21.05z"/>
	<path display="inline" fill="#FFFFFF" d="M69.995,15.361h2.876v15.815h-2.876V15.361z"/>
	<path display="inline" fill="#2390DE" d="M78.621,49.867h-2.876v-6.183c10.848-2.214,18.257-12.283,17.144-23.298
		C91.777,9.371,82.504,0.987,71.433,0.987S51.088,9.371,49.976,20.386c-1.113,11.016,6.296,21.084,17.144,23.298v6.183h-2.876
		v40.257h-5.751V44.116H44.115v46.008h-5.751V55.618H23.986v34.506h-5.751V69.996H3.858v20.129H0.982V93h92.017v-2.876H78.621
		V49.867z M15.36,90.124H6.733V72.871h8.627V90.124z M35.488,90.124h-8.627V58.494h8.627V90.124z M55.617,90.124h-8.627V46.992
		h8.627V90.124z M52.742,22.55c0-9.976,7.834-18.193,17.799-18.669c9.964-0.477,18.546,6.956,19.498,16.886
		c0.951,9.93-6.063,18.858-15.936,20.282l-1.232,0.177v8.641h-2.876v-8.641l-1.232-0.177C59.586,39.686,52.78,31.827,52.742,22.55z
		 M75.746,90.124h-8.627V52.743h8.627V90.124z"/>
	<path display="inline" fill="#2390DE" d="M87.248,22.55c0-8.735-7.081-15.815-15.815-15.815S55.617,13.815,55.617,22.55
		s7.081,15.815,15.815,15.815C80.163,38.354,87.237,31.28,87.248,22.55z M58.493,22.55c0-7.147,5.793-12.94,12.94-12.94
		c7.147,0,12.94,5.793,12.94,12.94c0,7.146-5.793,12.94-12.94,12.94C64.289,35.481,58.5,29.693,58.493,22.55z"/>
	<path display="inline" fill="#2390DE" d="M21.673,49.867H31.77l12.345-12.345v3.718h2.876v-8.627h-8.627v2.876h3.718L30.58,46.992
		H20.549L1.443,64.627l1.953,2.111L21.673,49.867z"/>
	<path display="inline" fill="#2390DE" d="M84.372,49.867h8.627v2.876h-8.627V49.867z"/>
	<path display="inline" fill="#2390DE" d="M84.372,55.618h8.627v2.876h-8.627V55.618z"/>
	<path display="inline" fill="#2390DE" d="M84.372,61.369h8.627v2.876h-8.627V61.369z"/>
	<path display="inline" fill="#2390DE" d="M84.372,67.12h8.627v2.876h-8.627V67.12z"/>
	<path display="inline" fill="#2390DE" d="M84.372,72.871h8.627v2.876h-8.627V72.871z"/>
	<path display="inline" fill="#2390DE" d="M84.372,78.622h8.627v2.876h-8.627V78.622z"/>
	<path display="inline" fill="#2390DE" d="M84.372,84.373h8.627v2.876h-8.627V84.373z"/>
</g>
<g id="Layer_2" display="none">
	<g display="inline">
		<path fill="#82EDFF" d="M86,16c0,2.75-2.25,5-5,5H6c-2.75,0-5-2.25-5-5v-6c0-2.75,2.25-5,5-5h75c2.75,0,5,2.25,5,5V16z"/>
	</g>
	<circle display="inline" fill="#FFFFFF" cx="9.552" cy="12.537" r="3.13"/>
	<circle display="inline" fill="#FFFFFF" cx="21.552" cy="12.537" r="3.13"/>
	<circle display="inline" fill="#FFFFFF" cx="32.552" cy="12.537" r="3.13"/>
	<g display="inline">
		<path fill="#FFFFFF" d="M80,12.5c0,1.49-1.8,2.5-4,2.5H47c-2.2,0-4-1.01-4-2.5s1.8-2.5,4-2.5h29C78.2,10,80,11.01,80,12.5z"/>
	</g>
	<path display="inline" fill="#82EDFF" d="M62.125,44.438l-5.188-5.188c0,0-1.125-4,3.438-4l8.188,8.188c0,0,1.125,1.562-0.5,3.187
		c-1.625,1.625-7.313,7.438-7.313,7.438s-4.37,2-3.935-3.063L62.125,44.438z"/>
	<path display="inline" fill="#82EDFF" d="M26.601,45.265l5.188,5.188c0,0,1.125,4-3.438,4l-8.188-8.188c0,0-1.125-1.562,0.5-3.187
		c1.625-1.625,7.313-7.438,7.313-7.438s4.37-2,3.935,3.063L26.601,45.265z"/>
	<g display="inline">
		<path fill="#2390DE" d="M9.608,16.668c2.25,0,4.08-1.833,4.08-4.085s-1.83-4.085-4.08-4.085s-4.08,1.833-4.08,4.085
			S7.358,16.668,9.608,16.668z M9.608,11.22c0.748,0,1.357,0.611,1.357,1.362c0,0.751-0.609,1.362-1.357,1.362
			s-1.357-0.611-1.357-1.362C8.251,11.831,8.86,11.22,9.608,11.22z"/>
		<path fill="#2390DE" d="M21.387,16.668c2.25,0,4.08-1.833,4.08-4.085s-1.83-4.085-4.08-4.085s-4.08,1.833-4.08,4.085
			S19.138,16.668,21.387,16.668z M21.387,11.22c0.748,0,1.357,0.611,1.357,1.362c0,0.751-0.609,1.362-1.357,1.362
			s-1.357-0.611-1.357-1.362C20.031,11.831,20.639,11.22,21.387,11.22z"/>
		<path fill="#2390DE" d="M32.827,16.668c2.25,0,4.08-1.833,4.08-4.085s-1.83-4.085-4.08-4.085s-4.08,1.833-4.08,4.085
			S30.578,16.668,32.827,16.668L32.827,16.668z M32.827,11.22c0.748,0,1.357,0.611,1.357,1.362c0,0.751-0.609,1.362-1.357,1.362
			c-0.748,0-1.357-0.611-1.357-1.362C31.471,11.831,32.079,11.22,32.827,11.22z"/>
		<path fill="#2390DE" d="M44.992,16.668h25.096c0.752,0,1.362-0.61,1.362-1.362c0-0.752-0.61-1.362-1.362-1.362H44.992
			c-0.748,0-1.357-0.611-1.357-1.362c0-0.751,0.609-1.362,1.357-1.362h32.61c0.748,0,1.357,0.611,1.357,1.362
			c0,0.751-0.609,1.362-1.357,1.362h-2.975c-0.752,0-1.362,0.61-1.362,1.362c0,0.752,0.61,1.362,1.362,1.362h2.975
			c2.25,0,4.08-1.833,4.08-4.085s-1.83-4.085-4.08-4.085h-32.61c-2.25,0-4.08,1.833-4.08,4.085S42.742,16.668,44.992,16.668
			L44.992,16.668z"/>
		<path fill="#2390DE" d="M28.374,44.95l4.21-4.21c1.543-1.543,1.543-4.054,0-5.596c-1.473-1.535-4.124-1.535-5.597,0l-7.008,7.008
			c-0.748,0.748-1.159,1.741-1.159,2.798c0,1.057,0.412,2.051,1.159,2.798l7.094,7.094c1.473,1.535,4.124,1.535,5.597,0
			c1.535-1.473,1.535-4.124,0-5.597L28.374,44.95z M30.745,52.917c-0.459,0.479-1.285,0.479-1.745,0l-7.095-7.095
			c-0.233-0.233-0.362-0.543-0.362-0.872c0-0.33,0.128-0.639,0.362-0.872l7.008-7.008c0.459-0.479,1.285-0.478,1.745,0
			c0.481,0.481,0.481,1.264,0,1.745l-5.173,5.173c-0.255,0.255-0.399,0.602-0.399,0.963c0,0.361,0.143,0.707,0.399,0.963
			l5.259,5.259C31.223,51.631,31.223,52.458,30.745,52.917z"/>
		<path fill="#2390DE" d="M62.348,35.144c-1.473-1.535-4.124-1.535-5.597,0c-1.543,1.543-1.543,4.053,0,5.597l4.21,4.21
			l-4.296,4.296c-1.535,1.473-1.535,4.124,0,5.597c1.473,1.535,4.124,1.535,5.597,0l7.095-7.094
			c0.748-0.748,1.159-1.741,1.159-2.798c0-1.057-0.412-2.051-1.159-2.798L62.348,35.144z M67.43,45.823l-7.095,7.095
			c-0.459,0.478-1.285,0.478-1.744,0c-0.479-0.459-0.479-1.285,0-1.745l5.259-5.259c0.255-0.255,0.399-0.602,0.399-0.963
			c0-0.361-0.143-0.708-0.399-0.963l-5.173-5.173c-0.481-0.481-0.481-1.264,0-1.745c0.459-0.479,1.285-0.479,1.745,0l7.008,7.008
			c0.233,0.233,0.362,0.543,0.362,0.872C67.791,45.28,67.663,45.589,67.43,45.823L67.43,45.823z"/>
		<path fill="#2390DE" d="M50.639,31.06c-2.006-0.859-4.337,0.073-5.196,2.078l-1.86,4.341c-0.296,0.691,0.024,1.492,0.715,1.788
			c0.692,0.297,1.492-0.024,1.788-0.715l1.86-4.341c0.268-0.625,0.994-0.916,1.62-0.648c0.615,0.249,0.922,1.016,0.648,1.62
			l-8.825,20.591c-0.253,0.617-1.01,0.921-1.62,0.648c-0.615-0.249-0.922-1.016-0.648-1.62l4.461-10.409
			c0.296-0.691-0.024-1.492-0.715-1.788c-0.691-0.297-1.492,0.024-1.788,0.715L36.618,53.73c-0.878,1.938,0.106,4.399,2.078,5.196
			c1.953,0.873,4.386-0.098,5.196-2.078l8.825-20.591C53.596,34.319,52.611,31.858,50.639,31.06L50.639,31.06z"/>
		<path fill="#2390DE" d="M91.89,82.521l-5.212-5.455c0.875-1.856,1.366-3.928,1.366-6.114c0-1.331-0.185-2.619-0.525-3.843V9.586
			c0-3.755-3.054-6.809-6.809-6.809H6.809C3.054,2.777,0,5.832,0,9.586v58.649c0,3.755,3.054,6.809,6.809,6.809h53.278
			c0.788,2.662,2.338,5.064,4.51,6.894c0.575,0.485,1.434,0.411,1.919-0.163c0.485-0.575,0.412-1.434-0.164-1.919
			c-2.628-2.215-4.135-5.461-4.135-8.904c0-1.325,0.22-2.623,0.653-3.86c1.625-4.638,6.005-7.753,10.898-7.753
			c6.369,0,11.551,5.21,11.551,11.614c0,6.404-5.182,11.614-11.551,11.614c-0.774,0-1.547-0.077-2.298-0.23
			c-0.737-0.15-1.456,0.327-1.605,1.064c-0.15,0.737,0.327,1.456,1.064,1.605c0.929,0.188,1.884,0.284,2.84,0.284
			c2.19,0,4.265-0.499,6.121-1.388l5.024,5.376c1.732,1.852,4.794,1.418,6.509-0.389C93.297,86.989,93.5,84.19,91.89,82.521
			L91.89,82.521z M6.809,5.501H80.71c2.253,0,4.085,1.833,4.085,4.085v9.805H2.724V9.586C2.724,7.333,4.556,5.501,6.809,5.501z
			 M73.77,56.614c-6.049,0-11.462,3.849-13.469,9.576c-0.535,1.527-0.806,3.129-0.806,4.761c0,0.46,0.023,0.916,0.066,1.369H6.809
			c-2.253,0-4.085-1.833-4.085-4.085v-46.12h82.072v39.741C82.176,58.658,78.206,56.614,73.77,56.614z M89.485,86.976
			c-0.742,0.691-1.758,1.138-2.584,0.436l-4.628-4.952c1.123-0.84,2.12-1.841,2.956-2.969l4.696,4.916
			C90.486,84.989,90.284,86.165,89.485,86.976L89.485,86.976z"/>
		<path fill="#2390DE" d="M82.777,70.952c0-4.987-4.041-9.045-9.008-9.045c-3.817,0-7.233,2.428-8.499,6.042
			c-0.338,0.963-0.509,1.973-0.509,3.003c0,4.987,4.041,9.045,9.008,9.045C78.737,79.997,82.777,75.939,82.777,70.952z
			 M67.485,70.952c0-0.722,0.12-1.429,0.356-2.102c0.884-2.524,3.267-4.219,5.929-4.219c3.465,0,6.284,2.836,6.284,6.321
			s-2.819,6.321-6.284,6.321C70.305,77.273,67.485,74.437,67.485,70.952z"/>
	</g>
</g>
<g id="Layer_3">
	<path fill="#82EDFF" d="M71.859,18.078H60.328c-2.12-0.006-3.837-1.724-3.844-3.844V2.703L71.859,18.078z"/>
	<path fill="#FFFFFF" d="M71.859,18.078v69.188c-0.006,2.12-1.724,3.837-3.844,3.844h-61.5c-2.12-0.006-3.837-1.724-3.844-3.844
		V6.547c0.006-2.12,1.724-3.837,3.844-3.844h49.969v11.531c0.006,2.12,1.724,3.837,3.844,3.844H71.859z"/>
	<circle fill="#82EDFF" cx="66.094" cy="66.125" r="24.984"/>
	<g>
		<path fill="#2390DE" d="M12.281,12.312H31.5v3.844H12.281V12.312z"/>
		<path fill="#2390DE" d="M12.281,20h3.844v3.844h-3.844V20z"/>
		<path fill="#2390DE" d="M19.969,20h3.844v3.844h-3.844V20z"/>
		<path fill="#2390DE" d="M4.594,87.265V6.547c0-1.061,0.861-1.922,1.922-1.922h48.047v9.609c0,3.184,2.581,5.766,5.766,5.766h3.844
			v-3.844h-3.844c-1.061,0-1.922-0.861-1.922-1.922V7.342l11.531,11.531v16.501h3.844V18.078c0-0.51-0.203-0.998-0.563-1.359
			L57.843,1.344c-0.36-0.361-0.849-0.563-1.359-0.563H6.516c-3.184,0-5.766,2.581-5.766,5.766l0,0v80.719
			c0,3.184,2.581,5.766,5.766,5.766h38.437v-3.844H6.516C5.454,89.187,4.594,88.327,4.594,87.265z"/>
		<path fill="#2390DE" d="M66.094,39.219c-14.86,0-26.906,12.046-26.906,26.906s12.046,26.906,26.906,26.906S93,80.985,93,66.125
			C92.984,51.272,80.947,39.235,66.094,39.219z M66.094,89.187c-12.737,0-23.063-10.326-23.063-23.063s10.326-23.063,23.063-23.063
			s23.063,10.326,23.063,23.063C89.142,78.856,78.825,89.174,66.094,89.187z"/>
		<path fill="#2390DE" d="M58.969,57.079l-7.688,7.688c-0.75,0.75-0.75,1.967,0,2.718l7.688,7.688l2.718-2.718l-6.329-6.329
			l6.329-6.329L58.969,57.079z"/>
		<path fill="#2390DE" d="M73.218,57.079l-2.718,2.718l6.329,6.329l-6.329,6.329l2.718,2.718l7.688-7.688
			c0.75-0.75,0.75-1.967,0-2.718L73.218,57.079z"/>
		<path fill="#2390DE" d="M29.578,27.687h3.844v57.656h-3.844V27.687z"/>
		<path fill="#2390DE" d="M62.25,33.453v-3.844H44.953c-2.123,0-3.844,1.721-3.844,3.844v3.844c0,2.123,1.721,3.844,3.844,3.844
			h3.844v-3.844h-3.844v-3.844C44.953,33.453,62.25,33.453,62.25,33.453z"/>
		<path fill="#2390DE" d="M12.281,33.453h9.609v3.844h-9.609V33.453z"/>
		<path fill="#2390DE" d="M12.281,43.062h9.609v3.844h-9.609V43.062z"/>
		<path fill="#2390DE" d="M12.281,52.672h9.609v3.844h-9.609V52.672z"/>
		<path fill="#2390DE" d="M12.281,62.281h9.609v3.844h-9.609V62.281z"/>
		<path fill="#2390DE" d="M12.281,71.891h9.609v3.844h-9.609V71.891z"/>
	</g>
</g>
</svg>
