<?xml version="1.0" encoding="utf-8"?>
<!-- Generator: Adobe Illustrator 17.0.0, SVG Export Plug-In . SVG Version: 6.00 Build 0)  -->
<!DOCTYPE svg PUBLIC "-//W3C//DTD SVG 1.1//EN" "http://www.w3.org/Graphics/SVG/1.1/DTD/svg11.dtd">
<svg version="1.1" id="Layer_1" xmlns="http://www.w3.org/2000/svg" xmlns:xlink="http://www.w3.org/1999/xlink" x="0px" y="0px"
	 width="93px" height="93px" viewBox="0 0 93 93" enable-background="new 0 0 93 93" xml:space="preserve">
<path fill="#EEEEEE" d="M91.561,22.55C91.56,11.806,83.124,2.957,72.394,2.445C61.663,1.932,52.421,9.936,51.396,20.63
	c-1.025,10.694,6.528,20.308,17.161,21.843v8.832h5.751v-8.832C84.205,41.031,91.549,32.551,91.561,22.55z"/>
<path fill="#82EDFF" d="M65.681,51.305h11.502v40.257H65.681V51.305z"/>
<path fill="#82EDFF" d="M85.81,22.55c0,7.941-6.437,14.378-14.378,14.378S57.055,30.49,57.055,22.55S63.492,8.172,71.433,8.172
	S85.81,14.609,85.81,22.55z"/>
<g>
	<path fill="#D5F9FF" d="M5.295,71.434h11.502v20.129H5.295V71.434z"/>
	<path fill="#C0F6FF" d="M25.424,57.056h11.502v34.506H25.424V57.056z"/>
	<path fill="#ABF3FF" d="M45.553,45.554h11.502v46.008H45.553V45.554z"/>
</g>
<path fill="#FFFFFF" d="M75.808,21.05l-4.375-4.375l-4.375,4.375l-2.033-2.033l6.408-6.408l6.408,6.408L75.808,21.05z"/>
<path fill="#FFFFFF" d="M69.995,15.361h2.876v15.815h-2.876V15.361z"/>
<path fill="#2390DE" d="M78.621,49.867h-2.876v-6.183c10.848-2.214,18.257-12.283,17.144-23.298
	C91.777,9.371,82.504,0.987,71.433,0.987S51.088,9.371,49.976,20.386c-1.113,11.016,6.296,21.084,17.144,23.298v6.183h-2.876v40.257
	h-5.751V44.116H44.115v46.008h-5.751V55.618H23.986v34.506h-5.751V69.996H3.858v20.129H0.982V93h92.017v-2.876H78.621V49.867z
	 M15.36,90.124H6.733V72.871h8.627V90.124z M35.488,90.124h-8.627V58.494h8.627V90.124z M55.617,90.124h-8.627V46.992h8.627V90.124z
	 M52.742,22.55c0-9.976,7.834-18.193,17.799-18.669c9.964-0.477,18.546,6.956,19.498,16.886c0.951,9.93-6.063,18.858-15.936,20.282
	l-1.232,0.177v8.641h-2.876v-8.641l-1.232-0.177C59.586,39.686,52.78,31.827,52.742,22.55z M75.746,90.124h-8.627V52.743h8.627
	V90.124z"/>
<path fill="#2390DE" d="M87.248,22.55c0-8.735-7.081-15.815-15.815-15.815S55.617,13.815,55.617,22.55s7.081,15.815,15.815,15.815
	C80.163,38.354,87.237,31.28,87.248,22.55z M58.493,22.55c0-7.147,5.793-12.94,12.94-12.94c7.147,0,12.94,5.793,12.94,12.94
	c0,7.146-5.793,12.94-12.94,12.94C64.289,35.481,58.5,29.693,58.493,22.55z"/>
<path fill="#2390DE" d="M21.673,49.867H31.77l12.345-12.345v3.718h2.876v-8.627h-8.627v2.876h3.718L30.58,46.992H20.549
	L1.443,64.627l1.953,2.111L21.673,49.867z"/>
<path fill="#2390DE" d="M84.372,49.867h8.627v2.876h-8.627V49.867z"/>
<path fill="#2390DE" d="M84.372,55.618h8.627v2.876h-8.627V55.618z"/>
<path fill="#2390DE" d="M84.372,61.369h8.627v2.876h-8.627V61.369z"/>
<path fill="#2390DE" d="M84.372,67.12h8.627v2.876h-8.627V67.12z"/>
<path fill="#2390DE" d="M84.372,72.871h8.627v2.876h-8.627V72.871z"/>
<path fill="#2390DE" d="M84.372,78.622h8.627v2.876h-8.627V78.622z"/>
<path fill="#2390DE" d="M84.372,84.373h8.627v2.876h-8.627V84.373z"/>
</svg>
