<?xml version="1.0" standalone="no"?>
<!DOCTYPE svg PUBLIC "-//W3C//DTD SVG 1.1//EN" "http://www.w3.org/Graphics/SVG/1.1/DTD/svg11.dtd" >
<svg>
<metadata>
Created by FontForge 20090622 at Mon Oct  5 14:34:39 2020
 By deploy user
Copyright (C) 2004, 2009 Hoefler &#38; Frere-Jones. http://www.typography.com
</metadata>
<defs>
<font id="Sentinel-Book" horiz-adv-x="1456" >
  <font-face 
    font-family="Sentinel Book"
    font-weight="325"
    font-stretch="normal"
    units-per-em="2048"
    panose-1="0 0 0 0 0 0 0 0 0 0"
    ascent="1638"
    descent="-410"
    x-height="922"
    cap-height="1335"
    bbox="-104 -600 2302 2222"
    underline-thickness="102"
    underline-position="-102"
    unicode-range="U+0020-U+FB04"
  />
<missing-glyph horiz-adv-x="1024" 
d="M0 -410v2048h1024v-2048h-1024zM145 1536l367 -799l367 799h-734zM102 -156l353 770l-353 770v-1540zM922 1384l-353 -770l353 -770v1540zM512 492l-367 -799h734z" />
    <glyph glyph-name="f_f" unicode="ff" horiz-adv-x="1259" 
d="M608 1419q101 0 174.5 -38t98.5 -103q102 141 295 141q110 0 183 -49.5t73 -128.5q0 -48 -29.5 -82.5t-73.5 -34.5q-49 0 -77.5 28.5t-28.5 78.5q0 46 32 78q-29 26 -98 26q-102 0 -151.5 -79t-49.5 -273v-68h273v-100h-273v-709h215v-106h-507v106h135v709h-416v-709
h158v-106h-467v106h149v709h-186v100h186v56q0 120 32.5 209.5t88.5 140t122 74.5t142 24zM799 915v60q0 73 12 135q-8 -2 -25 -2q-50 0 -80 28t-30 78q0 24 12.5 46.5t26.5 33.5q-41 41 -121 41q-106 0 -158.5 -79t-52.5 -267v-74h416z" />
    <glyph glyph-name="fi" unicode="fi" horiz-adv-x="1171" 
d="M805 815h-422v-709h147v-106h-458v106h151v709h-186v100h186v54q0 122 34.5 212t94.5 140.5t131 74t154 23.5q129 0 220 -63t91 -152q0 -55 -30.5 -87t-75.5 -32q-49 0 -78 29.5t-29 75.5q0 54 43 88q-51 55 -155 55q-117 0 -178.5 -78.5t-61.5 -255.5v-84h580v-809h174
v-106h-471v106h139v709z" />
    <glyph glyph-name="fl" unicode="fl" horiz-adv-x="1189" 
d="M72 0v106h151v709h-186v100h186v60q0 118 32 207t87 139t120 74t140 24q117 0 191 -47l186 43v-1309h172v-106h-471v106h139v709h-436v-709h162v-106h-473zM383 983v-68h436v215q-23 -10 -45 -10q-51 0 -79.5 28.5t-28.5 78.5q0 38 32 76q-41 32 -110 32
q-105 0 -155 -78.5t-50 -273.5z" />
    <glyph glyph-name="f_f_i" unicode="ffi" horiz-adv-x="1746" 
d="M956 999v-84h582v-809h172v-106h-469v106h137v709h-422v-709h150v-106h-442v106h135v709h-416v-709h158v-106h-467v106h149v709h-186v100h186v56q0 120 32.5 209.5t88.5 140t122 74.5t142 24q103 0 177.5 -40t97.5 -107q108 147 327 147q130 0 221 -63t91 -152
q0 -55 -31 -87t-76 -32q-47 0 -76.5 29.5t-29.5 75.5q0 49 43 88q-47 55 -154 55q-118 0 -180 -79t-62 -255zM799 969q0 84 14 141q-8 -2 -27 -2q-50 0 -80 28t-30 78q0 24 12.5 46.5t26.5 33.5q-41 41 -121 41q-106 0 -158.5 -79t-52.5 -267v-74h416v54z" />
    <glyph glyph-name="f_f_l" unicode="ffl" horiz-adv-x="1763" 
d="M1253 0v106h142v709h-439v-709h162v-106h-454v106h135v709h-416v-709h158v-106h-467v106h149v709h-186v100h186v56q0 120 32.5 209.5t88.5 140t122 74.5t142 24q101 0 174.5 -38t98.5 -103q102 141 295 141q116 0 190 -47l186 43v-1309h174v-106h-473zM956 983v-68h439
v218q-23 -13 -47 -13q-50 0 -79.5 29t-29.5 78q0 41 35 76q-44 32 -113 32q-105 0 -155 -78.5t-50 -273.5zM799 915v60q0 73 12 135q-8 -2 -25 -2q-50 0 -80 28t-30 78q0 24 12.5 46.5t26.5 33.5q-41 41 -121 41q-106 0 -158.5 -79t-52.5 -267v-74h416z" />
    <glyph glyph-name="f_b" unicode="fb" horiz-adv-x="1708" 
d="M72 0v106h151v709h-186v100h186v60q0 118 32 207t86.5 139t119 74t137.5 24q110 0 186 -45l170 41v-692q54 103 135.5 159t176.5 56q139 0 227 -88q129 -126 129 -381q0 -117 -36.5 -219t-102.5 -168q-98 -98 -238 -98q-101 0 -180.5 56t-126.5 153l-59 -203h-84v825
h-412v-709h184v-106h-495zM1214 90q106 0 170 99t64 276q0 172 -62.5 269t-166.5 97q-115 0 -192 -111t-77 -282q0 -162 77.5 -255t186.5 -93zM383 987v-72h412v209q-8 -4 -27 -4q-51 0 -80 28.5t-29 78.5q0 36 33 76q-41 32 -110 32q-99 0 -149 -78.5t-50 -269.5z" />
    <glyph glyph-name="f_h" unicode="fh" horiz-adv-x="1759" 
d="M680 0v106h139v709h-436v-709h162v-106h-473v106h151v709h-186v100h186v60q0 118 32 207t87 139t120 74t140 24q117 0 191 -47l186 43v-727q141 248 346 248q117 0 183.5 -76t66.5 -215v-539h151v-106h-452v106h141v467q0 137 -51 191q-43 43 -119 43q-101 0 -183.5 -93
t-82.5 -206v-402h139v-106h-438zM383 983v-68h436v215q-23 -10 -45 -10q-51 0 -79.5 28.5t-28.5 78.5q0 38 32 76q-41 32 -110 32q-105 0 -155 -78.5t-50 -273.5z" />
    <glyph glyph-name="f_j" unicode="fj" horiz-adv-x="1128" 
d="M963 915v-878q0 -181 -76.5 -276t-222.5 -95q-90 0 -152.5 46t-62.5 114q0 49 31 84t79 35t76.5 -29t28.5 -70q0 -49 -37 -82q22 -14 55 -14q58 0 90.5 51t32.5 154v860h-422v-709h158v-106h-469v106h151v709h-186v100h186v54q0 122 34.5 212t94.5 140.5t131 74t154 23.5
q129 0 220 -63t91 -152q0 -55 -30.5 -87t-75.5 -32q-49 0 -78 29.5t-29 75.5q0 54 43 88q-51 55 -155 55q-117 0 -178.5 -78.5t-61.5 -255.5v-84h580z" />
    <glyph glyph-name="f_k" unicode="fk" horiz-adv-x="1689" 
d="M72 0v106h151v709h-186v100h186v60q0 118 32 207t87 139t120 74t140 24q117 0 191 -47l186 43v-993l373 395h-154v105h426v-107h-139l-252 -256l319 -453h117v-106h-420v104h123l-244 355l-149 -152v-201h127v-106h-426v106h139v709h-436v-709h162v-106h-473zM383 983
v-68h436v215q-23 -10 -45 -10q-51 0 -79.5 28.5t-28.5 78.5q0 38 32 76q-41 32 -110 32q-105 0 -155 -78.5t-50 -273.5z" />
    <glyph glyph-name="f_f_b" unicode="ffb" horiz-adv-x="2289" 
d="M1536 1415v-692q53 103 135.5 159t177.5 56q138 0 226 -88q129 -126 129 -381q0 -117 -37 -219t-103 -168q-95 -98 -237 -98q-101 0 -180.5 56t-124.5 153l-60 -203h-84v825h-422v-709h185v-106h-477v106h135v709h-416v-709h158v-106h-467v106h149v709h-186v100h186v56
q0 120 32.5 209.5t88.5 140t122 74.5t142 24q101 0 174.5 -38t98.5 -103q102 141 290 141q118 0 189 -47zM1796 90q106 0 170 99t64 276q0 173 -62 269.5t-168 96.5q-115 0 -191.5 -111t-76.5 -282q0 -162 77.5 -255t186.5 -93zM799 915v60q0 73 12 135q-8 -2 -25 -2
q-50 0 -80 28t-30 78q0 24 12.5 46.5t26.5 33.5q-41 41 -121 41q-106 0 -158.5 -79t-52.5 -267v-74h416zM956 987v-72h422v211q-18 -6 -37 -6q-51 0 -79.5 28.5t-28.5 78.5q0 36 33 76q-41 32 -109 32q-100 0 -150.5 -78.5t-50.5 -269.5z" />
    <glyph glyph-name="f_f_h" unicode="ffh" horiz-adv-x="2332" 
d="M1253 0v106h142v709h-439v-709h162v-106h-454v106h135v709h-416v-709h158v-106h-467v106h149v709h-186v100h186v56q0 120 32.5 209.5t88.5 140t122 74.5t142 24q101 0 174.5 -38t98.5 -103q102 141 295 141q116 0 190 -47l186 43v-727q145 248 346 248q118 0 184 -75.5
t66 -215.5v-539h154v-106h-453v106h140v467q0 139 -52 191q-43 43 -116 43q-102 0 -185.5 -93t-83.5 -206v-402h142v-106h-441zM956 983v-68h439v218q-23 -13 -47 -13q-50 0 -79.5 29t-29.5 78q0 41 35 76q-44 32 -113 32q-105 0 -155 -78.5t-50 -273.5zM799 975
q0 73 12 135q-8 -2 -25 -2q-50 0 -80 28t-30 78q0 24 12.5 46.5t26.5 33.5q-41 41 -121 41q-106 0 -158.5 -79t-52.5 -267v-74h416v60z" />
    <glyph glyph-name="f_f_j" unicode="ffj" horiz-adv-x="1701" 
d="M1538 915v-878q0 -181 -77 -276t-222 -95q-91 0 -154 45.5t-63 114.5q0 48 32 83.5t79 35.5q48 0 77 -29t29 -70q0 -45 -37 -82q20 -14 53 -14q123 0 123 205v860h-422v-709h158v-106h-450v106h135v709h-416v-709h158v-106h-467v106h149v709h-186v100h186v56
q0 120 32.5 209.5t88.5 140t122 74.5t142 24q103 0 177.5 -40t97.5 -107q108 147 327 147q130 0 221 -63t91 -152q0 -55 -31 -87t-76 -32q-47 0 -76.5 29.5t-29.5 75.5q0 49 43 88q-47 55 -154 55q-118 0 -180 -79t-62 -255v-84h582zM799 969q0 84 14 141q-8 -2 -27 -2
q-50 0 -80 28t-30 78q0 24 12.5 46.5t26.5 33.5q-41 41 -121 41q-106 0 -158.5 -79t-52.5 -267v-74h416v54z" />
    <glyph glyph-name="f_f_k" unicode="ffk" horiz-adv-x="2265" 
d="M1552 1415v-993l375 395h-153v105h424v-107h-140l-250 -256l318 -453h117v-106h-420v104h123l-244 355l-150 -152v-201h129v-106h-428v106h142v709h-439v-709h162v-106h-454v106h135v709h-416v-709h158v-106h-467v106h149v709h-186v100h186v56q0 120 32.5 209.5t88.5 140
t122 74.5t142 24q101 0 174.5 -38t98.5 -103q102 141 295 141q116 0 190 -47zM956 983v-68h439v218q-23 -13 -47 -13q-50 0 -79.5 29t-29.5 78q0 41 35 76q-44 32 -113 32q-105 0 -155 -78.5t-50 -273.5zM799 975q0 73 12 135q-8 -2 -25 -2q-50 0 -80 28t-30 78
q0 24 12.5 46.5t26.5 33.5q-41 41 -121 41q-106 0 -158.5 -79t-52.5 -267v-74h416v60z" />
    <glyph glyph-name=".notdef" horiz-adv-x="1024" 
d="M0 -410v2048h1024v-2048h-1024zM145 1536l367 -799l367 799h-734zM102 -156l353 770l-353 770v-1540zM922 1384l-353 -770l353 -770v1540zM512 492l-367 -799h734z" />
    <glyph glyph-name=".null" horiz-adv-x="0" 
 />
    <glyph glyph-name="nonmarkingreturn" horiz-adv-x="682" 
 />
    <glyph glyph-name="space" unicode=" " horiz-adv-x="364" 
 />
    <glyph glyph-name="exclam" unicode="!" horiz-adv-x="544" 
d="M272 1389q49 0 77 -32t28 -93q0 -41 -27 -349q-32 -300 -43 -534h-67q-7 143 -43 534q-29 284 -29 349q0 62 27.5 93.5t76.5 31.5zM272 -31q-49 0 -82.5 33.5t-33.5 81.5q0 50 33.5 83.5t82.5 33.5q50 0 83.5 -33.5t33.5 -83.5q0 -48 -34 -81.5t-83 -33.5z" />
    <glyph glyph-name="quotedbl" unicode="&#x22;" horiz-adv-x="774" 
d="M494 844l-56 24l51 199q42 174 62 223q26 53 74 53q37 0 64.5 -20.5t27.5 -54.5q0 -32 -15 -62q-56 -110 -106 -192zM174 844l-55 24l51 199q43 179 61 223q26 53 74 53q37 0 64.5 -20.5t27.5 -54.5q0 -25 -14 -62q-51 -100 -107 -192z" />
    <glyph glyph-name="numbersign" unicode="#" horiz-adv-x="1357" 
d="M428 848h-283v102h304l77 396h121l-78 -396h338l80 396h121l-80 -396h266v-102h-284l-82 -416h282v-104h-303l-80 -410h-122l81 410h-337l-80 -410h-123l80 410h-263v104h283zM887 848h-338l-80 -416h336z" />
    <glyph glyph-name="dollar" unicode="$" horiz-adv-x="1093" 
d="M608 -162h-96v162q-182 10 -301 90t-119 180q0 54 34 92.5t87 38.5q51 0 83 -34t32 -80q0 -70 -66 -109q29 -31 96 -57t154 -33v494q-78 24 -132 45.5t-103.5 51t-78.5 63.5t-46 81.5t-17 106.5q0 134 101.5 234t275.5 120v143h96v-141q159 -6 268 -82t109 -172
q0 -57 -29 -91t-77 -34q-52 0 -82.5 30t-30.5 75q0 33 18 60.5t45 39.5q-70 78 -221 86v-471q209 -63 296 -141t87 -217q0 -63 -23.5 -124t-68.5 -114t-120.5 -88.5t-170.5 -42.5v-162zM850 317q0 84 -54 137.5t-188 98.5v-463q112 10 177 73t65 154zM283 977
q0 -81 50.5 -130.5t178.5 -90.5v440q-110 -14 -169.5 -77.5t-59.5 -141.5z" />
    <glyph glyph-name="percent" unicode="%" horiz-adv-x="1595" 
d="M338 545q-117 0 -184.5 74t-67.5 198q0 115 54 219.5t146 169t195 64.5q126 0 185 -92q78 -41 186 -41q199 0 334 161h102l-876 -1351h-136l803 1183l-6 7q-109 -86 -250 -86q-70 0 -121 16q0 -7 1.5 -20.5t1.5 -20.5q0 -74 -24.5 -156t-69 -155.5t-116.5 -121.5
t-157 -48zM1145 -29q-118 0 -186 74.5t-68 198.5q0 115 54 219.5t146 168.5t195 64t163 -62.5t60 -182.5q0 -73 -24 -154.5t-68 -155.5t-115.5 -122t-156.5 -48zM1161 57q70 0 130.5 63t93 153.5t32.5 177.5q0 74 -31 113t-90 38q-69 -1 -130 -63t-94.5 -149.5t-33.5 -170.5
q0 -77 33.5 -119.5t89.5 -42.5zM356 633q70 0 130.5 62.5t93 152t32.5 176.5q0 39 -10 72q-52 25 -113 80q-69 -2 -129.5 -64t-93.5 -149.5t-33 -169.5q0 -77 33 -118.5t90 -41.5z" />
    <glyph glyph-name="ampersand" unicode="&#x26;" horiz-adv-x="1472" 
d="M983 772h434v-100h-157q-101 -235 -250 -414q60 -96 98 -131t82 -35q39 0 68.5 29t60.5 98l74 -33q-79 -219 -252 -219q-78 0 -135.5 41t-118.5 142q-174 -183 -391 -183q-93 0 -168.5 28.5t-123 76t-73 106.5t-25.5 123q0 130 82 223.5t256 165.5q-133 139 -133 279
q0 133 96.5 221t235.5 88q132 0 212.5 -75t80.5 -177q0 -103 -64.5 -181t-205.5 -151q172 -167 286 -356q119 147 193 334h-162v100zM543 88q152 0 293 141q-60 104 -134.5 197t-191.5 205q-117 -56 -172 -126.5t-55 -170.5t71.5 -173t188.5 -73zM459 1014
q0 -62 31.5 -122.5t115.5 -141.5q185 107 185 262q0 75 -42 125.5t-116 50.5q-80 0 -127 -50t-47 -124z" />
    <glyph glyph-name="quotesingle" unicode="'" horiz-adv-x="458" 
d="M174 844l-55 24l51 199q43 179 61 223q26 53 74 53q37 0 64.5 -20.5t27.5 -54.5q0 -25 -14 -62q-51 -100 -107 -192z" />
    <glyph glyph-name="parenleft" unicode="(" horiz-adv-x="739" 
d="M700 -322q-124 64 -222.5 149t-175 195t-118 252.5t-41.5 307.5q0 164 41.5 306t118 252t175 194.5t222.5 148.5l50 -76q-216 -134 -327.5 -336.5t-111.5 -488.5q0 -556 439 -828z" />
    <glyph glyph-name="parenright" unicode=")" horiz-adv-x="739" 
d="M39 1483q124 -64 222.5 -148.5t175 -195t118 -252.5t41.5 -307q0 -164 -41.5 -306t-118 -252.5t-175 -195t-222.5 -148.5l-49 76q438 271 438 826q0 556 -438 827z" />
    <glyph glyph-name="asterisk" unicode="*" horiz-adv-x="835" 
d="M438 805q-7 22 -10.5 62t-5 97.5t-2.5 73.5l-27 9q-13 -15 -46 -58.5t-60.5 -76t-44.5 -46.5q-64 -47 -107 8q-44 59 23 105q24 17 115 52.5t104 41.5v25l-53 19.5l-65.5 24t-56 23t-44.5 23.5q-68 47 -25 104q42 60 109 8q17 -13 44 -44.5t61 -75.5t46 -58l25 8
q2 23 3.5 76t4.5 95t10 63q26 78 94 55q63 -18 39 -98q-6 -20 -27.5 -56t-52 -81t-40.5 -62l14 -22q192 55 229 55q41 0 60.5 -16.5t19.5 -53.5q0 -36 -19 -52.5t-63 -16.5q-20 0 -61 10t-93 24t-73 19l-14 -20q8 -13 31 -47l38 -57.5t30.5 -52t20.5 -44.5q26 -78 -39 -98
q-66 -21 -92 55z" />
    <glyph glyph-name="plus" unicode="+" horiz-adv-x="1073" 
d="M483 137v381h-372v100h372v381h109v-381h371v-100h-371v-381h-109z" />
    <glyph glyph-name="comma" unicode="," horiz-adv-x="438" 
d="M66 -289l-31 64q107 51 156.5 103t60.5 116l-8 4q-21 -12 -47 -12q-39 0 -66 29t-27 71q0 47 31.5 81t79.5 34q59 0 94 -42.5t35 -109.5q0 -106 -65.5 -189t-212.5 -149z" />
    <glyph glyph-name="hyphen" unicode="-" horiz-adv-x="749" 
d="M113 430v133h524v-133h-524z" />
    <glyph glyph-name="period" unicode="." horiz-adv-x="438" 
d="M219 -31q-49 0 -83 33.5t-34 81.5q0 50 34 83.5t83 33.5t83 -33.5t34 -83.5q0 -48 -34 -81.5t-83 -33.5z" />
    <glyph glyph-name="slash" unicode="/" horiz-adv-x="856" 
d="M-98 -416l790 1846h125l-790 -1846h-125z" />
    <glyph glyph-name="zero" unicode="0" horiz-adv-x="1142" 
d="M571 -33q-150 0 -260.5 89.5t-165.5 240t-55 342.5q0 191 57.5 344.5t167.5 243.5t254 90q151 0 262 -89t166.5 -239.5t55.5 -341.5t-58 -345t-169 -244.5t-255 -90.5zM575 68q101 0 167 72.5t95 197.5t29 303q0 269 -75.5 422.5t-225.5 153.5q-100 0 -166 -72
t-95.5 -198t-29.5 -304q0 -267 77 -421t224 -154z" />
    <glyph glyph-name="one" unicode="1" horiz-adv-x="917" 
d="M115 0v106h297v961q-71 -33 -179 -33q-71 0 -124 17v86q121 -2 220 41t142 122h109v-1194h286v-106h-751z" />
    <glyph glyph-name="two" unicode="2" horiz-adv-x="1116" 
d="M98 113q0 108 97 219t305 239q167 101 236 183t69 202q0 115 -71 189t-193 74q-94 0 -164 -41t-103 -103q44 -12 70.5 -44t26.5 -77q0 -52 -33 -87.5t-86 -35.5q-56 0 -92.5 41.5t-36.5 108.5q0 83 55.5 160t158.5 126.5t226 49.5q101 0 182.5 -30.5t132.5 -82t78 -117
t27 -139.5q0 -137 -94 -239t-295 -203q-305 -152 -358 -311l4 -7q79 45 176 45q60 0 125 -27t121 -54t96 -27q74 0 116 63.5t78 221.5l80 -7q-22 -232 -97 -334t-198 -102q-47 0 -93.5 18t-83.5 43.5l-72 51t-73 43.5t-73 18q-31 0 -51 -8q18 -29 18 -63q0 -44 -26 -73.5
t-68 -29.5q-55 0 -86 41.5t-31 104.5z" />
    <glyph glyph-name="three" unicode="3" horiz-adv-x="1071" 
d="M504 -33q-180 0 -303 83t-123 200q0 57 36.5 97t92.5 40q51 0 83 -34t32 -81q0 -70 -66 -116q34 -38 96 -64t148 -26q136 0 212 75.5t76 194.5q0 130 -88.5 203t-273.5 73h-59v101h49q179 0 263.5 71.5t84.5 200.5q0 107 -67.5 170.5t-184.5 63.5q-167 0 -248 -103
q37 -14 60.5 -44.5t23.5 -70.5q0 -47 -30 -82.5t-82 -35.5q-53 0 -89 38t-36 99q0 116 118.5 206.5t298.5 90.5q191 0 303.5 -94t112.5 -232q0 -120 -90 -204.5t-254 -118.5v-4q176 -22 272.5 -104t96.5 -208q0 -163 -128 -274t-337 -111z" />
    <glyph glyph-name="four" unicode="4" horiz-adv-x="1134" 
d="M659 477v647h-6l-467 -647h473zM821 104h201v-104h-567v104h202v265h-602v110l607 828h159v-830h269v-108h-269v-265z" />
    <glyph glyph-name="five" unicode="5" horiz-adv-x="1052" 
d="M313 1126l-26 -399q50 40 123 65t155 25q185 0 293.5 -111t108.5 -280q0 -86 -29.5 -166.5t-85 -146.5t-146 -106t-202.5 -40q-106 0 -201 39.5t-153 109t-58 150.5q0 62 37 105t92 43q54 0 83.5 -33.5t29.5 -79.5q0 -41 -24 -75t-60 -48q34 -47 98.5 -79.5t149.5 -32.5
q138 0 215.5 93t77.5 251q0 152 -67.5 229.5t-193.5 77.5q-154 0 -278 -121l-84 25l45 665l27 21q192 -76 366 -76q165 0 303 74l27 -58q-125 -176 -348 -176q-141 0 -275 55z" />
    <glyph glyph-name="six" unicode="6" horiz-adv-x="1089" 
d="M272 616q130 193 334 193q181 0 284 -111t103 -282q0 -88 -28 -168t-80.5 -143t-137.5 -100.5t-190 -37.5q-213 0 -336 167.5t-123 436.5q0 219 68 388t195 263.5t294 94.5q145 0 230.5 -67.5t85.5 -164.5q0 -64 -34.5 -104.5t-90.5 -40.5q-52 0 -83.5 32t-31.5 79
q0 36 22.5 68.5t59.5 45.5q-51 54 -158 54q-177 0 -279.5 -155.5t-103.5 -447.5zM285 391q0 -133 78.5 -228t199.5 -95q124 0 189 90.5t65 247.5q0 82 -26.5 148.5t-85.5 109.5t-142 43q-121 0 -199.5 -89t-78.5 -227z" />
    <glyph glyph-name="seven" unicode="7" horiz-adv-x="1067" 
d="M547 92q-5 -64 -29.5 -94.5t-73.5 -30.5q-42 0 -69 28t-27 81q-2 161 107.5 406.5t289.5 439.5q117 131 156 182l-8 8q-111 -63 -205 -63q-50 0 -98 14t-79 31t-69.5 31t-70.5 14q-48 0 -79.5 -26.5t-54 -98t-34.5 -197.5h-101v471h107l8 -166h8q31 92 77.5 134t119.5 42
q45 0 84.5 -17t69 -41l57.5 -48.5t61.5 -41.5t69.5 -17q48 0 92 20q-29 36 -29 70q0 40 29 68t70 28q48 0 76 -31.5t28 -77.5q0 -57 -35 -112t-133 -168q-150 -173 -224 -365t-91 -473z" />
    <glyph glyph-name="eight" unicode="8" horiz-adv-x="1089" 
d="M133 952q0 153 117 259t307 106q179 0 289 -95.5t110 -228.5q0 -220 -235 -311q276 -106 276 -322q0 -165 -131 -279t-331 -114q-196 0 -317.5 100.5t-121.5 245.5q0 101 59.5 188t194.5 140q-113 51 -165 127.5t-52 183.5zM457 602q-2 0 -6.5 1t-6.5 1
q-96 -38 -145 -108t-49 -164q0 -114 83 -191.5t220 -77.5q125 0 206 75t81 175q0 102 -85 164t-298 125zM293 991q0 -105 77 -168t253 -110q100 45 146 115t46 153q0 101 -71.5 169.5t-194.5 68.5q-118 0 -187 -67t-69 -161z" />
    <glyph glyph-name="nine" unicode="9" horiz-adv-x="1089" 
d="M817 651q-128 -190 -334 -190q-181 0 -284 111t-103 286q0 92 28 174t80.5 146t137 101.5t190.5 37.5q213 0 336 -166.5t123 -435.5q0 -223 -65.5 -391.5t-190.5 -262.5t-293 -94q-159 0 -249.5 70.5t-90.5 173.5q0 62 35 101.5t90 39.5q52 0 83.5 -31t31.5 -77
q0 -37 -22 -69.5t-60 -47.5q64 -61 180 -61q176 0 275 149.5t102 435.5zM805 887q0 138 -78.5 234t-200.5 96q-125 0 -189.5 -92.5t-64.5 -254.5q0 -134 64.5 -221.5t189.5 -87.5q122 0 200.5 91t78.5 235z" />
    <glyph glyph-name="colon" unicode=":" horiz-adv-x="446" 
d="M223 582q-49 0 -83 33.5t-34 80.5q0 50 34 83.5t83 33.5t83 -33.5t34 -83.5q0 -47 -34 -80.5t-83 -33.5zM223 -31q-49 0 -83 33.5t-34 81.5q0 50 34 83.5t83 33.5t83 -33.5t34 -83.5q0 -48 -34 -81.5t-83 -33.5z" />
    <glyph glyph-name="semicolon" unicode=";" horiz-adv-x="446" 
d="M227 582q-49 0 -82.5 33t-33.5 81q0 50 33.5 83.5t82.5 33.5q48 0 82.5 -34t34.5 -83q0 -47 -34.5 -80.5t-82.5 -33.5zM66 -289l-31 64q107 51 156.5 103t60.5 116l-8 4q-21 -12 -47 -12q-39 0 -66 29t-27 71q0 47 31.5 81t79.5 34q59 0 94 -42.5t35 -109.5
q0 -106 -65.5 -189t-212.5 -149z" />
    <glyph glyph-name="less" unicode="&#x3c;" horiz-adv-x="1056" 
d="M895 147l-731 377v90l731 375v-110l-614 -310l614 -307v-115z" />
    <glyph glyph-name="equal" unicode="=" horiz-adv-x="1077" 
d="M117 705v100h841v-100h-841zM117 334v98h841v-98h-841z" />
    <glyph glyph-name="greater" unicode="&#x3e;" horiz-adv-x="1056" 
d="M162 989l731 -377v-90l-731 -375v111l614 309l-614 307v115z" />
    <glyph glyph-name="question" unicode="?" horiz-adv-x="880" 
d="M360 393q2 107 32 194t97 169l40 48.5l38 46t29.5 39.5t26.5 43l17 40.5t13.5 48t3.5 51.5q0 97 -62 161t-163 64q-80 0 -140.5 -34t-84.5 -88q40 -11 66 -44t26 -75q0 -51 -32.5 -87t-86.5 -36q-55 0 -92 40t-37 99q0 124 112 220t271 96q189 0 294.5 -95.5
t105.5 -234.5q0 -101 -51 -181.5t-177 -185.5q-74 -64 -109 -133.5t-46 -165.5h-91zM412 -31q-49 0 -83 33.5t-34 81.5q0 50 33.5 83.5t83.5 33.5q49 0 82.5 -33.5t33.5 -83.5q0 -48 -33.5 -81.5t-82.5 -33.5z" />
    <glyph glyph-name="at" unicode="@" horiz-adv-x="1857" 
d="M940 -299q-173 0 -322 53.5t-259.5 153t-173 251.5t-62.5 339q0 190 69 356.5t186.5 283t279.5 184t343 67.5q149 0 282.5 -50t233.5 -139.5t159 -224t59 -293.5q0 -105 -25.5 -196.5t-69.5 -157t-102.5 -112.5t-124 -70t-133.5 -23q-112 0 -169 57.5t-40 165.5l-10 2
q-61 -98 -135.5 -150.5t-151.5 -52.5q-105 0 -173.5 75.5t-68.5 207.5q0 116 50 227.5t131 188.5q132 125 276 125q72 0 126 -43t65 -125l49 157h133l-156 -501q-24 -76 -26.5 -127.5t15.5 -77t44 -35.5t66 -10q63 0 123 33.5t107.5 93t76 149t28.5 193.5q0 187 -84 332
t-231.5 223t-333.5 78q-220 0 -398 -108.5t-277 -294t-99 -410.5q0 -325 199 -519t532 -194q296 0 535 174l41 -63q-119 -91 -270 -142t-314 -51zM813 246q63 0 123 48t101 118.5t66 149.5t25 143q0 47 -12 86t-44 67.5t-81 28.5q-84 0 -157.5 -77.5t-112.5 -185.5t-39 -210
q0 -80 34 -124t97 -44z" />
    <glyph glyph-name="A" unicode="A" horiz-adv-x="1376" 
d="M1030 106l-133 375h-496l-141 -375h180v-106h-448v106h143l488 1240h143l455 -1240h172v-106h-574v106h211zM655 1145l-217 -567h424l-200 567h-7z" />
    <glyph glyph-name="B" unicode="B" horiz-adv-x="1286" 
d="M66 0v106h227v1125h-227v104h591q143 0 244 -25.5t154 -72t75.5 -100.5t22.5 -123q0 -45 -16 -88.5t-52 -87.5t-105 -79t-163 -52v-7q194 -14 297 -103t103 -218q0 -62 -15 -114t-54 -102.5t-100.5 -85t-160.5 -56t-228 -21.5h-593zM465 752h203q301 0 301 258
q0 110 -66 165.5t-227 55.5h-211v-479zM465 106h205q193 0 276.5 67t83.5 218q0 122 -92 192t-276 70h-197v-547z" />
    <glyph glyph-name="C" unicode="C" horiz-adv-x="1382" 
d="M715 -33q-182 0 -323.5 90t-218.5 250t-77 363q0 193 83 353.5t226 252.5t314 92q242 0 383 -162l39 156h106v-506h-94q-65 195 -170.5 297t-261.5 102q-193 0 -310.5 -150t-117.5 -423q0 -284 122 -441t328 -157q175 0 287 120t141 318h115q-29 -263 -181 -409
t-390 -146z" />
    <glyph glyph-name="D" unicode="D" horiz-adv-x="1441" 
d="M66 0v106h227v1125h-227v104h552q180 0 320 -46.5t230 -132t136 -204t46 -264.5t-43 -268.5t-128 -217.5t-225.5 -148.5t-322.5 -53.5h-565zM465 106h170q269 0 393.5 141t124.5 441q0 270 -128.5 406.5t-403.5 136.5h-156v-1125z" />
    <glyph glyph-name="E" unicode="E" horiz-adv-x="1345" 
d="M66 0v106h227v1125h-227v104h1142v-417h-80l-25.5 115t-22.5 82t-25 59t-31.5 33.5t-41.5 19.5t-56 4h-461v-498h203q33 0 53 2t38 11t27.5 20t19.5 37.5t15.5 55t14.5 79.5h84v-510h-84q-11 77 -20 115.5t-28.5 62.5t-44.5 29.5t-75 5.5h-203v-535h457q29 0 50 2.5
t40 11t32 18t25.5 32.5t20.5 44.5t18.5 63t18.5 79.5t20 102h80v-459h-1161z" />
    <glyph glyph-name="F" unicode="F" horiz-adv-x="1298" 
d="M66 0v106h227v1125h-227v104h1144v-426h-80q-24 109 -42 167.5t-44 96t-56 48t-81 10.5h-442v-522h188q48 0 73 6t44 29.5t28.5 61.5t20.5 112h84v-523h-84q-9 77 -18.5 117.5t-29 65.5t-45 31.5t-73.5 6.5h-188v-510h250v-106h-649z" />
    <glyph glyph-name="G" unicode="G" 
d="M1090 178q-60 -101 -158.5 -156t-220.5 -55q-183 0 -324.5 94.5t-216 254t-74.5 356.5q0 188 80 347.5t222 254t313 94.5q113 0 211.5 -43.5t164.5 -118.5l39 156h107v-500h-94q-63 188 -168.5 290.5t-251.5 102.5q-199 0 -312.5 -149.5t-113.5 -421.5
q0 -281 116.5 -439.5t323.5 -158.5q166 0 260 125q82 101 82 287v53h-250v106h607v-106h-183v-565h-100z" />
    <glyph glyph-name="H" unicode="H" horiz-adv-x="1581" 
d="M66 0v106h227v1125h-227v104h600v-104h-201v-492h649v492h-199v104h601v-104h-228v-1125h228v-106h-601v106h199v537h-649v-537h201v-106h-600z" />
    <glyph glyph-name="I" unicode="I" horiz-adv-x="786" 
d="M80 0v106h225v1125h-225v104h627v-104h-228v-1125h228v-106h-627z" />
    <glyph glyph-name="J" unicode="J" horiz-adv-x="1085" 
d="M446 -33q-172 0 -278.5 89.5t-106.5 217.5q0 70 40.5 115t99.5 45q56 0 91.5 -36.5t35.5 -94.5q0 -44 -25.5 -77t-71.5 -46q26 -47 82 -76.5t129 -29.5q107 0 167.5 70t60.5 196v891h-219v104h596v-104h-205v-860q0 -189 -107 -296.5t-289 -107.5z" />
    <glyph glyph-name="K" unicode="K" horiz-adv-x="1468" 
d="M465 469v-363h201v-106h-600v106h227v1125h-227v104h600v-104h-201v-625l610 625h-184v104h514v-104h-172l-453 -449l504 -676h164v-106h-561v106h184l-407 560z" />
    <glyph glyph-name="L" unicode="L" horiz-adv-x="1241" 
d="M66 1335h639v-104h-240v-1125h403q31 0 52.5 5t41 25t32 42t28.5 75t28.5 103t34.5 146h80v-502h-1099v106h227v1125h-227v104z" />
    <glyph glyph-name="M" unicode="M" horiz-adv-x="1902" 
d="M70 0v106h213v1125h-213v104h499l379 -1042h6l387 1042h490v-104h-221v-1125h221v-106h-576v106h181v1117h-13l-469 -1225h-73l-467 1225h-13v-1117h193v-106h-524z" />
    <glyph glyph-name="N" unicode="N" horiz-adv-x="1570" 
d="M1206 -33l-794 1151h-11v-1012h205v-106h-536v106h213v1125h-213v104h401l717 -1036h10v932h-207v104h531v-104h-203v-1264h-113z" />
    <glyph glyph-name="O" unicode="O" 
d="M729 -33q-131 0 -248 52t-201.5 143.5t-134 222.5t-49.5 283q0 147 51 277.5t136.5 222.5t202 145t243.5 53q132 0 248 -51.5t200.5 -142t133.5 -221.5t49 -283q0 -148 -50.5 -279t-136 -223t-201.5 -145.5t-243 -53.5zM729 76q203 0 319.5 158.5t116.5 433.5
q0 271 -116.5 430t-319.5 159q-204 0 -320 -158.5t-116 -430.5t116 -432t320 -160z" />
    <glyph glyph-name="P" unicode="P" horiz-adv-x="1247" 
d="M66 0v106h227v1125h-227v104h581q119 0 212 -20.5t153 -55.5t99 -84.5t55 -103.5t16 -117q0 -81 -30.5 -151t-91.5 -127t-165 -90t-240 -33h-190v-447h250v-106h-649zM465 653h186q338 0 338 301q0 277 -336 277h-188v-578z" />
    <glyph glyph-name="Q" unicode="Q" 
d="M729 -33q-131 0 -248 52t-201.5 143.5t-134 222.5t-49.5 283q0 147 51 277.5t136.5 222.5t202 145t243.5 53q132 0 248 -51.5t200.5 -142t133.5 -221.5t49 -283q0 -178 -69.5 -327t-190.5 -243q59 -99 100 -136.5t88 -37.5q56 0 88 48.5t47 148.5h97q-11 -158 -73 -248
t-181 -90q-97 0 -165 58t-128 179q-115 -53 -244 -53zM434 209q0 114 71 193t197 79q103 0 180 -67t152 -197q131 163 131 451q0 271 -116.5 430t-319.5 159q-204 0 -320 -158.5t-116 -430.5q0 -299 141 -459zM743 76q102 0 185 47q-59 123 -116.5 187.5t-135.5 64.5
q-69 0 -110.5 -44t-41.5 -110q0 -145 219 -145z" />
    <glyph glyph-name="R" unicode="R" horiz-adv-x="1386" 
d="M465 600v-494h225v-106h-624v106h227v1125h-227v104h653q248 0 367.5 -96t119.5 -250q0 -116 -77.5 -206.5t-243.5 -120.5v-13q138 -33 197.5 -102t68.5 -189l12 -168q4 -49 21.5 -71.5t50.5 -22.5q28 0 50 23t46 74l70 -33q-34 -90 -85.5 -136.5t-129.5 -46.5
q-206 0 -211 240l-4 162q-3 121 -55 171t-197 50h-254zM465 698h242q160 0 231.5 75t71.5 214q0 122 -66.5 183t-210.5 61h-268v-533z" />
    <glyph glyph-name="S" unicode="S" horiz-adv-x="1171" 
d="M113 -27v465h92q97 -199 202 -285.5t252 -86.5q122 0 194.5 64t72.5 181q0 53 -19 94t-46.5 67.5t-80.5 50.5t-97.5 38t-121.5 35l-81 22.5t-76.5 25t-73.5 31.5t-64 38t-56 49t-41.5 59.5t-28.5 74t-9 89.5q0 162 113 271.5t297 109.5q99 0 191 -39.5t151 -107.5l41 141
h100v-440h-92q-140 350 -402 350q-105 0 -172 -62.5t-67 -171.5q0 -54 20.5 -96t44.5 -67t80 -49.5t89.5 -34.5t110.5 -31q5 -1 7 -2l69 -18t65.5 -19t63.5 -22t57 -25t53 -30.5t44.5 -36t38 -44t27.5 -51.5t18.5 -62t5.5 -73q0 -175 -121.5 -291.5t-308.5 -116.5
q-241 0 -397 166l-45 -160h-100z" />
    <glyph glyph-name="T" unicode="T" horiz-adv-x="1372" 
d="M365 0v106h235v1133h-182q-30 0 -52.5 -2.5t-42 -12.5t-33 -20t-27.5 -34t-23.5 -46t-21.5 -65.5t-21.5 -82l-24.5 -104.5h-78v463h1184v-463h-78q-15 67 -24.5 105t-21.5 81.5t-21.5 65t-23.5 46t-27.5 34.5t-34 20t-42.5 12.5t-53 2.5h-180v-1133h236v-106h-643z" />
    <glyph glyph-name="U" unicode="U" horiz-adv-x="1503" 
d="M748 -33q-247 0 -376.5 118.5t-129.5 317.5v828h-197v104h576v-104h-207v-782q0 -189 96.5 -275t288.5 -86q164 0 260 96q52 52 73 124.5t21 189.5v733h-207v104h514v-104h-188v-809q0 -96 -33.5 -178t-97.5 -144t-165 -97.5t-228 -35.5z" />
    <glyph glyph-name="V" unicode="V" horiz-adv-x="1388" 
d="M629 -8l-465 1239h-172v104h573v-104h-211l369 -1024h12l393 1024h-180v104h449v-104h-144l-491 -1239h-133z" />
    <glyph glyph-name="W" unicode="W" horiz-adv-x="2015" 
d="M1335 1231h-215l293 -1008h10l326 1008h-180v104h446v-104h-143l-418 -1239h-145l-283 950l-326 -950h-143l-389 1239h-174v104h567v-104h-207l308 -1008h10l299 891l-33 117h-172v104h569v-104z" />
    <glyph glyph-name="X" unicode="X" horiz-adv-x="1376" 
d="M831 1231v104h500v-104h-166l-383 -533l398 -592h178v-106h-565v106h184l-313 482l-340 -482h194v-106h-498v106h166l408 564l-377 561h-180v104h567v-104h-182l289 -451l313 451h-193z" />
    <glyph glyph-name="Y" unicode="Y" horiz-adv-x="1304" 
d="M692 672l330 559h-172v104h453v-104h-158l-408 -668v-457h207v-106h-586v106h205v455l-383 670h-168v104h557v-104h-184z" />
    <glyph glyph-name="Z" unicode="Z" horiz-adv-x="1247" 
d="M80 0v76l854 1155h-512q-34 0 -53.5 -2.5t-40.5 -15.5t-33.5 -33t-28.5 -62.5t-30 -97t-33 -141.5h-82v456h1036v-73l-848 -1156h553q33 0 53 3.5t40.5 18.5t33 36.5t28 66.5t29 99t33.5 143h80v-473h-1079z" />
    <glyph glyph-name="bracketleft" unicode="[" horiz-adv-x="692" 
d="M182 -311v1786h510v-101h-350v-1585h350v-100h-510z" />
    <glyph glyph-name="backslash" unicode="\" horiz-adv-x="856" 
d="M829 -416l-790 1846h125l790 -1846h-125z" />
    <glyph glyph-name="bracketright" unicode="]" horiz-adv-x="692" 
d="M510 1475v-1786h-510v100h350v1585h-350v101h510z" />
    <glyph glyph-name="asciicircum" unicode="^" horiz-adv-x="681" 
d="M61 1049l242 403h82l233 -403h-81l-197 237l-199 -237h-80z" />
    <glyph glyph-name="underscore" unicode="_" horiz-adv-x="901" 
d="M-4 0v111h909v-111h-909z" />
    <glyph glyph-name="grave" unicode="`" horiz-adv-x="487" 
d="M348 1079h-78l-133 170q-50 65 -69 96.5t-19 59.5q0 33 22 54.5t52 21.5q37 0 65 -33.5t58 -110.5z" />
    <glyph glyph-name="a" unicode="a" horiz-adv-x="989" 
d="M358 -14q-124 0 -194 65t-70 174q0 97 64 164q51 51 128 77.5t222 49.5q98 16 121.5 25t23.5 34v91q0 98 -47.5 141t-142.5 43q-111 0 -176 -53q55 -28 55 -95q0 -45 -29 -74.5t-77 -29.5q-49 0 -79 31.5t-30 79.5q0 97 108 162t254 65q324 0 324 -277v-481
q0 -46 14.5 -64t46.5 -18q25 0 44.5 20t37.5 62l62 -35q-36 -80 -80 -116.5t-111 -36.5q-68 0 -111 42t-44 128h-6q-46 -78 -130.5 -126t-177.5 -48zM428 94q84 0 154.5 59.5t70.5 137.5v182q-22 -7 -100 -20q-161 -25 -223 -67t-62 -132q0 -77 40.5 -118.5t119.5 -41.5z
" />
    <glyph glyph-name="b" unicode="b" horiz-adv-x="1077" 
d="M584 90q106 0 169.5 99t63.5 276q0 173 -62 269.5t-167 96.5q-114 0 -191.5 -111.5t-77.5 -281.5q0 -162 78 -255t187 -93zM166 -10v1306h-154v111h312v-684q53 103 135.5 159t177.5 56q137 0 225 -88q129 -126 129 -381q0 -118 -35.5 -219.5t-101.5 -167.5
q-98 -98 -238 -98q-101 0 -181.5 56t-125.5 153l-59 -203h-84z" />
    <glyph glyph-name="c" unicode="c" horiz-adv-x="966" 
d="M508 -18q-191 0 -309.5 129.5t-118.5 330.5q0 219 129.5 357.5t335.5 138.5q144 0 246 -82.5t102 -177.5q0 -61 -32.5 -101t-86.5 -40q-51 0 -80.5 32t-29.5 78q0 37 21.5 68t55.5 43q-63 94 -202 94q-128 0 -207.5 -105.5t-79.5 -283.5q0 -175 78.5 -275t216.5 -100
q191 0 270 211h88q-39 -154 -142.5 -235.5t-254.5 -81.5z" />
    <glyph glyph-name="d" unicode="d" horiz-adv-x="1095" 
d="M446 -16q-137 0 -227 90q-133 130 -133 375q0 117 37.5 221t103.5 170q98 98 238 98q94 0 169 -47t118 -131v536h-156v111h313v-1301h148v-106h-301v201q-53 -107 -133.5 -162t-176.5 -55zM498 90q109 0 184.5 107t75.5 278q0 159 -70.5 257.5t-183.5 98.5t-178.5 -99
t-65.5 -273q0 -172 67.5 -270.5t170.5 -98.5z" />
    <glyph glyph-name="e" unicode="e" horiz-adv-x="974" 
d="M899 453h-647q3 -176 82 -269.5t213 -93.5q190 0 262 180h86q-41 -141 -140 -214.5t-243 -73.5q-198 0 -315 130t-117 339t126 348t312 139q78 0 143 -27t109 -73.5t74.5 -108.5t43.5 -132t11 -144zM508 850q-104 0 -171.5 -79.5t-82.5 -229.5h481q-11 149 -67.5 229
t-159.5 80z" />
    <glyph glyph-name="f" unicode="f" horiz-adv-x="684" 
d="M72 0v106h151v709h-186v100h186v60q0 118 32 207t86.5 139t119.5 74t139 24q111 0 184.5 -49.5t73.5 -128.5q0 -48 -29 -82.5t-73 -34.5q-51 0 -80 28.5t-29 78.5q0 43 35 78q-33 26 -98 26q-102 0 -151.5 -79t-49.5 -273v-68h272v-100h-272v-709h215v-106h-526z" />
    <glyph glyph-name="g" unicode="g" horiz-adv-x="960" 
d="M827 639q0 -142 -99 -221.5t-261 -79.5q-23 0 -64.5 3t-60.5 3q-48 0 -78.5 -25t-30.5 -59q0 -40 42 -61t120 -21h244q270 0 270 -207q0 -128 -124.5 -214.5t-338.5 -86.5q-183 0 -290 59.5t-107 153.5q0 66 55 118t142 67v6q-81 24 -116.5 61t-35.5 88t49 96t125 62
q-162 83 -162 252q0 141 102.5 222t258.5 81q75 0 151 -29q106 183 248 183q53 0 86 -30t33 -77q0 -39 -25.5 -66.5t-64.5 -27.5q-38 0 -60 22.5t-22 59.5q0 12 2 20q-29 2 -66.5 -30t-64.5 -84q66 -40 104.5 -101.5t38.5 -136.5zM475 416q88 0 136 57t48 164
q0 96 -53.5 158.5t-144.5 62.5q-90 0 -139.5 -56t-49.5 -167q0 -109 54.5 -164t148.5 -55zM455 -244q141 0 227 48.5t86 125.5q0 115 -145 115h-230q-93 0 -142.5 -37.5t-49.5 -107.5q0 -66 61.5 -105t192.5 -39z" />
    <glyph glyph-name="h" unicode="h" horiz-adv-x="1138" 
d="M45 0v106h154v1190h-154v111h313v-719q141 248 344 248q118 0 184 -75.5t66 -215.5v-539h154v-106h-453v106h142v467q0 137 -54 191q-40 43 -116 43q-101 0 -184 -93t-83 -206v-402h140v-106h-453z" />
    <glyph glyph-name="i" unicode="i" horiz-adv-x="614" 
d="M315 1130q-52 0 -84 31t-32 84q0 52 32 85.5t84 33.5q48 0 80.5 -32.5t32.5 -84.5t-32.5 -84.5t-80.5 -32.5zM74 0v106h174v709h-174v107h332v-816h174v-106h-506z" />
    <glyph glyph-name="j" unicode="j" horiz-adv-x="575" 
d="M319 1130q-52 0 -83 31t-31 84q0 52 31 85.5t83 33.5q48 0 80.5 -32.5t32.5 -84.5t-31.5 -84.5t-81.5 -32.5zM111 -334q-90 0 -152.5 46t-62.5 114q0 48 32 83.5t78 35.5q48 0 76.5 -29t28.5 -70q0 -47 -35 -82q20 -14 53 -14q123 0 123 205v860h-172v107h332v-885
q0 -181 -77.5 -276t-223.5 -95z" />
    <glyph glyph-name="k" unicode="k" horiz-adv-x="1069" 
d="M864 815l-252 -256l320 -453h117v-106h-420v104h123l-244 355l-150 -152v-201h127v-106h-440v106h154v1190h-154v111h313v-985l373 395h-153v105h426v-107h-140z" />
    <glyph glyph-name="l" unicode="l" horiz-adv-x="581" 
d="M37 0v106h174v1190h-174v111h334v-1301h172v-106h-506z" />
    <glyph glyph-name="m" unicode="m" horiz-adv-x="1718" 
d="M954 692q149 244 340 244q116 0 178 -75.5t62 -217.5v-537h154v-106h-443v106h131v467q0 141 -51 195q-37 37 -111 37q-96 0 -176 -93t-80 -204v-402h132v-106h-420v106h129v467q0 143 -49 195q-40 37 -111 37q-98 0 -177 -93t-79 -204v-402h129v-106h-442v106h153v709
h-153v107h309v-238q146 252 338 252q219 0 237 -244z" />
    <glyph glyph-name="n" unicode="n" horiz-adv-x="1163" 
d="M70 0v106h153v709h-153v107h309v-238q146 252 348 252q118 0 184 -75.5t66 -215.5v-539h153v-106h-452v106h141v467q0 138 -53 191q-40 43 -117 43q-101 0 -183.5 -93t-82.5 -206v-402h139v-106h-452z" />
    <glyph glyph-name="o" unicode="o" horiz-adv-x="1048" 
d="M524 -18q-197 0 -320.5 130t-123.5 341q0 213 126.5 349t317.5 136q197 0 321 -130t124 -341q0 -213 -127 -349t-318 -136zM532 72q119 0 191 98.5t72 290.5t-78 289.5t-201 97.5q-119 0 -191.5 -98.5t-72.5 -290.5q0 -190 78.5 -288.5t201.5 -98.5z" />
    <glyph glyph-name="p" unicode="p" horiz-adv-x="1103" 
d="M606 109q109 0 173.5 96t64.5 276q0 178 -64.5 264t-165.5 86q-105 0 -183.5 -109.5t-78.5 -268.5q0 -151 70 -247.5t184 -96.5zM45 -307v106h154v1016h-154v107h307v-215q52 117 134 174t182 57q133 0 225 -92q125 -125 125 -369q0 -115 -36 -214.5t-101 -164.5
q-98 -98 -234 -98q-99 0 -173.5 52t-117.5 136v-389h201v-106h-512z" />
    <glyph glyph-name="q" unicode="q" horiz-adv-x="1069" 
d="M502 831q-111 0 -176.5 -95.5t-65.5 -272.5q0 -182 66 -268t170 -86q107 0 182.5 104.5t75.5 265.5q0 154 -71.5 253t-180.5 99zM752 217q-50 -107 -130 -162t-178 -55q-137 0 -233 96q-62 62 -93.5 158t-31.5 209q0 108 37 209t100 164q102 102 240 102q99 0 178.5 -56
t124.5 -153l59 201h84v-1131h154v-106h-510v106h199v418z" />
    <glyph glyph-name="r" unicode="r" horiz-adv-x="829" 
d="M70 0v106h153v709h-153v107h309v-217q42 112 118 170.5t160 58.5q69 0 109.5 -40.5t40.5 -100.5q0 -50 -32 -84.5t-79 -34.5t-78.5 29t-31.5 77q0 23 8 39q-70 7 -128.5 -62t-82.5 -153v-498h180v-106h-493z" />
    <glyph glyph-name="s" unicode="s" horiz-adv-x="886" 
d="M92 -18v348h94q37 -123 117.5 -193.5t188.5 -70.5q85 0 132.5 39t47.5 104q0 68 -54.5 106.5t-195.5 77.5q-170 48 -241.5 111t-71.5 168q0 109 87 187.5t222 78.5q79 0 141.5 -28.5t97.5 -82.5l23 111h90v-315h-90q-51 121 -109 176t-155 55q-68 0 -116 -36t-48 -97
q0 -63 56 -103.5t186 -76.5q175 -47 246 -107t71 -172q0 -111 -88.5 -195.5t-230.5 -84.5q-186 0 -287 129l-23 -129h-90z" />
    <glyph glyph-name="t" unicode="t" horiz-adv-x="716" 
d="M201 1161l159 21v-267h302v-100h-302v-579q0 -144 115 -144q52 0 88 39.5t66 124.5l73 -29q-69 -245 -268 -245q-115 0 -174 65t-59 184v584h-187v100h187v246z" />
    <glyph glyph-name="u" unicode="u" horiz-adv-x="1128" 
d="M434 -16q-116 0 -181 76t-65 216v539h-151v107h309v-574q0 -142 53 -192q36 -41 113 -41q101 0 182.5 93t81.5 204v403h-158v107h318v-816h151v-106h-307v236q-148 -252 -346 -252z" />
    <glyph glyph-name="v" unicode="v" horiz-adv-x="1011" 
d="M442 -12l-315 827h-127v107h461v-107h-160l231 -651h7l247 651h-143v107h369v-107h-111l-332 -827h-127z" />
    <glyph glyph-name="w" unicode="w" horiz-adv-x="1540" 
d="M1030 815h-166l221 -651h7l223 651h-144v107h365v-107h-111l-299 -827h-131l-209 594l-241 -594h-129l-285 827h-127v107h449v-107h-156l211 -651h4l225 561l-30 90h-127v107h450v-107z" />
    <glyph glyph-name="x" unicode="x" horiz-adv-x="997" 
d="M459 819h-142l205 -280l226 280h-132v103h359v-107h-105l-286 -340l280 -369h111v-106h-426v102h139l-207 281l-229 -281h127v-102h-354v106h108l287 338l-285 371h-110v107h434v-103z" />
    <glyph glyph-name="y" unicode="y" horiz-adv-x="1001" 
d="M143 -68q46 0 75.5 -30t29.5 -74q0 -40 -19 -70q63 3 115.5 54.5t108.5 189.5l-326 813h-127v107h459v-107h-160l238 -633l245 633h-141v107h369v-107h-113l-317 -778q-83 -207 -172.5 -289t-200.5 -82q-83 0 -130.5 40.5t-47.5 103.5q0 51 32 86.5t82 35.5z" />
    <glyph glyph-name="z" unicode="z" horiz-adv-x="935" 
d="M72 0v88l600 743h-326q-78 0 -106 -39.5t-62 -191.5h-76v322h766v-88l-604 -744h375q75 0 101.5 44.5t54.5 209.5h77v-344h-800z" />
    <glyph glyph-name="braceleft" unicode="{" horiz-adv-x="794" 
d="M33 631h61q141 0 211 50.5t70 137.5q0 50 -15.5 150t-15.5 145q0 166 108 261t322 102v-95q-152 -13 -210 -73.5t-58 -178.5q0 -30 8 -121t8 -139q0 -247 -278 -284v-6q278 -37 278 -287q0 -48 -8 -139t-8 -121q0 -118 58 -178.5t210 -73.5v-94q-214 7 -322 101.5
t-108 260.5q0 45 15.5 145.5t15.5 151.5q0 87 -70 136.5t-211 49.5h-61v99z" />
    <glyph glyph-name="bar" unicode="|" horiz-adv-x="571" 
d="M229 -416v1846h113v-1846h-113z" />
    <glyph glyph-name="braceright" unicode="}" horiz-adv-x="794" 
d="M762 532h-62q-141 0 -210.5 -50.5t-69.5 -137.5q0 -50 15.5 -150t15.5 -145q0 -166 -108.5 -260.5t-322.5 -101.5v94q152 13 210.5 74t58.5 178q0 30 -8.5 121t-8.5 139q0 248 279 285v6q-279 37 -279 286q0 48 8.5 139t8.5 121q0 117 -58.5 178t-210.5 74v95
q214 -7 322.5 -102t108.5 -261q0 -45 -15.5 -145.5t-15.5 -151.5q0 -87 69.5 -136.5t210.5 -49.5h62v-99z" />
    <glyph glyph-name="asciitilde" unicode="~" horiz-adv-x="759" 
d="M84 514q18 137 60.5 193.5t121.5 56.5q36 0 75.5 -18.5t68 -40t60.5 -40t54 -18.5q35 0 55 33.5t31 97.5h74q-18 -137 -60.5 -193.5t-121.5 -56.5q-36 0 -75.5 18.5t-68 40t-60.5 40t-54 18.5q-35 0 -55 -33.5t-31 -97.5h-74z" />
    <glyph glyph-name="uni00A0" unicode="&#xa0;" horiz-adv-x="364" 
 />
    <glyph glyph-name="exclamdown" unicode="&#xa1;" horiz-adv-x="544" 
d="M299 -31q-49 0 -76.5 31.5t-27.5 93.5q0 51 26 348q31 299 43 535h68q7 -145 43 -535q28 -274 28 -348q0 -62 -27.5 -93.5t-76.5 -31.5zM299 1389q49 0 83 -33.5t34 -81.5q0 -50 -34 -83.5t-83 -33.5t-83 33.5t-34 83.5q0 48 34 81.5t83 33.5z" />
    <glyph glyph-name="cent" unicode="&#xa2;" horiz-adv-x="1052" 
d="M563 -209l-94 6l14 193q-164 26 -263 149.5t-99 302.5q0 208 122.5 345t325.5 149l17 182l94 -6l-16 -178q137 -15 229 -92.5t92 -165.5q0 -59 -32.5 -95t-86.5 -36q-52 0 -82 32t-30 78q0 37 21.5 68t55.5 43q-49 69 -176 84l-69 -762h18q98 0 174 54t115 157h86
q-37 -149 -144 -230.5t-255 -86.5zM293 463q0 -139 53 -233t150 -126l67 746q-124 -15 -197 -118.5t-73 -268.5z" />
    <glyph glyph-name="sterling" unicode="&#xa3;" horiz-adv-x="1202" 
d="M940 584h-356q6 -60 6 -64q0 -108 -62 -227q68 -21 143 -62.5l130 -69.5t96 -28q64 0 100.5 51.5t57.5 177.5l82 -6q-12 -205 -74.5 -296t-188.5 -91q-52 0 -108 23t-97 52.5l-98.5 69t-97.5 60.5q-85 -207 -248 -207q-68 0 -112.5 40t-44.5 106q0 84 77 146.5t222 62.5
q31 0 71 -7q19 61 19 117q0 68 -41 152h-299v104h243q-47 96 -47 197q0 197 122.5 314.5t305.5 117.5q156 0 250 -79t94 -183q0 -66 -37 -108t-92 -42q-54 0 -87 33t-33 86q0 40 21 70.5t54 42.5q-22 36 -70.5 59t-109.5 23q-111 0 -183.5 -67t-72.5 -181q0 -36 9 -78
t16 -63.5t29 -77t26 -64.5h385v-104zM240 59q85 0 143 150q-44 14 -78 14q-63 0 -97 -29.5t-34 -68.5q0 -31 19 -48.5t47 -17.5z" />
    <glyph glyph-name="yen" unicode="&#xa5;" horiz-adv-x="1339" 
d="M203 633h329l-313 551h-160v102h535v-102h-182l286 -531l308 531h-168v102h444v-102h-149l-334 -551h327v-96h-378v-148h378v-96h-378v-187h241v-106h-647v106h244v187h-383v96h383v148h-383v96z" />
    <glyph glyph-name="section" unicode="&#xa7;" horiz-adv-x="1056" 
d="M526 -242q-160 0 -272.5 69t-112.5 171q0 54 32 91.5t83 37.5q50 0 80.5 -31.5t30.5 -75.5q0 -32 -18 -59t-44 -41q28 -26 86 -48t144 -22q111 0 166 46t55 112t-53.5 115t-204.5 100q-194 65 -267 129.5t-73 173.5q0 82 62 149.5t167 106.5v11q-97 44 -147 99t-50 134
q0 124 105 208.5t268 84.5q136 0 232 -68t96 -157q0 -53 -29 -86t-76 -33q-48 0 -77 29.5t-29 70.5q0 29 15 53t38 37q-67 62 -176 62q-107 0 -165 -46t-58 -110q0 -62 55.5 -107t212.5 -100q184 -63 255 -127t71 -176q0 -77 -58 -148t-157 -110v-10q92 -40 139 -96t47 -136
q0 -124 -95.5 -213.5t-277.5 -89.5zM602 340q89 27 133.5 77t44.5 111q0 66 -48.5 112.5t-178.5 88.5l-59 21q-92 -28 -138.5 -80t-46.5 -113q0 -67 52 -111t188 -88z" />
    <glyph glyph-name="dieresis" unicode="&#xa8;" horiz-adv-x="659" 
d="M508 1126q-44 0 -75.5 32.5t-31.5 78.5t31.5 79.5t75.5 33.5t74 -33.5t30 -79.5t-30 -78.5t-74 -32.5zM152 1126q-44 0 -74.5 32.5t-30.5 78.5t30.5 79.5t74.5 33.5t75 -33.5t31 -79.5t-31 -78.5t-75 -32.5z" />
    <glyph glyph-name="copyright" unicode="&#xa9;" horiz-adv-x="1611" 
d="M805 -66q-152 0 -288 57.5t-234 155.5t-155.5 236t-57.5 293q0 153 57.5 290t155.5 235t234 155t288 57q204 0 373 -97t266.5 -266t97.5 -374q0 -155 -57.5 -293t-155.5 -236t-234.5 -155.5t-289.5 -57.5zM805 4q183 0 334 89t237 243t86 340q0 184 -86 337t-237.5 241.5
t-333.5 88.5q-181 0 -331.5 -88.5t-237 -241.5t-86.5 -337q0 -139 51 -263.5t138.5 -214t209 -142t256.5 -52.5zM809 293q-154 0 -252 109.5t-98 281.5q0 163 103.5 274t250.5 111q133 0 209 -90l22 88h72v-279h-63q-37 104 -93 156.5t-141 52.5q-108 0 -170.5 -80
t-62.5 -227q0 -155 62.5 -238t178.5 -83q97 0 155.5 62t72.5 171h73q-17 -147 -101.5 -228t-217.5 -81z" />
    <glyph glyph-name="ordfeminine" unicode="&#xaa;" horiz-adv-x="825" 
d="M309 635q-93 0 -145.5 48t-52.5 128q0 77 63 131q37 31 93.5 48.5t158.5 33.5q61 11 76.5 18t15.5 25v59q0 70 -33 98.5t-102 28.5q-75 0 -125 -32q39 -22 39 -70q0 -33 -22 -55.5t-58 -22.5t-59 23t-23 57q0 72 81.5 121t189.5 49q115 0 176 -51t61 -152v-342
q0 -59 45 -59q33 0 60 61l51 -26q-27 -59 -62 -87t-86 -28q-48 0 -80.5 28.5t-38.5 86.5h-6q-36 -55 -94 -87t-123 -32zM358 721q60 0 110 42.5t50 98.5v121q-17 -6 -63 -14q-119 -19 -164 -47t-45 -91q0 -110 112 -110z" />
    <glyph glyph-name="guillemotleft" unicode="&#xab;" horiz-adv-x="1007" 
d="M254 461l256 -355l-59 -40l-308 311q-55 55 -55 82t55 82l308 311l59 -41zM651 461l256 -355l-61 -40l-305 311q-56 56 -56 82t56 82l305 311l61 -41z" />
    <glyph glyph-name="registered" unicode="&#xae;" horiz-adv-x="1058" 
d="M528 508q-192 0 -322 130t-130 325q0 194 129.5 322t322.5 128q194 0 324.5 -128t130.5 -322q0 -195 -130.5 -325t-324.5 -130zM528 565q176 0 281.5 110t105.5 288q0 176 -105.5 284.5t-281.5 108.5q-173 0 -279 -109t-106 -284q0 -177 106 -287.5t279 -110.5zM467 940
v-158h74v-47h-230v47h74v371h-74v49h238q97 0 139.5 -35.5t42.5 -87.5q0 -41 -33 -72.5t-100 -39.5v-6q55 -9 80.5 -34.5t30.5 -66.5l4 -47q3 -35 20 -35q20 0 33 37l33 -12q-24 -78 -86 -78q-81 0 -86 96l-2 45q-2 38 -20 56t-62 18h-76zM467 985h74q98 0 98 88
q0 80 -92 80h-80v-168z" />
    <glyph glyph-name="macron" unicode="&#xaf;" horiz-adv-x="657" 
d="M72 1118v127h514v-127h-514z" />
    <glyph glyph-name="degree" unicode="&#xb0;" horiz-adv-x="800" 
d="M399 715q-148 0 -234.5 91.5t-86.5 229.5t90.5 234t232.5 96q148 0 235 -92.5t87 -231.5q0 -137 -90.5 -232t-233.5 -95zM406 809q86 0 138 59.5t52 171.5q0 109 -56.5 170.5t-144.5 61.5q-82 0 -135 -61.5t-53 -170.5t55.5 -170t143.5 -61z" />
    <glyph glyph-name="plusminus" unicode="&#xb1;" horiz-adv-x="1103" 
d="M504 326v338h-328v90h328v333h100v-333h326v-90h-326v-338h-100zM932 59h-760v95h760v-95z" />
    <glyph glyph-name="acute" unicode="&#xb4;" horiz-adv-x="485" 
d="M113 1079l102 258q30 78 57.5 111t65.5 33q30 0 52 -21.5t22 -54.5q0 -28 -19 -59.5t-69 -96.5l-134 -170h-77z" />
    <glyph glyph-name="paragraph" unicode="&#xb6;" horiz-adv-x="1312" 
d="M664 -213v561q-250 1 -396.5 124.5t-146.5 330.5q0 74 19.5 138t63 119.5t108 95.5t159.5 62.5t213 22.5h555v-104h-188v-1350h-115v1350h-160v-1350h-112z" />
    <glyph glyph-name="periodcentered" unicode="&#xb7;" horiz-adv-x="438" 
d="M219 541q-49 0 -83 33.5t-34 80.5q0 49 34 83t83 34t83 -34t34 -83q0 -47 -34 -80.5t-83 -33.5z" />
    <glyph glyph-name="cedilla" unicode="&#xb8;" horiz-adv-x="577" 
d="M231 -485q-115 0 -206 61l38 66q79 -48 152 -48q54 0 85.5 24t31.5 65q0 44 -41 69t-103 25q-39 0 -77 -10l-29 38l197 205h100l-148 -147l2 -6q98 -3 157 -48t59 -114q0 -82 -60.5 -131t-157.5 -49z" />
    <glyph glyph-name="ordmasculine" unicode="&#xba;" horiz-adv-x="851" 
d="M426 633q-145 0 -238.5 93.5t-93.5 246.5t96.5 251.5t235.5 98.5q146 0 239 -94t93 -246q0 -154 -95.5 -252t-236.5 -98zM432 707q86 0 139.5 70.5t53.5 203.5q0 131 -58 199.5t-147 68.5q-86 0 -139.5 -70t-53.5 -204q0 -131 58 -199.5t147 -68.5z" />
    <glyph glyph-name="guillemotright" unicode="&#xbb;" horiz-adv-x="1007" 
d="M754 457l-256 354l59 41l307 -311q56 -56 56 -82t-56 -82l-307 -311l-59 40zM356 457l-256 354l62 41l305 -311q55 -55 55 -82t-55 -82l-305 -311l-62 40z" />
    <glyph glyph-name="questiondown" unicode="&#xbf;" horiz-adv-x="864" 
d="M510 965q-2 -107 -32 -194t-97 -169l-40 -48.5l-38 -46t-29.5 -39.5t-26.5 -43l-17 -40.5t-13.5 -48t-3.5 -51.5q0 -97 62 -161.5t163 -64.5q80 0 141 34.5t85 88.5q-40 11 -66.5 44t-26.5 75q0 51 32.5 87t86.5 36q55 0 92 -40t37 -99q0 -124 -112 -220t-271 -96
q-189 0 -294 95.5t-105 234.5q0 101 51 181.5t176 185.5q74 64 109.5 134t46.5 165h90zM459 1389q49 0 82.5 -33.5t33.5 -81.5q0 -50 -33.5 -83.5t-82.5 -33.5t-83 33.5t-34 83.5q0 48 34 81.5t83 33.5z" />
    <glyph glyph-name="Agrave" unicode="&#xc0;" horiz-adv-x="1376" 
d="M1030 106l-133 375h-496l-141 -375h180v-106h-448v106h143l488 1240h143l455 -1240h172v-106h-574v106h211zM655 1145l-217 -567h424l-200 567h-7zM764 1509h-78l-133 170q-50 65 -69 96.5t-19 59.5q0 33 22 54.5t52 21.5q37 0 65 -33.5t58 -110.5z" />
    <glyph glyph-name="Aacute" unicode="&#xc1;" horiz-adv-x="1376" 
d="M1030 106l-133 375h-496l-141 -375h180v-106h-448v106h143l488 1240h143l455 -1240h172v-106h-574v106h211zM655 1145l-217 -567h424l-200 567h-7zM645 1509l103 258q30 78 57 111t65 33q30 0 52 -21.5t22 -54.5q0 -28 -19 -59.5t-69 -96.5l-133 -170h-78z" />
    <glyph glyph-name="Acircumflex" unicode="&#xc2;" horiz-adv-x="1376" 
d="M1030 106l-133 375h-496l-141 -375h180v-106h-448v106h143l488 1240h143l455 -1240h172v-106h-574v106h211zM655 1145l-217 -567h424l-200 567h-7zM436 1511l221 371h76l223 -371h-79l-181 209l-180 -209h-80z" />
    <glyph glyph-name="Atilde" unicode="&#xc3;" horiz-adv-x="1376" 
d="M1030 106l-133 375h-496l-141 -375h180v-106h-448v106h143l488 1240h143l455 -1240h172v-106h-574v106h211zM655 1145l-217 -567h424l-200 567h-7zM397 1522q18 137 61 193.5t122 56.5q36 0 75.5 -18.5t68 -40t60.5 -40t54 -18.5q35 0 54 32t30 97h75q-19 -138 -61 -195
t-121 -57q-36 0 -75.5 18.5t-68 41t-60.5 41t-54 18.5q-35 0 -54 -32t-30 -97h-76z" />
    <glyph glyph-name="Adieresis" unicode="&#xc4;" horiz-adv-x="1376" 
d="M1030 106l-133 375h-496l-141 -375h180v-106h-448v106h143l488 1240h143l455 -1240h172v-106h-574v106h211zM655 1145l-217 -567h424l-200 567h-7zM518 1556q-44 0 -74 32.5t-30 78.5t30 79.5t74 33.5t75.5 -33.5t31.5 -79.5t-31.5 -78.5t-75.5 -32.5zM874 1556
q-44 0 -75 32.5t-31 78.5t31 79.5t75 33.5t74.5 -33.5t30.5 -79.5t-30.5 -78.5t-74.5 -32.5z" />
    <glyph glyph-name="Aring" unicode="&#xc5;" horiz-adv-x="1376" 
d="M690 1391q55 0 88 40t33 99q0 64 -32.5 102.5t-88.5 38.5t-88.5 -38.5t-32.5 -102.5q0 -59 33 -99t88 -40zM862 578l-200 567h-7l-217 -567h424zM403 481l-143 -375h180v-106h-448v106h143l481 1229q-66 20 -102.5 73.5t-36.5 121.5q0 87 56 147t157 60t157 -60t56 -147
q0 -67 -34.5 -120.5t-100.5 -72.5l453 -1231h172v-106h-574v106h211l-133 375h-494z" />
    <glyph glyph-name="AE" unicode="&#xc6;" horiz-adv-x="1961" 
d="M907 598v633h-14l-365 -633h379zM471 502l-225 -396h188v-106h-483v106h164l651 1125h-211v104h1270v-417h-82l-25 115t-22.5 81.5t-25 59t-31 33.5t-41.5 20t-56 4h-461v-498h203q33 0 52.5 2t37.5 10.5t27.5 20.5t19 37.5t15.5 55t14 79.5h84v-510h-84q-7 52 -13 83.5
t-15.5 57.5t-19 38.5t-28 21t-38 10.5t-52.5 2h-203v-535h457q29 0 49.5 2.5t39.5 11t31.5 18.5t25 32.5t20.5 44.5t18.5 62.5t18.5 79.5l20 102h82v-459h-1161v106h225v396h-436z" />
    <glyph glyph-name="Ccedilla" unicode="&#xc7;" horiz-adv-x="1382" 
d="M698 -485q-115 0 -206 61l38 66q79 -48 152 -48q54 0 85.5 24t31.5 65q0 44 -41 69t-103 25q-39 0 -77 -10l-29 38l156 162q-180 3 -319 93.5t-214.5 249.5t-75.5 360q0 193 83 353.5t226 252.5t314 92q242 0 383 -162l39 156h106v-506h-94q-65 195 -170.5 297
t-261.5 102q-193 0 -310.5 -150t-117.5 -423q0 -284 122 -441t328 -157q175 0 287 120t141 318h115q-26 -236 -151.5 -378.5t-325.5 -170.5l-111 -110l2 -6q98 -3 156.5 -48t58.5 -114q0 -82 -60.5 -131t-156.5 -49z" />
    <glyph glyph-name="Egrave" unicode="&#xc8;" horiz-adv-x="1345" 
d="M66 0v106h227v1125h-227v104h1142v-417h-80l-25.5 115t-22.5 82t-25 59t-31.5 33.5t-41.5 19.5t-56 4h-461v-498h203q33 0 53 2t38 11t27.5 20t19.5 37.5t15.5 55t14.5 79.5h84v-510h-84q-11 77 -20 115.5t-28.5 62.5t-44.5 29.5t-75 5.5h-203v-535h457q29 0 50 2.5
t40 11t32 18t25.5 32.5t20.5 44.5t18.5 63t18.5 79.5t20 102h80v-459h-1161zM799 1509h-78l-133 170q-50 65 -69 96.5t-19 59.5q0 33 21.5 54.5t51.5 21.5q37 0 65 -33.5t58 -110.5z" />
    <glyph glyph-name="Eacute" unicode="&#xc9;" horiz-adv-x="1345" 
d="M678 1509l102 258q30 78 57.5 111t65.5 33q30 0 52 -21.5t22 -54.5q0 -28 -19 -59.5t-69 -96.5l-133 -170h-78zM66 0v106h227v1125h-227v104h1142v-417h-80l-25.5 115t-22.5 82t-25 59t-31.5 33.5t-41.5 19.5t-56 4h-461v-498h203q33 0 53 2t38 11t27.5 20t19.5 37.5
t15.5 55t14.5 79.5h84v-510h-84q-11 77 -20 115.5t-28.5 62.5t-44.5 29.5t-75 5.5h-203v-535h457q29 0 50 2.5t40 11t32 18t25.5 32.5t20.5 44.5t18.5 63t18.5 79.5t20 102h80v-459h-1161z" />
    <glyph glyph-name="Ecircumflex" unicode="&#xca;" horiz-adv-x="1345" 
d="M469 1511l221 371h76l223 -371h-80l-180 209l-180 -209h-80zM66 0v106h227v1125h-227v104h1142v-417h-80l-25.5 115t-22.5 82t-25 59t-31.5 33.5t-41.5 19.5t-56 4h-461v-498h203q33 0 53 2t38 11t27.5 20t19.5 37.5t15.5 55t14.5 79.5h84v-510h-84q-11 77 -20 115.5
t-28.5 62.5t-44.5 29.5t-75 5.5h-203v-535h457q29 0 50 2.5t40 11t32 18t25.5 32.5t20.5 44.5t18.5 63t18.5 79.5t20 102h80v-459h-1161z" />
    <glyph glyph-name="Edieresis" unicode="&#xcb;" horiz-adv-x="1345" 
d="M907 1556q-44 0 -75 32.5t-31 78.5t31 79.5t75 33.5t74.5 -33.5t30.5 -79.5t-30.5 -78.5t-74.5 -32.5zM551 1556q-44 0 -74.5 32.5t-30.5 78.5t30.5 79.5t74.5 33.5t75 -33.5t31 -79.5t-31 -78.5t-75 -32.5zM66 0v106h227v1125h-227v104h1142v-417h-80l-25.5 115
t-22.5 82t-25 59t-31.5 33.5t-41.5 19.5t-56 4h-461v-498h203q33 0 53 2t38 11t27.5 20t19.5 37.5t15.5 55t14.5 79.5h84v-510h-84q-11 77 -20 115.5t-28.5 62.5t-44.5 29.5t-75 5.5h-203v-535h457q29 0 50 2.5t40 11t32 18t25.5 32.5t20.5 44.5t18.5 63t18.5 79.5t20 102
h80v-459h-1161z" />
    <glyph glyph-name="Igrave" unicode="&#xcc;" horiz-adv-x="786" 
d="M80 0v106h225v1125h-225v104h627v-104h-228v-1125h228v-106h-627zM459 1509h-78l-133 170q-50 65 -69 96.5t-19 59.5q0 33 21.5 54.5t51.5 21.5q37 0 65 -33.5t58 -110.5z" />
    <glyph glyph-name="Iacute" unicode="&#xcd;" horiz-adv-x="786" 
d="M80 0v106h225v1125h-225v104h627v-104h-228v-1125h228v-106h-627zM340 1509l102 258q30 78 57.5 111t65.5 33q30 0 52 -21.5t22 -54.5q0 -28 -19 -59.5t-69 -96.5l-133 -170h-78z" />
    <glyph glyph-name="Icircumflex" unicode="&#xce;" horiz-adv-x="786" 
d="M80 0v106h225v1125h-225v104h627v-104h-228v-1125h228v-106h-627zM131 1511l221 371h76l223 -371h-80l-180 209l-180 -209h-80z" />
    <glyph glyph-name="Idieresis" unicode="&#xcf;" horiz-adv-x="786" 
d="M80 0v106h225v1125h-225v104h627v-104h-228v-1125h228v-106h-627zM569 1556q-44 0 -75 32.5t-31 78.5t31 79.5t75 33.5t74.5 -33.5t30.5 -79.5t-30.5 -78.5t-74.5 -32.5zM213 1556q-44 0 -74 32.5t-30 78.5t30 79.5t74 33.5t75 -33.5t31 -79.5t-31 -78.5t-75 -32.5z" />
    <glyph glyph-name="Eth" unicode="&#xd0;" horiz-adv-x="1441" 
d="M66 0v106h227v541h-227v105h227v479h-227v104h552q180 0 320 -46.5t230 -132t136 -204t46 -264.5t-43 -268.5t-128 -217.5t-225.5 -148.5t-322.5 -53.5h-565zM465 106h170q269 0 393.5 141t124.5 441q0 270 -128.5 406.5t-403.5 136.5h-156v-479h293v-105h-293v-541z" />
    <glyph glyph-name="Ntilde" unicode="&#xd1;" horiz-adv-x="1570" 
d="M1206 -33l-794 1151h-11v-1012h205v-106h-536v106h213v1125h-213v104h401l717 -1036h10v932h-207v104h531v-104h-203v-1264h-113zM492 1522q18 137 60.5 193.5t121.5 56.5q36 0 75.5 -18.5t68 -40t60.5 -40t54 -18.5q35 0 54 32t30 97h76q-18 -138 -61 -195t-122 -57
q-36 0 -75.5 18.5t-68 41t-60.5 41t-54 18.5q-35 0 -54 -32t-30 -97h-75z" />
    <glyph glyph-name="Ograve" unicode="&#xd2;" 
d="M729 -33q-131 0 -248 52t-201.5 143.5t-134 222.5t-49.5 283q0 147 51 277.5t136.5 222.5t202 145t243.5 53q132 0 248 -51.5t200.5 -142t133.5 -221.5t49 -283q0 -148 -50.5 -279t-136 -223t-201.5 -145.5t-243 -53.5zM729 76q203 0 319.5 158.5t116.5 433.5
q0 271 -116.5 430t-319.5 159q-204 0 -320 -158.5t-116 -430.5t116 -432t320 -160zM795 1509h-78l-133 170q-50 65 -69 96.5t-19 59.5q0 33 21.5 54.5t51.5 21.5q37 0 65 -33.5t58 -110.5z" />
    <glyph glyph-name="Oacute" unicode="&#xd3;" 
d="M676 1509l102 258q30 78 57.5 111t65.5 33q30 0 52 -21.5t22 -54.5q0 -28 -19 -59.5t-69 -96.5l-133 -170h-78zM729 -33q-131 0 -248 52t-201.5 143.5t-134 222.5t-49.5 283q0 147 51 277.5t136.5 222.5t202 145t243.5 53q132 0 248 -51.5t200.5 -142t133.5 -221.5
t49 -283q0 -148 -50.5 -279t-136 -223t-201.5 -145.5t-243 -53.5zM729 76q203 0 319.5 158.5t116.5 433.5q0 271 -116.5 430t-319.5 159q-204 0 -320 -158.5t-116 -430.5t116 -432t320 -160z" />
    <glyph glyph-name="Ocircumflex" unicode="&#xd4;" 
d="M467 1511l221 371h76l223 -371h-80l-180 209l-180 -209h-80zM729 -33q-131 0 -248 52t-201.5 143.5t-134 222.5t-49.5 283q0 147 51 277.5t136.5 222.5t202 145t243.5 53q132 0 248 -51.5t200.5 -142t133.5 -221.5t49 -283q0 -148 -50.5 -279t-136 -223t-201.5 -145.5
t-243 -53.5zM729 76q203 0 319.5 158.5t116.5 433.5q0 271 -116.5 430t-319.5 159q-204 0 -320 -158.5t-116 -430.5t116 -432t320 -160z" />
    <glyph glyph-name="Otilde" unicode="&#xd5;" 
d="M729 -33q-131 0 -248 52t-201.5 143.5t-134 222.5t-49.5 283q0 147 51 277.5t136.5 222.5t202 145t243.5 53q132 0 248 -51.5t200.5 -142t133.5 -221.5t49 -283q0 -148 -50.5 -279t-136 -223t-201.5 -145.5t-243 -53.5zM729 76q203 0 319.5 158.5t116.5 433.5
q0 271 -116.5 430t-319.5 159q-204 0 -320 -158.5t-116 -430.5t116 -432t320 -160zM428 1522q18 137 60.5 193.5t121.5 56.5q36 0 75.5 -18.5t68 -40t60.5 -40t54 -18.5q35 0 54 32t30 97h76q-19 -138 -61 -195t-121 -57q-36 0 -75.5 18.5t-68 41t-60.5 41t-54 18.5
q-35 0 -54 -32t-30 -97h-76z" />
    <glyph glyph-name="Odieresis" unicode="&#xd6;" 
d="M905 1556q-44 0 -75 32.5t-31 78.5t31 79.5t75 33.5t74.5 -33.5t30.5 -79.5t-30.5 -78.5t-74.5 -32.5zM549 1556q-44 0 -74.5 32.5t-30.5 78.5t30.5 79.5t74.5 33.5t75 -33.5t31 -79.5t-31 -78.5t-75 -32.5zM729 -33q-131 0 -248 52t-201.5 143.5t-134 222.5t-49.5 283
q0 147 51 277.5t136.5 222.5t202 145t243.5 53q132 0 248 -51.5t200.5 -142t133.5 -221.5t49 -283q0 -148 -50.5 -279t-136 -223t-201.5 -145.5t-243 -53.5zM729 76q203 0 319.5 158.5t116.5 433.5q0 271 -116.5 430t-319.5 159q-204 0 -320 -158.5t-116 -430.5t116 -432
t320 -160z" />
    <glyph glyph-name="multiply" unicode="&#xd7;" horiz-adv-x="1048" 
d="M596 569l295 -303l-74 -73l-293 303l-291 -301l-73 73l293 301l-295 303l73 74l293 -303l291 301l74 -76z" />
    <glyph glyph-name="Oslash" unicode="&#xd8;" 
d="M242 -70h-129l172 228q-90 94 -139.5 225t-49.5 285q0 147 51 277.5t136.5 222.5t202 145t243.5 53q209 0 371 -125l114 162h132l-172 -227q88 -94 137 -224t49 -284q0 -148 -50.5 -279t-136 -223t-201.5 -145.5t-243 -53.5q-211 0 -373 125zM729 76q203 0 319.5 158.5
t116.5 433.5q0 234 -90 389l-633 -862q113 -119 287 -119zM293 668q0 -241 90 -394l631 865q-112 118 -285 118q-204 0 -320 -158.5t-116 -430.5z" />
    <glyph glyph-name="Ugrave" unicode="&#xd9;" horiz-adv-x="1503" 
d="M748 -33q-247 0 -376.5 118.5t-129.5 317.5v828h-197v104h576v-104h-207v-782q0 -189 96.5 -275t288.5 -86q164 0 260 96q52 52 73 124.5t21 189.5v733h-207v104h514v-104h-188v-809q0 -96 -33.5 -178t-97.5 -144t-165 -97.5t-228 -35.5zM846 1509h-78l-133 170
q-50 65 -69 96.5t-19 59.5q0 33 22 54.5t52 21.5q37 0 64.5 -33.5t57.5 -110.5z" />
    <glyph glyph-name="Uacute" unicode="&#xda;" horiz-adv-x="1503" 
d="M727 1509l102 258q30 78 57.5 111t65.5 33q30 0 52 -21.5t22 -54.5q0 -28 -19 -59.5t-69 -96.5l-133 -170h-78zM748 -33q-247 0 -376.5 118.5t-129.5 317.5v828h-197v104h576v-104h-207v-782q0 -189 96.5 -275t288.5 -86q164 0 260 96q52 52 73 124.5t21 189.5v733h-207
v104h514v-104h-188v-809q0 -96 -33.5 -178t-97.5 -144t-165 -97.5t-228 -35.5z" />
    <glyph glyph-name="Ucircumflex" unicode="&#xdb;" horiz-adv-x="1503" 
d="M518 1511l221 371h76l223 -371h-80l-180 209l-180 -209h-80zM748 -33q-247 0 -376.5 118.5t-129.5 317.5v828h-197v104h576v-104h-207v-782q0 -189 96.5 -275t288.5 -86q164 0 260 96q52 52 73 124.5t21 189.5v733h-207v104h514v-104h-188v-809q0 -96 -33.5 -178
t-97.5 -144t-165 -97.5t-228 -35.5z" />
    <glyph glyph-name="Udieresis" unicode="&#xdc;" horiz-adv-x="1503" 
d="M956 1556q-44 0 -75 32.5t-31 78.5t31 79.5t75 33.5t74.5 -33.5t30.5 -79.5t-30.5 -78.5t-74.5 -32.5zM600 1556q-44 0 -74 32.5t-30 78.5t30 79.5t74 33.5t75.5 -33.5t31.5 -79.5t-31.5 -78.5t-75.5 -32.5zM748 -33q-247 0 -376.5 118.5t-129.5 317.5v828h-197v104h576
v-104h-207v-782q0 -189 96.5 -275t288.5 -86q164 0 260 96q52 52 73 124.5t21 189.5v733h-207v104h514v-104h-188v-809q0 -96 -33.5 -178t-97.5 -144t-165 -97.5t-228 -35.5z" />
    <glyph glyph-name="Yacute" unicode="&#xdd;" horiz-adv-x="1304" 
d="M692 672l330 559h-172v104h453v-104h-158l-408 -668v-457h207v-106h-586v106h205v455l-383 670h-168v104h557v-104h-184zM637 1509l102 258q30 78 57.5 111t65.5 33q30 0 52 -21.5t22 -54.5q0 -28 -19 -59.5t-69 -96.5l-133 -170h-78z" />
    <glyph glyph-name="Thorn" unicode="&#xde;" horiz-adv-x="1255" 
d="M66 0v106h227v1125h-227v104h620v-104h-221v-154h182q119 0 212 -19.5t153 -53t99 -81t55 -100t16 -114.5q0 -79 -30.5 -147.5t-91.5 -124t-165 -87t-240 -31.5h-190v-213h221v-106h-620zM465 422h186q180 0 259 76t79 215q0 262 -336 262h-188v-553z" />
    <glyph glyph-name="germandbls" unicode="&#xdf;" horiz-adv-x="1120" 
d="M774 -18q-111 0 -193.5 52.5t-82.5 141.5q0 50 29 81.5t75 31.5q44 0 71 -28.5t27 -67.5q0 -57 -45 -89q45 -36 127 -36q80 0 126 46t46 109q0 105 -178 213q-131 78 -179 131t-48 135q0 49 28.5 92t94.5 109q72 70 97.5 118.5t25.5 111.5q0 86 -53 140t-140 54
q-111 0 -165 -75t-54 -238v-1014h-311v106h151v709h-186v100h186v52q0 123 32.5 213.5t88.5 141t122.5 74t143.5 23.5q141 0 240.5 -84.5t99.5 -204.5q0 -78 -40 -136.5t-128 -123.5q-63 -46 -83.5 -74.5t-20.5 -58.5q0 -36 31.5 -63.5t150.5 -100.5q115 -69 169 -133
t54 -164q0 -118 -83.5 -206t-225.5 -88z" />
    <glyph glyph-name="agrave" unicode="&#xe0;" horiz-adv-x="989" 
d="M358 -14q-124 0 -194 65t-70 174q0 97 64 164q51 51 128 77.5t222 49.5q98 16 121.5 25t23.5 34v91q0 98 -47.5 141t-142.5 43q-111 0 -176 -53q55 -28 55 -95q0 -45 -29 -74.5t-77 -29.5q-49 0 -79 31.5t-30 79.5q0 97 108 162t254 65q324 0 324 -277v-481
q0 -46 14.5 -64t46.5 -18q25 0 44.5 20t37.5 62l62 -35q-36 -80 -80 -116.5t-111 -36.5q-68 0 -111 42t-44 128h-6q-46 -78 -130.5 -126t-177.5 -48zM428 94q84 0 154.5 59.5t70.5 137.5v182q-22 -7 -100 -20q-161 -25 -223 -67t-62 -132q0 -77 40.5 -118.5t119.5 -41.5z
M567 1079h-78l-133 170q-50 65 -69 96.5t-19 59.5q0 33 22 54.5t52 21.5q37 0 65 -33.5t58 -110.5z" />
    <glyph glyph-name="aacute" unicode="&#xe1;" horiz-adv-x="989" 
d="M358 -14q-124 0 -194 65t-70 174q0 97 64 164q51 51 128 77.5t222 49.5q98 16 121.5 25t23.5 34v91q0 98 -47.5 141t-142.5 43q-111 0 -176 -53q55 -28 55 -95q0 -45 -29 -74.5t-77 -29.5q-49 0 -79 31.5t-30 79.5q0 97 108 162t254 65q324 0 324 -277v-481
q0 -46 14.5 -64t46.5 -18q25 0 44.5 20t37.5 62l62 -35q-36 -80 -80 -116.5t-111 -36.5q-68 0 -111 42t-44 128h-6q-46 -78 -130.5 -126t-177.5 -48zM428 94q84 0 154.5 59.5t70.5 137.5v182q-22 -7 -100 -20q-161 -25 -223 -67t-62 -132q0 -77 40.5 -118.5t119.5 -41.5z
M449 1079l102 258q30 78 57.5 111t65.5 33q30 0 52 -21.5t22 -54.5q0 -28 -19 -59t-70 -97l-133 -170h-77z" />
    <glyph glyph-name="acircumflex" unicode="&#xe2;" horiz-adv-x="989" 
d="M358 -14q-124 0 -194 65t-70 174q0 97 64 164q51 51 128 77.5t222 49.5q98 16 121.5 25t23.5 34v91q0 98 -47.5 141t-142.5 43q-111 0 -176 -53q55 -28 55 -95q0 -45 -29 -74.5t-77 -29.5q-49 0 -79 31.5t-30 79.5q0 97 108 162t254 65q324 0 324 -277v-481
q0 -46 14.5 -64t46.5 -18q25 0 44.5 20t37.5 62l62 -35q-36 -80 -80 -116.5t-111 -36.5q-68 0 -111 42t-44 128h-6q-46 -78 -130.5 -126t-177.5 -48zM428 94q84 0 154.5 59.5t70.5 137.5v182q-22 -7 -100 -20q-161 -25 -223 -67t-62 -132q0 -77 40.5 -118.5t119.5 -41.5z
M240 1081l221 371h76l223 -371h-80l-180 209l-181 -209h-79z" />
    <glyph glyph-name="atilde" unicode="&#xe3;" horiz-adv-x="989" 
d="M358 -14q-124 0 -194 65t-70 174q0 97 64 164q51 51 128 77.5t222 49.5q98 16 121.5 25t23.5 34v91q0 98 -47.5 141t-142.5 43q-111 0 -176 -53q55 -28 55 -95q0 -45 -29 -74.5t-77 -29.5q-49 0 -79 31.5t-30 79.5q0 97 108 162t254 65q324 0 324 -277v-481
q0 -46 14.5 -64t46.5 -18q25 0 44.5 20t37.5 62l62 -35q-36 -80 -80 -116.5t-111 -36.5q-68 0 -111 42t-44 128h-6q-46 -78 -130.5 -126t-177.5 -48zM428 94q84 0 154.5 59.5t70.5 137.5v182q-22 -7 -100 -20q-161 -25 -223 -67t-62 -132q0 -77 40.5 -118.5t119.5 -41.5z
M201 1092q18 137 60.5 193t121.5 56q45 0 95 -29t93 -58t70 -29q35 0 54 32t30 97h76q-18 -138 -61 -195t-122 -57q-36 0 -75.5 18.5t-68 41t-60.5 41t-54 18.5q-35 0 -54 -32t-30 -97h-75z" />
    <glyph glyph-name="adieresis" unicode="&#xe4;" horiz-adv-x="989" 
d="M358 -14q-124 0 -194 65t-70 174q0 97 64 164q51 51 128 77.5t222 49.5q98 16 121.5 25t23.5 34v91q0 98 -47.5 141t-142.5 43q-111 0 -176 -53q55 -28 55 -95q0 -45 -29 -74.5t-77 -29.5q-49 0 -79 31.5t-30 79.5q0 97 108 162t254 65q324 0 324 -277v-481
q0 -46 14.5 -64t46.5 -18q25 0 44.5 20t37.5 62l62 -35q-36 -80 -80 -116.5t-111 -36.5q-68 0 -111 42t-44 128h-6q-46 -78 -130.5 -126t-177.5 -48zM428 94q84 0 154.5 59.5t70.5 137.5v182q-22 -7 -100 -20q-161 -25 -223 -67t-62 -132q0 -77 40.5 -118.5t119.5 -41.5z
M678 1126q-44 0 -75.5 32.5t-31.5 78.5t31.5 79.5t75.5 33.5t74 -33.5t30 -79.5t-30 -78.5t-74 -32.5zM322 1126q-44 0 -74.5 32.5t-30.5 78.5t30.5 79.5t74.5 33.5t75 -33.5t31 -79.5t-31 -78.5t-75 -32.5z" />
    <glyph glyph-name="aring" unicode="&#xe5;" horiz-adv-x="989" 
d="M358 -14q-124 0 -194 65t-70 174q0 97 64 164q51 51 128 77.5t222 49.5q98 16 121.5 25t23.5 34v91q0 98 -47.5 141t-142.5 43q-111 0 -176 -53q55 -28 55 -95q0 -45 -29 -74.5t-77 -29.5q-49 0 -79 31.5t-30 79.5q0 97 108 162t254 65q324 0 324 -277v-481
q0 -46 14.5 -64t46.5 -18q25 0 44.5 20t37.5 62l62 -35q-36 -80 -80 -116.5t-111 -36.5q-68 0 -111 42t-44 128h-6q-46 -78 -130.5 -126t-177.5 -48zM428 94q84 0 154.5 59.5t70.5 137.5v182q-22 -7 -100 -20q-161 -25 -223 -67t-62 -132q0 -77 40.5 -118.5t119.5 -41.5z
M500 1067q-101 0 -158 61t-57 146q0 87 57 147t158 60t158 -60t57 -147q0 -85 -57 -146t-158 -61zM500 1135q56 0 87 38.5t31 100.5t-31.5 101.5t-86.5 39.5q-56 0 -87.5 -39.5t-31.5 -101.5t31.5 -100.5t87.5 -38.5z" />
    <glyph glyph-name="ae" unicode="&#xe6;" horiz-adv-x="1523" 
d="M1450 453h-637q1 -176 77.5 -269.5t207.5 -93.5q91 0 156 41t104 139h86q-41 -141 -139 -214.5t-242 -73.5q-126 0 -219 59t-139 158q-57 -105 -152.5 -159t-194.5 -54q-124 0 -194 65t-70 174q0 97 64 164q51 51 128 77.5t222 49.5q98 16 121.5 25t23.5 34v91
q0 98 -47.5 141t-142.5 43q-111 0 -176 -53q55 -28 55 -95q0 -45 -29 -74.5t-77 -29.5q-49 0 -79 31.5t-30 79.5q0 97 108 162t254 65q219 0 283 -135q115 137 297 137q96 0 172 -41t121 -110.5t67.5 -154.5t20.5 -179zM1061 850q-102 0 -167.5 -79t-78.5 -230h469
q-11 148 -66.5 228.5t-156.5 80.5zM428 94q84 0 154.5 59.5t70.5 137.5v182q-22 -7 -100 -20q-161 -25 -223 -67t-62 -132q0 -77 40.5 -118.5t119.5 -41.5z" />
    <glyph glyph-name="ccedilla" unicode="&#xe7;" horiz-adv-x="966" 
d="M485 -485q-115 0 -206 61l38 66q79 -48 152 -48q54 0 85.5 24t31.5 65q0 44 -41 69t-103 25q-39 0 -77 -10l-29 38l168 177q-189 1 -306.5 130t-117.5 330q0 219 129.5 357.5t335.5 138.5q144 0 246 -82.5t102 -177.5q0 -61 -32.5 -101t-86.5 -40q-51 0 -80.5 32
t-29.5 78q0 37 21.5 68t55.5 43q-63 94 -202 94q-128 0 -207.5 -105.5t-79.5 -283.5q0 -175 78.5 -275t216.5 -100q191 0 270 211h88q-32 -124 -107 -202t-182 -103l-131 -131l2 -6q98 -3 156.5 -48t58.5 -114q0 -82 -60.5 -131t-156.5 -49z" />
    <glyph glyph-name="egrave" unicode="&#xe8;" horiz-adv-x="974" 
d="M899 453h-647q3 -176 82 -269.5t213 -93.5q190 0 262 180h86q-41 -141 -140 -214.5t-243 -73.5q-198 0 -315 130t-117 339t126 348t312 139q78 0 143 -27t109 -73.5t74.5 -108.5t43.5 -132t11 -144zM508 850q-104 0 -171.5 -79.5t-82.5 -229.5h481q-11 149 -67.5 229
t-159.5 80zM584 1079h-78l-133 170q-50 65 -69 96.5t-19 59.5q0 33 21.5 54.5t51.5 21.5q37 0 65 -33.5t58 -110.5z" />
    <glyph glyph-name="eacute" unicode="&#xe9;" horiz-adv-x="974" 
d="M899 453h-647q3 -176 82 -269.5t213 -93.5q190 0 262 180h86q-41 -141 -140 -214.5t-243 -73.5q-198 0 -315 130t-117 339t126 348t312 139q78 0 143 -27t109 -73.5t74.5 -108.5t43.5 -132t11 -144zM508 850q-104 0 -171.5 -79.5t-82.5 -229.5h481q-11 149 -67.5 229
t-159.5 80zM465 1079l102 258q30 78 57.5 111t65.5 33q30 0 52 -21.5t22 -54.5q0 -28 -19 -59.5t-69 -96.5l-133 -170h-78z" />
    <glyph glyph-name="ecircumflex" unicode="&#xea;" horiz-adv-x="974" 
d="M899 453h-647q3 -176 82 -269.5t213 -93.5q190 0 262 180h86q-41 -141 -140 -214.5t-243 -73.5q-198 0 -315 130t-117 339t126 348t312 139q78 0 143 -27t109 -73.5t74.5 -108.5t43.5 -132t11 -144zM508 850q-104 0 -171.5 -79.5t-82.5 -229.5h481q-11 149 -67.5 229
t-159.5 80zM256 1081l221 371h76l223 -371h-80l-180 209l-180 -209h-80z" />
    <glyph glyph-name="edieresis" unicode="&#xeb;" horiz-adv-x="974" 
d="M899 453h-647q3 -176 82 -269.5t213 -93.5q190 0 262 180h86q-41 -141 -140 -214.5t-243 -73.5q-198 0 -315 130t-117 339t126 348t312 139q78 0 143 -27t109 -73.5t74.5 -108.5t43.5 -132t11 -144zM508 850q-104 0 -171.5 -79.5t-82.5 -229.5h481q-11 149 -67.5 229
t-159.5 80zM338 1126q-44 0 -74.5 32.5t-30.5 78.5t30.5 79.5t74.5 33.5t75 -33.5t31 -79.5t-31 -78.5t-75 -32.5zM694 1126q-44 0 -75 32.5t-31 78.5t31 79.5t75 33.5t74.5 -33.5t30.5 -79.5t-30.5 -78.5t-74.5 -32.5z" />
    <glyph glyph-name="igrave" unicode="&#xec;" horiz-adv-x="614" 
d="M74 0v106h174v709h-174v107h332v-816h174v-106h-506zM369 1079h-78l-133 170q-50 65 -69 96.5t-19 59.5q0 33 21.5 54.5t51.5 21.5q37 0 65 -33.5t58 -110.5z" />
    <glyph glyph-name="iacute" unicode="&#xed;" horiz-adv-x="614" 
d="M248 1079l102 258q30 78 57.5 111t65.5 33q30 0 52 -21.5t22 -54.5q0 -28 -19 -59.5t-69 -96.5l-133 -170h-78zM74 0v106h174v709h-174v107h332v-816h174v-106h-506z" />
    <glyph glyph-name="icircumflex" unicode="&#xee;" horiz-adv-x="614" 
d="M41 1081l221 371h76l223 -371h-80l-180 209l-180 -209h-80zM74 0v106h174v709h-174v107h332v-816h174v-106h-506z" />
    <glyph glyph-name="idieresis" unicode="&#xef;" horiz-adv-x="614" 
d="M479 1126q-44 0 -75 32.5t-31 78.5t31 79.5t75 33.5t74.5 -33.5t30.5 -79.5t-30.5 -78.5t-74.5 -32.5zM123 1126q-44 0 -74.5 32.5t-30.5 78.5t30.5 79.5t74.5 33.5t75 -33.5t31 -79.5t-31 -78.5t-75 -32.5zM74 0v106h174v709h-174v107h332v-816h174v-106h-506z" />
    <glyph glyph-name="eth" unicode="&#xf0;" horiz-adv-x="1060" 
d="M913 1274l-188 -84q244 -295 244 -604q0 -278 -124.5 -441t-338.5 -163q-187 0 -306.5 128.5t-119.5 333.5q0 211 122.5 352.5t307.5 141.5q94 0 164.5 -45t107.5 -113q-27 161 -176 359l-227 -101l-37 82l207 90q-67 80 -141 156l133 18q72 -68 123 -122l215 94zM530 72
q118 0 191.5 100t73.5 289q0 192 -78 289.5t-201 97.5q-119 0 -191.5 -98.5t-72.5 -290.5q0 -191 77 -289t201 -98z" />
    <glyph glyph-name="ntilde" unicode="&#xf1;" horiz-adv-x="1163" 
d="M70 0v106h153v709h-153v107h309v-238q146 252 348 252q118 0 184 -75.5t66 -215.5v-539h153v-106h-452v106h141v467q0 138 -53 191q-40 43 -117 43q-101 0 -183.5 -93t-82.5 -206v-402h139v-106h-452zM305 1092q18 137 60.5 193t121.5 56q45 0 95 -29t93 -58t70 -29
q35 0 54 32t30 97h76q-19 -138 -61 -195t-121 -57q-36 0 -75.5 18.5t-68 41t-60.5 41t-54 18.5q-35 0 -54 -32t-30 -97h-76z" />
    <glyph glyph-name="ograve" unicode="&#xf2;" horiz-adv-x="1048" 
d="M524 -18q-197 0 -320.5 130t-123.5 341q0 213 126.5 349t317.5 136q197 0 321 -130t124 -341q0 -213 -127 -349t-318 -136zM532 72q119 0 191 98.5t72 290.5t-78 289.5t-201 97.5q-119 0 -191.5 -98.5t-72.5 -290.5q0 -190 78.5 -288.5t201.5 -98.5zM592 1079h-78
l-133 170q-50 65 -69 96.5t-19 59.5q0 33 22 54.5t52 21.5q37 0 64.5 -33.5t57.5 -110.5z" />
    <glyph glyph-name="oacute" unicode="&#xf3;" horiz-adv-x="1048" 
d="M471 1079l102 258q30 78 57.5 111t65.5 33q30 0 52 -21.5t22 -54.5q0 -28 -19 -59.5t-69 -96.5l-133 -170h-78zM524 -18q-197 0 -320.5 130t-123.5 341q0 213 126.5 349t317.5 136q197 0 321 -130t124 -341q0 -213 -127 -349t-318 -136zM532 72q119 0 191 98.5t72 290.5
t-78 289.5t-201 97.5q-119 0 -191.5 -98.5t-72.5 -290.5q0 -190 78.5 -288.5t201.5 -98.5z" />
    <glyph glyph-name="ocircumflex" unicode="&#xf4;" horiz-adv-x="1048" 
d="M262 1081l221 371h76l223 -371h-80l-180 209l-180 -209h-80zM524 -18q-197 0 -320.5 130t-123.5 341q0 213 126.5 349t317.5 136q197 0 321 -130t124 -341q0 -213 -127 -349t-318 -136zM532 72q119 0 191 98.5t72 290.5t-78 289.5t-201 97.5q-119 0 -191.5 -98.5
t-72.5 -290.5q0 -190 78.5 -288.5t201.5 -98.5z" />
    <glyph glyph-name="otilde" unicode="&#xf5;" horiz-adv-x="1048" 
d="M524 -18q-197 0 -320.5 130t-123.5 341q0 213 126.5 349t317.5 136q197 0 321 -130t124 -341q0 -213 -127 -349t-318 -136zM532 72q119 0 191 98.5t72 290.5t-78 289.5t-201 97.5q-119 0 -191.5 -98.5t-72.5 -290.5q0 -190 78.5 -288.5t201.5 -98.5zM223 1092
q18 137 60.5 193t122.5 56q45 0 95 -29t93 -58t70 -29q35 0 54 32t30 97h75q-19 -138 -61 -195t-121 -57q-36 0 -75.5 18.5t-68 41t-60.5 41t-54 18.5q-35 0 -54 -32t-30 -97h-76z" />
    <glyph glyph-name="odieresis" unicode="&#xf6;" horiz-adv-x="1048" 
d="M700 1126q-44 0 -75 32.5t-31 78.5t31 79.5t75 33.5t74.5 -33.5t30.5 -79.5t-30.5 -78.5t-74.5 -32.5zM344 1126q-44 0 -74 32.5t-30 78.5t30 79.5t74 33.5t75.5 -33.5t31.5 -79.5t-31.5 -78.5t-75.5 -32.5zM524 -18q-197 0 -320.5 130t-123.5 341q0 213 126.5 349
t317.5 136q197 0 321 -130t124 -341q0 -213 -127 -349t-318 -136zM532 72q119 0 191 98.5t72 290.5t-78 289.5t-201 97.5q-119 0 -191.5 -98.5t-72.5 -290.5q0 -190 78.5 -288.5t201.5 -98.5z" />
    <glyph glyph-name="divide" unicode="&#xf7;" horiz-adv-x="1048" 
d="M524 991q46 0 78.5 -32t32.5 -78t-32.5 -78.5t-78.5 -32.5t-78 32.5t-32 78.5t32 78t78 32zM952 518h-854v100h854v-100zM524 369q46 0 78.5 -33.5t32.5 -79.5t-32.5 -78.5t-78.5 -32.5t-78 32.5t-32 78.5t32.5 79.5t77.5 33.5z" />
    <glyph glyph-name="oslash" unicode="&#xf8;" horiz-adv-x="1048" 
d="M182 -55h-106l127 166q-123 129 -123 342t126.5 349t317.5 136q146 0 258 -76l84 113h107l-129 -166q125 -135 125 -342q0 -213 -127 -349t-318 -136q-148 0 -258 75zM252 459q0 -138 43 -232l410 537q-72 84 -189 84q-119 0 -191.5 -98.5t-72.5 -290.5zM532 72
q119 0 191 98.5t72 290.5q0 139 -45 231l-406 -538q73 -82 188 -82z" />
    <glyph glyph-name="ugrave" unicode="&#xf9;" horiz-adv-x="1128" 
d="M434 -16q-116 0 -181 76t-65 216v539h-151v107h309v-574q0 -142 53 -192q36 -41 113 -41q101 0 182.5 93t81.5 204v403h-158v107h318v-816h151v-106h-307v236q-148 -252 -346 -252zM623 1079h-78l-133 170q-50 65 -69 96.5t-19 59.5q0 33 21.5 54.5t51.5 21.5
q37 0 65 -33.5t58 -110.5z" />
    <glyph glyph-name="uacute" unicode="&#xfa;" horiz-adv-x="1128" 
d="M504 1079l102 258q30 78 57.5 111t65.5 33q30 0 52 -21.5t22 -54.5q0 -28 -19 -59.5t-69 -96.5l-133 -170h-78zM434 -16q-116 0 -181 76t-65 216v539h-151v107h309v-574q0 -142 53 -192q36 -41 113 -41q101 0 182.5 93t81.5 204v403h-158v107h318v-816h151v-106h-307v236
q-148 -252 -346 -252z" />
    <glyph glyph-name="ucircumflex" unicode="&#xfb;" horiz-adv-x="1128" 
d="M295 1081l221 371h76l223 -371h-80l-180 209l-180 -209h-80zM434 -16q-116 0 -181 76t-65 216v539h-151v107h309v-574q0 -142 53 -192q36 -41 113 -41q101 0 182.5 93t81.5 204v403h-158v107h318v-816h151v-106h-307v236q-148 -252 -346 -252z" />
    <glyph glyph-name="udieresis" unicode="&#xfc;" horiz-adv-x="1128" 
d="M733 1126q-44 0 -75 32.5t-31 78.5t31 79.5t75 33.5t74.5 -33.5t30.5 -79.5t-30.5 -78.5t-74.5 -32.5zM377 1126q-44 0 -74.5 32.5t-30.5 78.5t30.5 79.5t74.5 33.5t75 -33.5t31 -79.5t-31 -78.5t-75 -32.5zM434 -16q-116 0 -181 76t-65 216v539h-151v107h309v-574
q0 -142 53 -192q36 -41 113 -41q101 0 182.5 93t81.5 204v403h-158v107h318v-816h151v-106h-307v236q-148 -252 -346 -252z" />
    <glyph glyph-name="yacute" unicode="&#xfd;" horiz-adv-x="1001" 
d="M143 -68q46 0 75.5 -30t29.5 -74q0 -40 -19 -70q63 3 115.5 54.5t108.5 189.5l-326 813h-127v107h459v-107h-160l238 -633l245 633h-141v107h369v-107h-113l-317 -778q-83 -207 -172.5 -289t-200.5 -82q-83 0 -130.5 40.5t-47.5 103.5q0 51 32 86.5t82 35.5zM483 1079
l103 258q30 78 57.5 111t65.5 33q30 0 51.5 -21.5t21.5 -54.5q0 -28 -19 -59.5t-69 -96.5l-133 -170h-78z" />
    <glyph glyph-name="thorn" unicode="&#xfe;" horiz-adv-x="1075" 
d="M12 -307v106h154v1497h-154v111h312v-684q53 103 135.5 159t177.5 56q134 0 227 -90q123 -123 123 -377q0 -110 -34.5 -207.5t-100.5 -165.5q-98 -98 -236 -98q-100 0 -174.5 51t-117.5 135v-387h198v-106h-510zM582 98q105 0 169 97t64 276t-63 269.5t-164 90.5
q-113 0 -191 -110t-78 -275q0 -154 77 -251t186 -97z" />
    <glyph glyph-name="ydieresis" unicode="&#xff;" horiz-adv-x="1001" 
d="M143 -68q46 0 75.5 -30t29.5 -74q0 -40 -19 -70q63 3 115.5 54.5t108.5 189.5l-326 813h-127v107h459v-107h-160l238 -633l245 633h-141v107h369v-107h-113l-317 -778q-83 -207 -172.5 -289t-200.5 -82q-83 0 -130.5 40.5t-47.5 103.5q0 51 32 86.5t82 35.5zM356 1126
q-44 0 -74 32.5t-30 78.5t30 79.5t74 33.5t75.5 -33.5t31.5 -79.5t-31.5 -78.5t-75.5 -32.5zM713 1126q-44 0 -75.5 32.5t-31.5 78.5t31.5 79.5t75.5 33.5t74 -33.5t30 -79.5t-30 -78.5t-74 -32.5z" />
    <glyph glyph-name="Amacron" unicode="&#x100;" horiz-adv-x="1376" 
d="M1030 106l-133 375h-496l-141 -375h180v-106h-448v106h143l488 1240h143l455 -1240h172v-106h-574v106h211zM655 1145l-217 -567h424l-200 567h-7zM440 1548v127h514v-127h-514z" />
    <glyph glyph-name="amacron" unicode="&#x101;" horiz-adv-x="989" 
d="M358 -14q-124 0 -194 65t-70 174q0 97 64 164q51 51 128 77.5t222 49.5q98 16 121.5 25t23.5 34v91q0 98 -47.5 141t-142.5 43q-111 0 -176 -53q55 -28 55 -95q0 -45 -29 -74.5t-77 -29.5q-49 0 -79 31.5t-30 79.5q0 97 108 162t254 65q324 0 324 -277v-481
q0 -46 14.5 -64t46.5 -18q25 0 44.5 20t37.5 62l62 -35q-36 -80 -80 -116.5t-111 -36.5q-68 0 -111 42t-44 128h-6q-46 -78 -130.5 -126t-177.5 -48zM428 94q84 0 154.5 59.5t70.5 137.5v182q-22 -7 -100 -20q-161 -25 -223 -67t-62 -132q0 -77 40.5 -118.5t119.5 -41.5z
M244 1118v127h514v-127h-514z" />
    <glyph glyph-name="Abreve" unicode="&#x102;" horiz-adv-x="1376" 
d="M1030 106l-133 375h-496l-141 -375h180v-106h-448v106h143l488 1240h143l455 -1240h172v-106h-574v106h211zM655 1145l-217 -567h424l-200 567h-7zM696 1524q-115 0 -186.5 82t-77.5 225h64q53 -180 200 -180q79 0 127 45.5t74 134.5h64q-4 -143 -76 -225t-189 -82z" />
    <glyph glyph-name="abreve" unicode="&#x103;" horiz-adv-x="989" 
d="M358 -14q-124 0 -194 65t-70 174q0 97 64 164q51 51 128 77.5t222 49.5q98 16 121.5 25t23.5 34v91q0 98 -47.5 141t-142.5 43q-111 0 -176 -53q55 -28 55 -95q0 -45 -29 -74.5t-77 -29.5q-49 0 -79 31.5t-30 79.5q0 97 108 162t254 65q324 0 324 -277v-481
q0 -46 14.5 -64t46.5 -18q25 0 44.5 20t37.5 62l62 -35q-36 -80 -80 -116.5t-111 -36.5q-68 0 -111 42t-44 128h-6q-46 -78 -130.5 -126t-177.5 -48zM428 94q84 0 154.5 59.5t70.5 137.5v182q-22 -7 -100 -20q-161 -25 -223 -67t-62 -132q0 -77 40.5 -118.5t119.5 -41.5z
M500 1094q-115 0 -186.5 82t-77.5 225h63q53 -180 201 -180q79 0 126.5 45.5t73.5 134.5h64q-4 -143 -75.5 -225t-188.5 -82z" />
    <glyph glyph-name="Aogonek" unicode="&#x104;" horiz-adv-x="1376" 
d="M1094 -485q-93 0 -147 48t-54 128q0 67 43 130.5t141 149.5l33 29h-291v106h211l-133 375h-496l-141 -375h180v-106h-448v106h143l488 1240h143l455 -1240h172v-106h-185l-30 -31q-87 -90 -120.5 -149t-33.5 -107q0 -51 30 -78.5t76 -27.5q52 0 117 45l39 -58
q-89 -79 -192 -79zM655 1145l-217 -567h424l-200 567h-7z" />
    <glyph glyph-name="aogonek" unicode="&#x105;" horiz-adv-x="989" 
d="M797 -485q-92 0 -146.5 48t-54.5 128q0 69 46.5 136t162.5 165q-130 14 -133 168h-6q-46 -78 -130.5 -126t-177.5 -48q-124 0 -194 65t-70 174q0 112 86 181q51 42 126 65.5t216 46.5q87 14 109 23t22 34v91q0 98 -47.5 141t-142.5 43q-111 0 -176 -53q55 -28 55 -95
q0 -45 -29 -74.5t-77 -29.5q-49 0 -79 31.5t-30 79.5q0 97 108 162t254 65q324 0 324 -277v-481q0 -46 14.5 -64t46.5 -18q25 0 44.5 20t37.5 62l62 -35q-20 -43 -38.5 -70.5t-59.5 -66.5q-96 -96 -144.5 -164t-48.5 -129q0 -51 30.5 -78.5t76.5 -27.5q53 0 118 45l37 -58
q-89 -79 -192 -79zM428 94q84 0 154.5 59.5t70.5 137.5v182q-22 -7 -100 -20q-161 -25 -223 -67t-62 -132q0 -77 40.5 -118.5t119.5 -41.5z" />
    <glyph glyph-name="Cacute" unicode="&#x106;" horiz-adv-x="1382" 
d="M666 1509l102 258q30 78 57.5 111t65.5 33q30 0 52 -21.5t22 -54.5q0 -28 -19 -59.5t-69 -96.5l-134 -170h-77zM715 -33q-182 0 -323.5 90t-218.5 250t-77 363q0 193 83 353.5t226 252.5t314 92q242 0 383 -162l39 156h106v-506h-94q-65 195 -170.5 297t-261.5 102
q-193 0 -310.5 -150t-117.5 -423q0 -284 122 -441t328 -157q175 0 287 120t141 318h115q-29 -263 -181 -409t-390 -146z" />
    <glyph glyph-name="cacute" unicode="&#x107;" horiz-adv-x="966" 
d="M485 1079l103 258q30 78 57.5 111t65.5 33q30 0 51.5 -21.5t21.5 -54.5q0 -28 -19 -59.5t-69 -96.5l-133 -170h-78zM508 -18q-191 0 -309.5 129.5t-118.5 330.5q0 219 129.5 357.5t335.5 138.5q144 0 246 -82.5t102 -177.5q0 -61 -32.5 -101t-86.5 -40q-51 0 -80.5 32
t-29.5 78q0 37 21.5 68t55.5 43q-63 94 -202 94q-128 0 -207.5 -105.5t-79.5 -283.5q0 -175 78.5 -275t216.5 -100q191 0 270 211h88q-39 -154 -142.5 -235.5t-254.5 -81.5z" />
    <glyph glyph-name="Cdotaccent" unicode="&#x10a;" horiz-adv-x="1382" 
d="M715 -33q-182 0 -323.5 90t-218.5 250t-77 363q0 193 83 353.5t226 252.5t314 92q242 0 383 -162l39 156h106v-506h-94q-65 195 -170.5 297t-261.5 102q-193 0 -310.5 -150t-117.5 -423q0 -284 122 -441t328 -157q175 0 287 120t141 318h115q-29 -263 -181 -409
t-390 -146zM717 1518q-48 0 -79.5 31t-31.5 81q0 46 32 79.5t79 33.5q45 0 76.5 -32t31.5 -81q0 -47 -31.5 -79.5t-76.5 -32.5z" />
    <glyph glyph-name="cdotaccent" unicode="&#x10b;" horiz-adv-x="966" 
d="M508 -18q-191 0 -309.5 129.5t-118.5 330.5q0 219 129.5 357.5t335.5 138.5q144 0 246 -82.5t102 -177.5q0 -61 -32.5 -101t-86.5 -40q-51 0 -80.5 32t-29.5 78q0 37 21.5 68t55.5 43q-63 94 -202 94q-128 0 -207.5 -105.5t-79.5 -283.5q0 -175 78.5 -275t216.5 -100
q191 0 270 211h88q-39 -154 -142.5 -235.5t-254.5 -81.5zM537 1087q-48 0 -79.5 31.5t-31.5 81.5q0 46 32 79.5t79 33.5q45 0 76.5 -32t31.5 -81q0 -47 -32 -80t-76 -33z" />
    <glyph glyph-name="Ccaron" unicode="&#x10c;" horiz-adv-x="1382" 
d="M682 1530l-223 371h80l180 -207l180 207h80l-221 -371h-76zM715 -33q-182 0 -323.5 90t-218.5 250t-77 363q0 193 83 353.5t226 252.5t314 92q242 0 383 -162l39 156h106v-506h-94q-65 195 -170.5 297t-261.5 102q-193 0 -310.5 -150t-117.5 -423q0 -284 122 -441
t328 -157q175 0 287 120t141 318h115q-29 -263 -181 -409t-390 -146z" />
    <glyph glyph-name="ccaron" unicode="&#x10d;" horiz-adv-x="966" 
d="M502 1100l-223 370h79l181 -206l180 206h80l-221 -370h-76zM508 -18q-191 0 -309.5 129.5t-118.5 330.5q0 219 129.5 357.5t335.5 138.5q144 0 246 -82.5t102 -177.5q0 -61 -32.5 -101t-86.5 -40q-51 0 -80.5 32t-29.5 78q0 37 21.5 68t55.5 43q-63 94 -202 94
q-128 0 -207.5 -105.5t-79.5 -283.5q0 -175 78.5 -275t216.5 -100q191 0 270 211h88q-39 -154 -142.5 -235.5t-254.5 -81.5z" />
    <glyph glyph-name="Dcaron" unicode="&#x10e;" horiz-adv-x="1441" 
d="M707 1530l-224 371h80l180 -207l181 207h80l-222 -371h-75zM66 0v106h227v1125h-227v104h552q180 0 320 -46.5t230 -132t136 -204t46 -264.5t-43 -268.5t-128 -217.5t-225.5 -148.5t-322.5 -53.5h-565zM465 106h170q269 0 393.5 141t124.5 441q0 270 -128.5 406.5
t-403.5 136.5h-156v-1125z" />
    <glyph glyph-name="dcaron" unicode="&#x10f;" horiz-adv-x="1095" 
d="M1126 1090h-65l-6 294q-3 154 86 154q31 0 51 -22.5t20 -63.5q0 -40 -24 -129zM446 -16q-137 0 -227 90q-133 130 -133 375q0 117 37.5 221t103.5 170q98 98 238 98q94 0 169 -47t118 -131v536h-156v111h313v-1301h148v-106h-301v201q-53 -107 -133.5 -162t-176.5 -55z
M498 90q109 0 184.5 107t75.5 278q0 159 -70.5 257.5t-183.5 98.5t-178.5 -99t-65.5 -273q0 -172 67.5 -270.5t170.5 -98.5z" />
    <glyph glyph-name="Dcroat" unicode="&#x110;" horiz-adv-x="1441" 
d="M66 0v106h227v541h-227v105h227v479h-227v104h552q180 0 320 -46.5t230 -132t136 -204t46 -264.5t-43 -268.5t-128 -217.5t-225.5 -148.5t-322.5 -53.5h-565zM465 106h170q269 0 393.5 141t124.5 441q0 270 -128.5 406.5t-403.5 136.5h-156v-479h293v-105h-293v-541z" />
    <glyph glyph-name="dcroat" unicode="&#x111;" horiz-adv-x="1095" 
d="M446 -16q-137 0 -227 90q-133 130 -133 375q0 117 37.5 221t103.5 170q98 98 238 98q94 0 169 -47t118 -131v284h-265v91h265v161h-156v111h313v-272h148v-91h-148v-938h148v-106h-301v201q-53 -107 -133.5 -162t-176.5 -55zM498 90q109 0 184.5 107t75.5 278
q0 159 -70.5 257.5t-183.5 98.5t-178.5 -99t-65.5 -273q0 -172 67.5 -270.5t170.5 -98.5z" />
    <glyph glyph-name="Emacron" unicode="&#x112;" horiz-adv-x="1345" 
d="M66 0v106h227v1125h-227v104h1142v-417h-80l-25.5 115t-22.5 82t-25 59t-31.5 33.5t-41.5 19.5t-56 4h-461v-498h203q33 0 53 2t38 11t27.5 20t19.5 37.5t15.5 55t14.5 79.5h84v-510h-84q-11 77 -20 115.5t-28.5 62.5t-44.5 29.5t-75 5.5h-203v-535h457q29 0 50 2.5
t40 11t32 18t25.5 32.5t20.5 44.5t18.5 63t18.5 79.5t20 102h80v-459h-1161zM473 1548v127h514v-127h-514z" />
    <glyph glyph-name="emacron" unicode="&#x113;" horiz-adv-x="974" 
d="M899 453h-647q3 -176 82 -269.5t213 -93.5q190 0 262 180h86q-41 -141 -140 -214.5t-243 -73.5q-198 0 -315 130t-117 339t126 348t312 139q78 0 143 -27t109 -73.5t74.5 -108.5t43.5 -132t11 -144zM508 850q-104 0 -171.5 -79.5t-82.5 -229.5h481q-11 149 -67.5 229
t-159.5 80zM260 1118v127h514v-127h-514z" />
    <glyph glyph-name="Ebreve" unicode="&#x114;" horiz-adv-x="1345" 
d="M66 0v106h227v1125h-227v104h1142v-417h-80l-25.5 115t-22.5 82t-25 59t-31.5 33.5t-41.5 19.5t-56 4h-461v-498h203q33 0 53 2t38 11t27.5 20t19.5 37.5t15.5 55t14.5 79.5h84v-510h-84q-11 77 -20 115.5t-28.5 62.5t-44.5 29.5t-75 5.5h-203v-535h457q29 0 50 2.5
t40 11t32 18t25.5 32.5t20.5 44.5t18.5 63t18.5 79.5t20 102h80v-459h-1161zM729 1524q-115 0 -186.5 82t-77.5 225h63q53 -180 201 -180q79 0 127 45.5t74 134.5h63q-4 -143 -75.5 -225t-188.5 -82z" />
    <glyph glyph-name="ebreve" unicode="&#x115;" horiz-adv-x="974" 
d="M899 453h-647q3 -176 82 -269.5t213 -93.5q190 0 262 180h86q-41 -141 -140 -214.5t-243 -73.5q-198 0 -315 130t-117 339t126 348t312 139q78 0 143 -27t109 -73.5t74.5 -108.5t43.5 -132t11 -144zM508 850q-104 0 -171.5 -79.5t-82.5 -229.5h481q-11 149 -67.5 229
t-159.5 80zM516 1094q-115 0 -186.5 82t-77.5 225h63q53 -180 201 -180q79 0 127 45.5t74 134.5h63q-4 -143 -75.5 -225t-188.5 -82z" />
    <glyph glyph-name="Edotaccent" unicode="&#x116;" horiz-adv-x="1345" 
d="M66 0v106h227v1125h-227v104h1142v-417h-80l-25.5 115t-22.5 82t-25 59t-31.5 33.5t-41.5 19.5t-56 4h-461v-498h203q33 0 53 2t38 11t27.5 20t19.5 37.5t15.5 55t14.5 79.5h84v-510h-84q-11 77 -20 115.5t-28.5 62.5t-44.5 29.5t-75 5.5h-203v-535h457q29 0 50 2.5
t40 11t32 18t25.5 32.5t20.5 44.5t18.5 63t18.5 79.5t20 102h80v-459h-1161zM731 1518q-48 0 -79 31t-31 81q0 46 31.5 79.5t78.5 33.5q45 0 77 -32t32 -81q0 -47 -32 -79.5t-77 -32.5z" />
    <glyph glyph-name="edotaccent" unicode="&#x117;" horiz-adv-x="974" 
d="M899 453h-647q3 -176 82 -269.5t213 -93.5q190 0 262 180h86q-41 -141 -140 -214.5t-243 -73.5q-198 0 -315 130t-117 339t126 348t312 139q78 0 143 -27t109 -73.5t74.5 -108.5t43.5 -132t11 -144zM508 850q-104 0 -171.5 -79.5t-82.5 -229.5h481q-11 149 -67.5 229
t-159.5 80zM516 1087q-48 0 -79 31.5t-31 81.5q0 46 31.5 79.5t78.5 33.5q45 0 77 -32t32 -81q0 -47 -32 -80t-77 -33z" />
    <glyph glyph-name="Eogonek" unicode="&#x118;" horiz-adv-x="1345" 
d="M66 0v106h227v1125h-227v104h1142v-417h-80l-25.5 115t-22.5 82t-25 59t-31.5 33.5t-41.5 19.5t-56 4h-461v-498h203q33 0 53 2t38 11t27.5 20t19.5 37.5t15.5 55t14.5 79.5h84v-510h-84q-11 77 -20 115.5t-28.5 62.5t-44.5 29.5t-75 5.5h-203v-535h457q29 0 50 2.5
t40 11t32 18t25.5 32.5t20.5 44.5t18.5 63t18.5 79.5t20 102h80v-459h-74l-31 -31q-87 -90 -120 -149t-33 -107q0 -51 30 -78.5t76 -27.5q52 0 117 45l39 -58q-89 -79 -193 -79q-93 0 -146.5 48t-53.5 128q0 67 43 130.5t141 149.5l33 29h-989z" />
    <glyph glyph-name="eogonek" unicode="&#x119;" horiz-adv-x="974" 
d="M899 453h-647q3 -176 82 -269.5t213 -93.5q190 0 262 180h86q-16 -52 -43 -100t-43 -68l-51 -61l-80 -88q-78 -88 -106.5 -141t-28.5 -99q0 -51 30 -78.5t76 -27.5q54 0 119 45l37 -58q-89 -79 -193 -79q-92 0 -146 48t-54 128q0 66 42.5 128t139.5 150l27 25
q-61 -12 -109 -12q-198 0 -315 130t-117 339t126 348t312 139q78 0 143 -27t109 -73.5t74.5 -108.5t43.5 -132t11 -144zM508 850q-104 0 -171.5 -79.5t-82.5 -229.5h481q-11 149 -67.5 229t-159.5 80z" />
    <glyph glyph-name="Ecaron" unicode="&#x11a;" horiz-adv-x="1345" 
d="M696 1530l-223 371h80l180 -207l180 207h80l-221 -371h-76zM66 0v106h227v1125h-227v104h1142v-417h-80l-25.5 115t-22.5 82t-25 59t-31.5 33.5t-41.5 19.5t-56 4h-461v-498h203q33 0 53 2t38 11t27.5 20t19.5 37.5t15.5 55t14.5 79.5h84v-510h-84q-11 77 -20 115.5
t-28.5 62.5t-44.5 29.5t-75 5.5h-203v-535h457q29 0 50 2.5t40 11t32 18t25.5 32.5t20.5 44.5t18.5 63t18.5 79.5t20 102h80v-459h-1161z" />
    <glyph glyph-name="ecaron" unicode="&#x11b;" horiz-adv-x="974" 
d="M899 453h-647q3 -176 82 -269.5t213 -93.5q190 0 262 180h86q-41 -141 -140 -214.5t-243 -73.5q-198 0 -315 130t-117 339t126 348t312 139q78 0 143 -27t109 -73.5t74.5 -108.5t43.5 -132t11 -144zM508 850q-104 0 -171.5 -79.5t-82.5 -229.5h481q-11 149 -67.5 229
t-159.5 80zM481 1100l-223 370h80l180 -206l180 206h80l-221 -370h-76z" />
    <glyph glyph-name="Gbreve" unicode="&#x11e;" 
d="M1090 178q-60 -101 -158.5 -156t-220.5 -55q-183 0 -324.5 94.5t-216 254t-74.5 356.5q0 188 80 347.5t222 254t313 94.5q113 0 211.5 -43.5t164.5 -118.5l39 156h107v-500h-94q-63 188 -168.5 290.5t-251.5 102.5q-199 0 -312.5 -149.5t-113.5 -421.5
q0 -281 116.5 -439.5t323.5 -158.5q166 0 260 125q82 101 82 287v53h-250v106h607v-106h-183v-565h-100zM715 1524q-115 0 -186.5 82t-77.5 225h63q53 -180 201 -180q79 0 126.5 45.5t73.5 134.5h64q-4 -143 -75.5 -225t-188.5 -82z" />
    <glyph glyph-name="gbreve" unicode="&#x11f;" horiz-adv-x="960" 
d="M827 639q0 -142 -99 -221.5t-261 -79.5q-23 0 -64.5 3t-60.5 3q-48 0 -78.5 -25t-30.5 -59q0 -40 42 -61t120 -21h244q270 0 270 -207q0 -128 -124.5 -214.5t-338.5 -86.5q-183 0 -290 59.5t-107 153.5q0 66 55 118t142 67v6q-81 24 -116.5 61t-35.5 88t49 96t125 62
q-162 83 -162 252q0 141 102.5 222t258.5 81q75 0 151 -29q106 183 248 183q53 0 86 -30t33 -77q0 -39 -25.5 -66.5t-64.5 -27.5q-38 0 -60 22.5t-22 59.5q0 12 2 20q-29 2 -66.5 -30t-64.5 -84q66 -40 104.5 -101.5t38.5 -136.5zM475 416q88 0 136 57t48 164
q0 96 -53.5 158.5t-144.5 62.5q-90 0 -139.5 -56t-49.5 -167q0 -109 54.5 -164t148.5 -55zM455 -244q141 0 227 48.5t86 125.5q0 115 -145 115h-230q-93 0 -142.5 -37.5t-49.5 -107.5q0 -66 61.5 -105t192.5 -39zM469 1094q-115 0 -186.5 82t-77.5 225h63q53 -180 201 -180
q79 0 127 45.5t74 134.5h63q-4 -143 -75.5 -225t-188.5 -82z" />
    <glyph glyph-name="Gdotaccent" unicode="&#x120;" 
d="M1090 178q-60 -101 -158.5 -156t-220.5 -55q-183 0 -324.5 94.5t-216 254t-74.5 356.5q0 188 80 347.5t222 254t313 94.5q113 0 211.5 -43.5t164.5 -118.5l39 156h107v-500h-94q-63 188 -168.5 290.5t-251.5 102.5q-199 0 -312.5 -149.5t-113.5 -421.5
q0 -281 116.5 -439.5t323.5 -158.5q166 0 260 125q82 101 82 287v53h-250v106h607v-106h-183v-565h-100zM717 1518q-48 0 -79.5 31t-31.5 81q0 46 32 79.5t79 33.5q45 0 76.5 -32t31.5 -81q0 -47 -31.5 -79.5t-76.5 -32.5z" />
    <glyph glyph-name="gdotaccent" unicode="&#x121;" horiz-adv-x="960" 
d="M827 639q0 -142 -99 -221.5t-261 -79.5q-23 0 -64.5 3t-60.5 3q-48 0 -78.5 -25t-30.5 -59q0 -40 42 -61t120 -21h244q270 0 270 -207q0 -128 -124.5 -214.5t-338.5 -86.5q-183 0 -290 59.5t-107 153.5q0 66 55 118t142 67v6q-81 24 -116.5 61t-35.5 88t49 96t125 62
q-162 83 -162 252q0 141 102.5 222t258.5 81q75 0 151 -29q106 183 248 183q53 0 86 -30t33 -77q0 -39 -25.5 -66.5t-64.5 -27.5q-38 0 -60 22.5t-22 59.5q0 12 2 20q-29 2 -66.5 -30t-64.5 -84q66 -40 104.5 -101.5t38.5 -136.5zM475 416q88 0 136 57t48 164
q0 96 -53.5 158.5t-144.5 62.5q-90 0 -139.5 -56t-49.5 -167q0 -109 54.5 -164t148.5 -55zM455 -244q141 0 227 48.5t86 125.5q0 115 -145 115h-230q-93 0 -142.5 -37.5t-49.5 -107.5q0 -66 61.5 -105t192.5 -39zM471 1087q-48 0 -79.5 31.5t-31.5 81.5q0 46 32 79.5
t79 33.5q45 0 77 -32t32 -81q0 -47 -32 -80t-77 -33z" />
    <glyph glyph-name="Gcommaaccent" unicode="&#x122;" 
d="M606 -600l-31 59q150 73 166 189l-6 4q-21 -14 -49 -14q-34 0 -60 28t-26 68q0 44 31 76t76 32q58 0 90 -38.5t32 -102.5q0 -201 -223 -301zM1090 178q-60 -101 -158.5 -156t-220.5 -55q-183 0 -324.5 94.5t-216 254t-74.5 356.5q0 188 80 347.5t222 254t313 94.5
q113 0 211.5 -43.5t164.5 -118.5l39 156h107v-500h-94q-63 188 -168.5 290.5t-251.5 102.5q-199 0 -312.5 -149.5t-113.5 -421.5q0 -281 116.5 -439.5t323.5 -158.5q166 0 260 125q82 101 82 287v53h-250v106h607v-106h-183v-565h-100z" />
    <glyph glyph-name="gcommaaccent" unicode="&#x123;" horiz-adv-x="960" 
d="M827 639q0 -142 -99 -221.5t-261 -79.5q-23 0 -64.5 3t-60.5 3q-48 0 -78.5 -25t-30.5 -59q0 -40 42 -61t120 -21h244q270 0 270 -207q0 -128 -124.5 -214.5t-338.5 -86.5q-183 0 -290 59.5t-107 153.5q0 66 55 118t142 67v6q-81 24 -116.5 61t-35.5 88t49 96t125 62
q-162 83 -162 252q0 141 102.5 222t258.5 81q75 0 151 -29q106 183 248 183q53 0 86 -30t33 -77q0 -39 -25.5 -66.5t-64.5 -27.5q-38 0 -60 22.5t-22 59.5q0 12 2 20q-29 2 -66.5 -30t-64.5 -84q66 -40 104.5 -101.5t38.5 -136.5zM475 416q88 0 136 57t48 164
q0 96 -53.5 158.5t-144.5 62.5q-90 0 -139.5 -56t-49.5 -167q0 -109 54.5 -164t148.5 -55zM455 -244q141 0 227 48.5t86 125.5q0 115 -145 115h-230q-93 0 -142.5 -37.5t-49.5 -107.5q0 -66 61.5 -105t192.5 -39zM578 1530l30 -60q-150 -73 -166 -188l7 -4q21 14 49 14
q34 0 60 -28t26 -68q0 -44 -31 -76.5t-76 -32.5q-58 0 -90.5 39t-32.5 103q0 200 224 301z" />
    <glyph glyph-name="Hbar" unicode="&#x126;" horiz-adv-x="1581" 
d="M66 928v94h227v209h-227v104h600v-104h-201v-209h649v209h-199v104h601v-104h-228v-209h228v-94h-228v-822h228v-106h-601v106h199v517h-649v-517h201v-106h-600v106h227v822h-227zM465 719h649v209h-649v-209z" />
    <glyph glyph-name="hbar" unicode="&#x127;" horiz-adv-x="1138" 
d="M45 0v106h154v938h-154v91h154v161h-154v111h313v-272h258v-91h-258v-356q141 248 344 248q118 0 184 -75.5t66 -215.5v-539h154v-106h-453v106h142v467q0 137 -54 191q-40 43 -116 43q-101 0 -184 -93t-83 -206v-402h140v-106h-453z" />
    <glyph glyph-name="Imacron" unicode="&#x12a;" horiz-adv-x="786" 
d="M80 0v106h225v1125h-225v104h627v-104h-228v-1125h228v-106h-627zM135 1548v127h514v-127h-514z" />
    <glyph glyph-name="imacron" unicode="&#x12b;" horiz-adv-x="614" 
d="M74 0v106h174v709h-174v107h332v-816h174v-106h-506zM45 1118v127h514v-127h-514z" />
    <glyph glyph-name="Ibreve" unicode="&#x12c;" horiz-adv-x="786" 
d="M80 0v106h225v1125h-225v104h627v-104h-228v-1125h228v-106h-627zM391 1524q-115 0 -186.5 82t-77.5 225h63q53 -180 201 -180q79 0 127 45.5t74 134.5h63q-4 -143 -75.5 -225t-188.5 -82z" />
    <glyph glyph-name="ibreve" unicode="&#x12d;" horiz-adv-x="614" 
d="M74 0v106h174v709h-174v107h332v-816h174v-106h-506zM301 1094q-115 0 -186.5 82t-77.5 225h63q53 -180 201 -180q79 0 127 45.5t74 134.5h63q-4 -143 -75.5 -225t-188.5 -82z" />
    <glyph glyph-name="Iogonek" unicode="&#x12e;" horiz-adv-x="786" 
d="M80 0v106h225v1125h-225v104h627v-104h-228v-1125h228v-106h-207l-31 -31q-87 -90 -120.5 -149t-33.5 -107q0 -51 30.5 -78.5t76.5 -27.5q52 0 117 45l39 -58q-89 -79 -193 -79q-93 0 -147 48t-54 128q0 67 43 130.5t142 149.5l32 29h-321z" />
    <glyph glyph-name="iogonek" unicode="&#x12f;" horiz-adv-x="614" 
d="M74 0v106h174v709h-174v107h332v-816h174v-106h-150l-31 -31q-87 -90 -120 -149t-33 -107q0 -51 30 -78.5t76 -27.5q52 0 117 45l39 -58q-89 -79 -193 -79q-93 0 -146.5 48t-53.5 128q0 67 43 130.5t141 149.5l33 29h-258zM315 1130q-52 0 -84 31t-32 84q0 52 32 85.5
t84 33.5q48 0 80.5 -32.5t32.5 -84.5t-32.5 -84.5t-80.5 -32.5z" />
    <glyph glyph-name="Idotaccent" unicode="&#x130;" horiz-adv-x="786" 
d="M80 0v106h225v1125h-225v104h627v-104h-228v-1125h228v-106h-627zM393 1518q-48 0 -79 31t-31 81q0 46 31.5 79.5t78.5 33.5q45 0 77 -32t32 -81q0 -47 -32 -79.5t-77 -32.5z" />
    <glyph glyph-name="dotlessi" unicode="&#x131;" horiz-adv-x="614" 
d="M74 0v106h174v709h-174v107h332v-816h174v-106h-506z" />
    <glyph glyph-name="Kcommaaccent" unicode="&#x136;" horiz-adv-x="1468" 
d="M465 469v-363h201v-106h-600v106h227v1125h-227v104h600v-104h-201v-625l610 625h-184v104h514v-104h-172l-453 -449l504 -676h164v-106h-561v106h184l-407 560zM631 -600l-31 59q150 73 166 189l-6 4q-21 -14 -49 -14q-34 0 -60 28t-26 68q0 44 30.5 76t75.5 32
q58 0 90.5 -38.5t32.5 -102.5q0 -201 -223 -301z" />
    <glyph glyph-name="kcommaaccent" unicode="&#x137;" horiz-adv-x="1069" 
d="M864 815l-252 -256l320 -453h117v-106h-420v104h123l-244 355l-150 -152v-201h127v-106h-440v106h154v1190h-154v111h313v-985l373 395h-153v105h426v-107h-140zM416 -600l-31 59q150 73 166 189l-6 4q-21 -14 -49 -14q-34 0 -60 28t-26 68q0 44 30.5 76t75.5 32
q58 0 90.5 -38.5t32.5 -102.5q0 -201 -223 -301z" />
    <glyph glyph-name="Lacute" unicode="&#x139;" horiz-adv-x="1241" 
d="M336 1509l102 258q30 78 57.5 111t65.5 33q30 0 52 -21.5t22 -54.5q0 -28 -19 -59.5t-69 -96.5l-133 -170h-78zM66 1335h639v-104h-240v-1125h403q31 0 52.5 5t41 25t32 42t28.5 75t28.5 103t34.5 146h80v-502h-1099v106h227v1125h-227v104z" />
    <glyph glyph-name="lacute" unicode="&#x13a;" horiz-adv-x="581" 
d="M219 1565l103 258q30 78 57 110.5t65 32.5q30 0 52 -21.5t22 -54.5q0 -28 -18.5 -58.5t-69.5 -96.5l-133 -170h-78zM37 0v106h174v1190h-174v111h334v-1301h172v-106h-506z" />
    <glyph glyph-name="Lcommaaccent" unicode="&#x13b;" horiz-adv-x="1241" 
d="M541 -600l-31 59q150 73 166 189l-6 4q-21 -14 -49 -14q-34 0 -60 28t-26 68q0 44 30.5 76t75.5 32q58 0 90.5 -38.5t32.5 -102.5q0 -201 -223 -301zM66 1335h639v-104h-240v-1125h403q31 0 52.5 5t41 25t32 42t28.5 75t28.5 103t34.5 146h80v-502h-1099v106h227v1125
h-227v104z" />
    <glyph glyph-name="lcommaaccent" unicode="&#x13c;" horiz-adv-x="581" 
d="M180 -600l-30 59q149 73 165 189l-6 4q-21 -14 -49 -14q-34 0 -60 28t-26 68q0 44 31 76t76 32q58 0 90 -38.5t32 -102.5q0 -201 -223 -301zM37 0v106h174v1190h-174v111h334v-1301h172v-106h-506z" />
    <glyph glyph-name="Lcaron" unicode="&#x13d;" horiz-adv-x="1241" 
d="M911 1020h-65l-6 295q-3 153 86 153q31 0 51 -22.5t20 -63.5q0 -40 -24 -129zM66 1335h639v-104h-240v-1125h403q31 0 52.5 5t41 25t32 42t28.5 75t28.5 103t34.5 146h80v-502h-1099v106h227v1125h-227v104z" />
    <glyph glyph-name="lcaron" unicode="&#x13e;" horiz-adv-x="581" 
d="M588 1090h-66l-6 294q-3 154 86 154q31 0 51.5 -22.5t20.5 -63.5q0 -37 -25 -129zM37 0v106h174v1190h-174v111h334v-1301h172v-106h-506z" />
    <glyph glyph-name="Ldot" unicode="&#x13f;" horiz-adv-x="1241" 
d="M66 1335h639v-104h-240v-1125h403q24 0 41 2.5t33.5 12.5t27.5 20t23.5 34.5t21 47t21.5 66.5t23 83.5l26 106.5h80v-479h-1099v106h227v1125h-227v104zM973 629q-48 0 -79.5 30t-31.5 80q0 46 32 79.5t79 33.5q45 0 75.5 -32t30.5 -81q0 -47 -31.5 -78.5t-74.5 -31.5z
" />
    <glyph glyph-name="ldot" unicode="&#x140;" horiz-adv-x="735" 
d="M659 604q-47 0 -77.5 30t-30.5 79q0 46 31 78t77 32q45 0 76 -30.5t31 -77.5q0 -49 -31 -80t-76 -31zM37 0v106h174v1190h-174v111h334v-1301h172v-106h-506z" />
    <glyph glyph-name="Lslash" unicode="&#x141;" horiz-adv-x="1241" 
d="M66 1335h639v-104h-240v-486l366 121v-100l-366 -123v-537h403q31 0 52.5 5t41 25t32 42t28.5 75t28.5 103t34.5 146h80v-502h-1099v106h227v478l-178 -60v105l178 59v543h-227v104z" />
    <glyph glyph-name="lslash" unicode="&#x142;" horiz-adv-x="614" 
d="M53 0v106h174v531l-174 -57v94l174 59v563h-174v111h334v-621l186 64v-96l-186 -64v-584h172v-106h-506z" />
    <glyph glyph-name="Nacute" unicode="&#x143;" horiz-adv-x="1570" 
d="M739 1509l103 258q30 78 57.5 111t65.5 33q30 0 51.5 -21.5t21.5 -54.5q0 -28 -19 -59.5t-69 -96.5l-133 -170h-78zM1206 -33l-794 1151h-11v-1012h205v-106h-536v106h213v1125h-213v104h401l717 -1036h10v932h-207v104h531v-104h-203v-1264h-113z" />
    <glyph glyph-name="nacute" unicode="&#x144;" horiz-adv-x="1163" 
d="M553 1079l102 258q30 78 57.5 111t65.5 33q30 0 52 -21.5t22 -54.5q0 -28 -19 -59.5t-69 -96.5l-133 -170h-78zM70 0v106h153v709h-153v107h309v-238q146 252 348 252q118 0 184 -75.5t66 -215.5v-539h153v-106h-452v106h141v467q0 138 -53 191q-40 43 -117 43
q-101 0 -183.5 -93t-82.5 -206v-402h139v-106h-452z" />
    <glyph glyph-name="Ncommaaccent" unicode="&#x145;" horiz-adv-x="1570" 
d="M688 -600l-31 59q150 73 166 189l-6 4q-21 -14 -49 -14q-34 0 -60 28t-26 68q0 44 30.5 76t75.5 32q58 0 90.5 -38.5t32.5 -102.5q0 -201 -223 -301zM1206 -33l-794 1151h-11v-1012h205v-106h-536v106h213v1125h-213v104h401l717 -1036h10v932h-207v104h531v-104h-203
v-1264h-113z" />
    <glyph glyph-name="ncommaaccent" unicode="&#x146;" horiz-adv-x="1163" 
d="M500 -600l-31 59q150 73 166 189l-6 4q-21 -14 -49 -14q-34 0 -60 28t-26 68q0 44 30.5 76t75.5 32q58 0 90.5 -38.5t32.5 -102.5q0 -201 -223 -301zM70 0v106h153v709h-153v107h309v-238q146 252 348 252q118 0 184 -75.5t66 -215.5v-539h153v-106h-452v106h141v467
q0 138 -53 191q-40 43 -117 43q-101 0 -183.5 -93t-82.5 -206v-402h139v-106h-452z" />
    <glyph glyph-name="Ncaron" unicode="&#x147;" horiz-adv-x="1570" 
d="M758 1530l-223 371h79l181 -207l180 207h80l-221 -371h-76zM1206 -33l-794 1151h-11v-1012h205v-106h-536v106h213v1125h-213v104h401l717 -1036h10v932h-207v104h531v-104h-203v-1264h-113z" />
    <glyph glyph-name="ncaron" unicode="&#x148;" horiz-adv-x="1163" 
d="M569 1100l-223 370h80l180 -206l180 206h80l-221 -370h-76zM70 0v106h153v709h-153v107h309v-238q146 252 348 252q118 0 184 -75.5t66 -215.5v-539h153v-106h-452v106h141v467q0 138 -53 191q-40 43 -117 43q-101 0 -183.5 -93t-82.5 -206v-402h139v-106h-452z" />
    <glyph glyph-name="Omacron" unicode="&#x14c;" 
d="M471 1548v127h514v-127h-514zM729 -33q-131 0 -248 52t-201.5 143.5t-134 222.5t-49.5 283q0 147 51 277.5t136.5 222.5t202 145t243.5 53q132 0 248 -51.5t200.5 -142t133.5 -221.5t49 -283q0 -148 -50.5 -279t-136 -223t-201.5 -145.5t-243 -53.5zM729 76
q203 0 319.5 158.5t116.5 433.5q0 271 -116.5 430t-319.5 159q-204 0 -320 -158.5t-116 -430.5t116 -432t320 -160z" />
    <glyph glyph-name="omacron" unicode="&#x14d;" horiz-adv-x="1048" 
d="M266 1118v127h514v-127h-514zM524 -18q-197 0 -320.5 130t-123.5 341q0 213 126.5 349t317.5 136q197 0 321 -130t124 -341q0 -213 -127 -349t-318 -136zM532 72q119 0 191 98.5t72 290.5t-78 289.5t-201 97.5q-119 0 -191.5 -98.5t-72.5 -290.5q0 -190 78.5 -288.5
t201.5 -98.5z" />
    <glyph glyph-name="Obreve" unicode="&#x14e;" 
d="M729 -33q-131 0 -248 52t-201.5 143.5t-134 222.5t-49.5 283q0 147 51 277.5t136.5 222.5t202 145t243.5 53q132 0 248 -51.5t200.5 -142t133.5 -221.5t49 -283q0 -148 -50.5 -279t-136 -223t-201.5 -145.5t-243 -53.5zM729 76q203 0 319.5 158.5t116.5 433.5
q0 271 -116.5 430t-319.5 159q-204 0 -320 -158.5t-116 -430.5t116 -432t320 -160zM727 1524q-115 0 -186.5 82t-77.5 225h63q53 -180 201 -180q79 0 127 45.5t74 134.5h63q-4 -143 -75.5 -225t-188.5 -82z" />
    <glyph glyph-name="obreve" unicode="&#x14f;" horiz-adv-x="1048" 
d="M524 -18q-197 0 -320.5 130t-123.5 341q0 213 126.5 349t317.5 136q197 0 321 -130t124 -341q0 -213 -127 -349t-318 -136zM532 72q119 0 191 98.5t72 290.5t-78 289.5t-201 97.5q-119 0 -191.5 -98.5t-72.5 -290.5q0 -190 78.5 -288.5t201.5 -98.5zM522 1094
q-115 0 -186.5 82t-77.5 225h64q53 -180 200 -180q79 0 127 45.5t74 134.5h63q-4 -143 -75.5 -225t-188.5 -82z" />
    <glyph glyph-name="Ohungarumlaut" unicode="&#x150;" 
d="M838 1509l112 258q36 80 62.5 112t64.5 32q29 0 49.5 -20.5t20.5 -53.5q0 -28 -20 -62t-70 -94l-142 -172h-77zM543 1509l112 258q34 78 61 111t64 33q30 0 51 -20.5t21 -53.5q0 -27 -20 -60.5t-70 -95.5l-141 -172h-78zM729 -33q-131 0 -248 52t-201.5 143.5t-134 222.5
t-49.5 283q0 147 51 277.5t136.5 222.5t202 145t243.5 53q132 0 248 -51.5t200.5 -142t133.5 -221.5t49 -283q0 -148 -50.5 -279t-136 -223t-201.5 -145.5t-243 -53.5zM729 76q203 0 319.5 158.5t116.5 433.5q0 271 -116.5 430t-319.5 159q-204 0 -320 -158.5t-116 -430.5
t116 -432t320 -160z" />
    <glyph glyph-name="ohungarumlaut" unicode="&#x151;" horiz-adv-x="1048" 
d="M633 1079l112 258q36 80 62.5 112t64.5 32q29 0 49.5 -20.5t20.5 -53.5q0 -28 -20 -62t-70 -94l-141 -172h-78zM338 1079l113 258q34 79 60.5 111.5t63.5 32.5q30 0 51 -20.5t21 -53.5q0 -27 -20 -60.5t-70 -95.5l-141 -172h-78zM524 -18q-197 0 -320.5 130t-123.5 341
q0 213 126.5 349t317.5 136q197 0 321 -130t124 -341q0 -213 -127 -349t-318 -136zM532 72q119 0 191 98.5t72 290.5t-78 289.5t-201 97.5q-119 0 -191.5 -98.5t-72.5 -290.5q0 -190 78.5 -288.5t201.5 -98.5z" />
    <glyph glyph-name="OE" unicode="&#x152;" horiz-adv-x="2029" 
d="M825 0q-359 0 -545 174t-186 473q0 146 43 268.5t128 217.5t225.5 148.5t322.5 53.5h1079v-417h-80l-25.5 115t-22.5 82t-25 59t-31.5 33.5t-41.5 19.5t-56 4h-459v-498h201q33 0 53 2t38 11t27.5 20t19.5 37.5t15.5 55t14.5 79.5h84v-510h-84q-11 77 -20 115.5
t-28.5 62.5t-44.5 29.5t-75 5.5h-201v-535h455q29 0 50 2.5t40 11t32 18t25.5 32.5t20.5 44.5t18.5 63t18.5 79.5t20 102h80v-459h-1086zM821 106h156v1125h-170q-268 0 -393 -141.5t-125 -442.5q0 -269 129 -405t403 -136z" />
    <glyph glyph-name="oe" unicode="&#x153;" horiz-adv-x="1685" 
d="M1612 453h-647q1 -176 79.5 -269.5t212.5 -93.5q191 0 263 180h86q-41 -141 -140 -214.5t-243 -73.5q-118 0 -207.5 53t-141.5 147q-58 -94 -148.5 -147t-201.5 -53q-197 0 -320.5 130t-123.5 341q0 213 126.5 349t317.5 136q119 0 212 -52.5t149 -148.5q58 95 147.5 148
t196.5 53q97 0 173 -41t121.5 -110.5t68 -154.5t20.5 -179zM532 72q119 0 191 98.5t72 290.5t-78 289.5t-201 97.5q-119 0 -191.5 -98.5t-72.5 -290.5q0 -190 78.5 -288.5t201.5 -98.5zM1221 850q-105 0 -173 -79.5t-81 -229.5h479q-11 148 -67 228.5t-158 80.5z" />
    <glyph glyph-name="Racute" unicode="&#x154;" horiz-adv-x="1386" 
d="M659 1509l103 258q30 78 57.5 111t65.5 33q30 0 51.5 -21.5t21.5 -54.5q0 -28 -19 -59.5t-69 -96.5l-133 -170h-78zM465 600v-494h225v-106h-624v106h227v1125h-227v104h653q248 0 367.5 -96t119.5 -250q0 -116 -77.5 -206.5t-243.5 -120.5v-13q138 -33 197.5 -102
t68.5 -189l12 -168q4 -49 21.5 -71.5t50.5 -22.5q28 0 50 23t46 74l70 -33q-34 -90 -85.5 -136.5t-129.5 -46.5q-206 0 -211 240l-4 162q-3 121 -55 171t-197 50h-254zM465 698h242q160 0 231.5 75t71.5 214q0 122 -66.5 183t-210.5 61h-268v-533z" />
    <glyph glyph-name="racute" unicode="&#x155;" horiz-adv-x="829" 
d="M403 1079l103 258q30 78 57.5 111t65.5 33q30 0 51.5 -21.5t21.5 -54.5q0 -28 -19 -59.5t-69 -96.5l-133 -170h-78zM70 0v106h153v709h-153v107h309v-217q42 112 118 170.5t160 58.5q69 0 109.5 -40.5t40.5 -100.5q0 -50 -32 -84.5t-79 -34.5t-78.5 29t-31.5 77
q0 23 8 39q-70 7 -128.5 -62t-82.5 -153v-498h180v-106h-493z" />
    <glyph glyph-name="Rcommaaccent" unicode="&#x156;" horiz-adv-x="1386" 
d="M621 -600l-31 59q150 73 166 189l-6 4q-21 -14 -50 -14q-34 0 -60 28t-26 68q0 44 31 76t76 32q58 0 90.5 -38.5t32.5 -102.5q0 -201 -223 -301zM465 600v-494h225v-106h-624v106h227v1125h-227v104h653q248 0 367.5 -96t119.5 -250q0 -116 -77.5 -206.5t-243.5 -120.5
v-13q138 -33 197.5 -102t68.5 -189l12 -168q4 -49 21.5 -71.5t50.5 -22.5q28 0 50 23t46 74l70 -33q-34 -90 -85.5 -136.5t-129.5 -46.5q-206 0 -211 240l-4 162q-3 121 -55 171t-197 50h-254zM465 698h242q160 0 231.5 75t71.5 214q0 122 -66.5 183t-210.5 61h-268v-533z
" />
    <glyph glyph-name="rcommaaccent" unicode="&#x157;" horiz-adv-x="829" 
d="M209 -600l-31 59q150 73 166 189l-6 4q-21 -14 -49 -14q-34 0 -60 28t-26 68q0 44 30.5 76t75.5 32q58 0 90.5 -38.5t32.5 -102.5q0 -201 -223 -301zM70 0v106h153v709h-153v107h309v-217q42 112 118 170.5t160 58.5q69 0 109.5 -40.5t40.5 -100.5q0 -50 -32 -84.5
t-79 -34.5t-78.5 29t-31.5 77q0 23 8 39q-70 7 -128.5 -62t-82.5 -153v-498h180v-106h-493z" />
    <glyph glyph-name="Rcaron" unicode="&#x158;" horiz-adv-x="1386" 
d="M676 1530l-223 371h79l181 -207l180 207h80l-221 -371h-76zM465 600v-494h225v-106h-624v106h227v1125h-227v104h653q248 0 367.5 -96t119.5 -250q0 -116 -77.5 -206.5t-243.5 -120.5v-13q138 -33 197.5 -102t68.5 -189l12 -168q4 -49 21.5 -71.5t50.5 -22.5q28 0 50 23
t46 74l70 -33q-34 -90 -85.5 -136.5t-129.5 -46.5q-206 0 -211 240l-4 162q-3 121 -55 171t-197 50h-254zM465 698h242q160 0 231.5 75t71.5 214q0 122 -66.5 183t-210.5 61h-268v-533z" />
    <glyph glyph-name="rcaron" unicode="&#x159;" horiz-adv-x="829" 
d="M422 1100l-223 370h80l180 -206l180 206h80l-221 -370h-76zM70 0v106h153v709h-153v107h309v-217q42 112 118 170.5t160 58.5q69 0 109.5 -40.5t40.5 -100.5q0 -50 -32 -84.5t-79 -34.5t-78.5 29t-31.5 77q0 23 8 39q-70 7 -128.5 -62t-82.5 -153v-498h180v-106h-493z
" />
    <glyph glyph-name="Sacute" unicode="&#x15a;" horiz-adv-x="1171" 
d="M541 1509l102 258q30 78 57.5 111t65.5 33q30 0 52 -21.5t22 -54.5q0 -28 -19 -59.5t-69 -96.5l-134 -170h-77zM113 -27v465h92q97 -199 202 -285.5t252 -86.5q122 0 194.5 64t72.5 181q0 53 -19 94t-46.5 67.5t-80.5 50.5t-97.5 38t-121.5 35l-81 22.5t-76.5 25
t-73.5 31.5t-64 38t-56 49t-41.5 59.5t-28.5 74t-9 89.5q0 162 113 271.5t297 109.5q99 0 191 -39.5t151 -107.5l41 141h100v-440h-92q-140 350 -402 350q-105 0 -172 -62.5t-67 -171.5q0 -54 20.5 -96t44.5 -67t80 -49.5t89.5 -34.5t110.5 -31q5 -1 7 -2l69 -18t65.5 -19
t63.5 -22t57 -25t53 -30.5t44.5 -36t38 -44t27.5 -51.5t18.5 -62t5.5 -73q0 -175 -121.5 -291.5t-308.5 -116.5q-241 0 -397 166l-45 -160h-100z" />
    <glyph glyph-name="sacute" unicode="&#x15b;" horiz-adv-x="886" 
d="M399 1079l103 258q30 78 57.5 111t65.5 33q30 0 51.5 -21.5t21.5 -54.5q0 -28 -19 -59.5t-69 -96.5l-133 -170h-78zM92 -18v348h94q37 -123 117.5 -193.5t188.5 -70.5q85 0 132.5 39t47.5 104q0 68 -54.5 106.5t-195.5 77.5q-170 48 -241.5 111t-71.5 168q0 109 87 187.5
t222 78.5q79 0 141.5 -28.5t97.5 -82.5l23 111h90v-315h-90q-51 121 -109 176t-155 55q-68 0 -116 -36t-48 -97q0 -63 56 -103.5t186 -76.5q175 -47 246 -107t71 -172q0 -111 -88.5 -195.5t-230.5 -84.5q-186 0 -287 129l-23 -129h-90z" />
    <glyph glyph-name="Scedilla" unicode="&#x15e;" horiz-adv-x="1171" 
d="M586 -485q-116 0 -207 61l39 66q79 -48 151 -48q54 0 85.5 24t31.5 65q0 44 -40.5 69t-102.5 25q-40 0 -78 -10l-29 38l158 166q-201 18 -336 162l-45 -160h-100v465h92q97 -199 202 -285.5t252 -86.5q122 0 194.5 64t72.5 181q0 53 -19 94t-46.5 67.5t-80.5 50.5
t-97.5 38t-121.5 35l-81 22.5t-76.5 25t-73.5 31.5t-64 38t-56 49t-41.5 59.5t-28.5 74t-9 89.5q0 162 113 271.5t297 109.5q99 0 191 -39.5t151 -107.5l41 141h100v-440h-92q-140 350 -402 350q-105 0 -172 -62.5t-67 -171.5q0 -54 20.5 -96t44.5 -67t80 -49.5t89.5 -34.5
t110.5 -31q5 -1 7 -2l69 -18t65.5 -19t63.5 -22t57 -25t53 -30.5t44.5 -36t38 -44t27.5 -51.5t18.5 -62t5.5 -73q0 -167 -111 -281.5t-284 -124.5l-104 -106l2 -6q98 -3 156.5 -48t58.5 -114q0 -82 -60.5 -131t-156.5 -49z" />
    <glyph glyph-name="scedilla" unicode="&#x15f;" horiz-adv-x="886" 
d="M424 -485q-116 0 -207 61l39 66q79 -48 152 -48q54 0 85 24t31 65q0 44 -40.5 69t-102.5 25q-40 0 -78 -10l-29 38l170 179q-157 18 -239 127l-23 -129h-90v348h94q37 -123 117.5 -193.5t188.5 -70.5q85 0 132.5 39t47.5 104q0 68 -54.5 106.5t-195.5 77.5
q-170 48 -241.5 111t-71.5 168q0 109 87 187.5t222 78.5q79 0 141.5 -28.5t97.5 -82.5l23 111h90v-315h-90q-51 121 -109 176t-155 55q-68 0 -116 -36t-48 -97q0 -63 56 -103.5t186 -76.5q175 -47 246 -107t71 -172q0 -100 -72 -179.5t-192 -96.5l-123 -123l2 -6
q98 -3 156.5 -48t58.5 -114q0 -82 -60.5 -131t-156.5 -49z" />
    <glyph glyph-name="Scaron" unicode="&#x160;" horiz-adv-x="1171" 
d="M557 1530l-223 371h80l180 -207l180 207h80l-221 -371h-76zM113 -27v465h92q97 -199 202 -285.5t252 -86.5q122 0 194.5 64t72.5 181q0 53 -19 94t-46.5 67.5t-80.5 50.5t-97.5 38t-121.5 35l-81 22.5t-76.5 25t-73.5 31.5t-64 38t-56 49t-41.5 59.5t-28.5 74t-9 89.5
q0 162 113 271.5t297 109.5q99 0 191 -39.5t151 -107.5l41 141h100v-440h-92q-140 350 -402 350q-105 0 -172 -62.5t-67 -171.5q0 -54 20.5 -96t44.5 -67t80 -49.5t89.5 -34.5t110.5 -31q5 -1 7 -2l69 -18t65.5 -19t63.5 -22t57 -25t53 -30.5t44.5 -36t38 -44t27.5 -51.5
t18.5 -62t5.5 -73q0 -175 -121.5 -291.5t-308.5 -116.5q-241 0 -397 166l-45 -160h-100z" />
    <glyph glyph-name="scaron" unicode="&#x161;" horiz-adv-x="886" 
d="M416 1100l-223 370h79l181 -206l180 206h80l-221 -370h-76zM92 -18v348h94q37 -123 117.5 -193.5t188.5 -70.5q85 0 132.5 39t47.5 104q0 68 -54.5 106.5t-195.5 77.5q-170 48 -241.5 111t-71.5 168q0 109 87 187.5t222 78.5q79 0 141.5 -28.5t97.5 -82.5l23 111h90v-315
h-90q-51 121 -109 176t-155 55q-68 0 -116 -36t-48 -97q0 -63 56 -103.5t186 -76.5q175 -47 246 -107t71 -172q0 -111 -88.5 -195.5t-230.5 -84.5q-186 0 -287 129l-23 -129h-90z" />
    <glyph glyph-name="Tcommaaccent" unicode="&#x162;" horiz-adv-x="1372" 
d="M580 -600l-31 59q150 73 166 189l-6 4q-21 -14 -50 -14q-34 0 -60 28t-26 68q0 44 31 76t76 32q58 0 90.5 -38.5t32.5 -102.5q0 -201 -223 -301zM365 0v106h235v1133h-182q-30 0 -52.5 -2.5t-42 -12.5t-33 -20t-27.5 -34t-23.5 -46t-21.5 -65.5t-21.5 -82l-24.5 -104.5
h-78v463h1184v-463h-78q-15 67 -24.5 105t-21.5 81.5t-21.5 65t-23.5 46t-27.5 34.5t-34 20t-42.5 12.5t-53 2.5h-180v-1133h236v-106h-643z" />
    <glyph glyph-name="tcommaaccent" unicode="&#x163;" horiz-adv-x="716" 
d="M276 -600l-30 59q150 73 166 189l-6 4q-21 -14 -50 -14q-34 0 -60 28t-26 68q0 44 31 76t76 32q58 0 90.5 -38.5t32.5 -102.5q0 -200 -224 -301zM201 1161l159 21v-267h302v-100h-302v-579q0 -144 115 -144q52 0 88 39.5t66 124.5l73 -29q-69 -245 -268 -245
q-115 0 -174 65t-59 184v584h-187v100h187v246z" />
    <glyph glyph-name="Tcaron" unicode="&#x164;" horiz-adv-x="1372" 
d="M651 1530l-223 371h80l180 -207l180 207h80l-221 -371h-76zM365 0v106h235v1133h-182q-30 0 -52.5 -2.5t-42 -12.5t-33 -20t-27.5 -34t-23.5 -46t-21.5 -65.5t-21.5 -82l-24.5 -104.5h-78v463h1184v-463h-78q-15 67 -24.5 105t-21.5 81.5t-21.5 65t-23.5 46t-27.5 34.5
t-34 20t-42.5 12.5t-53 2.5h-180v-1133h236v-106h-643z" />
    <glyph glyph-name="tcaron" unicode="&#x165;" horiz-adv-x="716" 
d="M575 1090h-65l-6 294q-3 154 86 154q31 0 51.5 -22.5t20.5 -63.5q0 -37 -25 -129zM201 1161l159 21v-267h302v-100h-302v-579q0 -144 115 -144q52 0 88 39.5t66 124.5l73 -29q-69 -245 -268 -245q-115 0 -174 65t-59 184v584h-187v100h187v246z" />
    <glyph glyph-name="Umacron" unicode="&#x16a;" horiz-adv-x="1503" 
d="M748 -33q-247 0 -376.5 118.5t-129.5 317.5v828h-197v104h576v-104h-207v-782q0 -189 96.5 -275t288.5 -86q164 0 260 96q52 52 73 124.5t21 189.5v733h-207v104h514v-104h-188v-809q0 -96 -33.5 -178t-97.5 -144t-165 -97.5t-228 -35.5zM522 1548v127h514v-127h-514z
" />
    <glyph glyph-name="umacron" unicode="&#x16b;" horiz-adv-x="1128" 
d="M434 -16q-116 0 -181 76t-65 216v539h-151v107h309v-574q0 -142 53 -192q36 -41 113 -41q101 0 182.5 93t81.5 204v403h-158v107h318v-816h151v-106h-307v236q-148 -252 -346 -252zM299 1118v127h514v-127h-514z" />
    <glyph glyph-name="Ubreve" unicode="&#x16c;" horiz-adv-x="1503" 
d="M748 -33q-247 0 -376.5 118.5t-129.5 317.5v828h-197v104h576v-104h-207v-782q0 -189 96.5 -275t288.5 -86q164 0 260 96q52 52 73 124.5t21 189.5v733h-207v104h514v-104h-188v-809q0 -96 -33.5 -178t-97.5 -144t-165 -97.5t-228 -35.5zM778 1524q-115 0 -186.5 82
t-77.5 225h64q53 -180 200 -180q79 0 127 45.5t74 134.5h63q-4 -143 -75.5 -225t-188.5 -82z" />
    <glyph glyph-name="ubreve" unicode="&#x16d;" horiz-adv-x="1128" 
d="M434 -16q-116 0 -181 76t-65 216v539h-151v107h309v-574q0 -142 53 -192q36 -41 113 -41q101 0 182.5 93t81.5 204v403h-158v107h318v-816h151v-106h-307v236q-148 -252 -346 -252zM555 1094q-115 0 -186.5 82t-77.5 225h63q53 -180 201 -180q79 0 127 45.5t74 134.5h63
q-4 -143 -75.5 -225t-188.5 -82z" />
    <glyph glyph-name="Uring" unicode="&#x16e;" horiz-adv-x="1503" 
d="M778 1497q-101 0 -158 61t-57 146q0 87 57 147t158 60t158 -60t57 -147q0 -85 -57 -146t-158 -61zM778 1565q56 0 87.5 38.5t31.5 100.5t-31.5 101.5t-87.5 39.5t-87.5 -39.5t-31.5 -101.5t31.5 -100.5t87.5 -38.5zM748 -33q-247 0 -376.5 118.5t-129.5 317.5v828h-197
v104h576v-104h-207v-782q0 -189 96.5 -275t288.5 -86q164 0 260 96q52 52 73 124.5t21 189.5v733h-207v104h514v-104h-188v-809q0 -96 -33.5 -178t-97.5 -144t-165 -97.5t-228 -35.5z" />
    <glyph glyph-name="uring" unicode="&#x16f;" horiz-adv-x="1128" 
d="M555 1067q-101 0 -158 61t-57 146q0 87 57 147t158 60t158 -60t57 -147q0 -85 -57 -146t-158 -61zM555 1135q56 0 87.5 38.5t31.5 100.5t-31.5 101.5t-87.5 39.5t-87.5 -39.5t-31.5 -101.5t31.5 -100.5t87.5 -38.5zM434 -16q-116 0 -181 76t-65 216v539h-151v107h309
v-574q0 -142 53 -192q36 -41 113 -41q101 0 182.5 93t81.5 204v403h-158v107h318v-816h151v-106h-307v236q-148 -252 -346 -252z" />
    <glyph glyph-name="Uhungarumlaut" unicode="&#x170;" horiz-adv-x="1503" 
d="M748 -33q-247 0 -376.5 118.5t-129.5 317.5v828h-197v104h576v-104h-207v-782q0 -189 96.5 -275t288.5 -86q164 0 260 96q52 52 73 124.5t21 189.5v733h-207v104h514v-104h-188v-809q0 -96 -33.5 -178t-97.5 -144t-165 -97.5t-228 -35.5zM889 1509l112 258
q36 80 62.5 112t64.5 32q29 0 49.5 -20.5t20.5 -53.5q0 -28 -20 -62t-70 -94l-141 -172h-78zM594 1509l113 258q34 79 60.5 111.5t63.5 32.5q30 0 51 -20.5t21 -53.5q0 -27 -20 -60.5t-70 -95.5l-141 -172h-78z" />
    <glyph glyph-name="uhungarumlaut" unicode="&#x171;" horiz-adv-x="1128" 
d="M434 -16q-116 0 -181 76t-65 216v539h-151v107h309v-574q0 -142 53 -192q36 -41 113 -41q101 0 182.5 93t81.5 204v403h-158v107h318v-816h151v-106h-307v236q-148 -252 -346 -252zM666 1079l112 258q36 80 62.5 112t64.5 32q29 0 49.5 -20.5t20.5 -53.5q0 -28 -20 -62
t-70 -94l-142 -172h-77zM371 1079l112 258q34 78 61 111t64 33q30 0 51 -20.5t21 -53.5q0 -27 -20 -60.5t-70 -95.5l-141 -172h-78z" />
    <glyph glyph-name="Uogonek" unicode="&#x172;" horiz-adv-x="1503" 
d="M750 -485q-93 0 -147 48t-54 128q0 67 41.5 129t136.5 147q-238 6 -361.5 123.5t-123.5 312.5v828h-197v104h576v-104h-207v-782q0 -189 96.5 -275t288.5 -86q164 0 260 96q52 52 73 124.5t21 189.5v733h-207v104h514v-104h-188v-809q0 -117 -48 -211.5t-148 -158.5
t-240 -79l-2 -4q-87 -90 -120.5 -149t-33.5 -107q0 -51 30 -78.5t76 -27.5q52 0 117 45l39 -58q-89 -79 -192 -79z" />
    <glyph glyph-name="uogonek" unicode="&#x173;" horiz-adv-x="1128" 
d="M434 -16q-116 0 -181 76t-65 216v539h-151v107h309v-574q0 -142 53 -192q36 -41 113 -41q101 0 182.5 93t81.5 204v403h-158v107h318v-816h151v-106h-67l-31 -31q-87 -90 -120 -149t-33 -107q0 -51 30 -78.5t76 -27.5q52 0 117 45l39 -58q-89 -79 -193 -79
q-93 0 -146.5 48t-53.5 128q0 67 43 130.5t141 149.5l33 29h-142v236q-148 -252 -346 -252z" />
    <glyph glyph-name="Wcircumflex" unicode="&#x174;" horiz-adv-x="2015" 
d="M1335 1231h-215l293 -1008h10l326 1008h-180v104h446v-104h-143l-418 -1239h-145l-283 950l-326 -950h-143l-389 1239h-174v104h567v-104h-207l308 -1008h10l299 891l-33 117h-172v104h569v-104zM782 1511l222 371h75l224 -371h-80l-181 209l-180 -209h-80z" />
    <glyph glyph-name="wcircumflex" unicode="&#x175;" horiz-adv-x="1540" 
d="M1030 815h-166l221 -651h7l223 651h-144v107h365v-107h-111l-299 -827h-131l-209 594l-241 -594h-129l-285 827h-127v107h449v-107h-156l211 -651h4l225 561l-30 90h-127v107h450v-107zM537 1081l221 371h76l223 -371h-80l-180 209l-181 -209h-79z" />
    <glyph glyph-name="Ycircumflex" unicode="&#x176;" horiz-adv-x="1304" 
d="M692 672l330 559h-172v104h453v-104h-158l-408 -668v-457h207v-106h-586v106h205v455l-383 670h-168v104h557v-104h-184zM428 1511l221 371h76l223 -371h-80l-180 209l-180 -209h-80z" />
    <glyph glyph-name="ycircumflex" unicode="&#x177;" horiz-adv-x="1001" 
d="M143 -68q46 0 75.5 -30t29.5 -74q0 -40 -19 -70q63 3 115.5 54.5t108.5 189.5l-326 813h-127v107h459v-107h-160l238 -633l245 633h-141v107h369v-107h-113l-317 -778q-83 -207 -172.5 -289t-200.5 -82q-83 0 -130.5 40.5t-47.5 103.5q0 51 32 86.5t82 35.5zM274 1081
l222 371h75l224 -371h-80l-180 209l-181 -209h-80z" />
    <glyph glyph-name="Ydieresis" unicode="&#x178;" horiz-adv-x="1304" 
d="M692 672l330 559h-172v104h453v-104h-158l-408 -668v-457h207v-106h-586v106h205v455l-383 670h-168v104h557v-104h-184zM866 1556q-44 0 -75 32.5t-31 78.5t31 79.5t75 33.5t74.5 -33.5t30.5 -79.5t-30.5 -78.5t-74.5 -32.5zM510 1556q-44 0 -74 32.5t-30 78.5t30 79.5
t74 33.5t75 -33.5t31 -79.5t-31 -78.5t-75 -32.5z" />
    <glyph glyph-name="Zacute" unicode="&#x179;" horiz-adv-x="1247" 
d="M582 1509l102 258q30 78 57.5 111t65.5 33q30 0 52 -21.5t22 -54.5q0 -28 -19 -59.5t-69 -96.5l-134 -170h-77zM80 0v76l854 1155h-512q-34 0 -53.5 -2.5t-40.5 -15.5t-33.5 -33t-28.5 -62.5t-30 -97t-33 -141.5h-82v456h1036v-73l-848 -1156h553q33 0 53 3.5t40.5 18.5
t33 36.5t28 66.5t29 99t33.5 143h80v-473h-1079z" />
    <glyph glyph-name="zacute" unicode="&#x17a;" horiz-adv-x="935" 
d="M442 1079l103 258q30 78 57.5 111t65.5 33q30 0 51.5 -21.5t21.5 -54.5q0 -28 -19 -59.5t-69 -96.5l-133 -170h-78zM72 0v88l600 743h-326q-78 0 -106 -39.5t-62 -191.5h-76v322h766v-88l-604 -744h375q75 0 101.5 44.5t54.5 209.5h77v-344h-800z" />
    <glyph glyph-name="Zdotaccent" unicode="&#x17b;" horiz-adv-x="1247" 
d="M80 0v76l854 1155h-512q-34 0 -53.5 -2.5t-40.5 -15.5t-33.5 -33t-28.5 -62.5t-30 -97t-33 -141.5h-82v456h1036v-73l-848 -1156h553q33 0 53 3.5t40.5 18.5t33 36.5t28 66.5t29 99t33.5 143h80v-473h-1079zM633 1518q-48 0 -79.5 31t-31.5 81q0 46 32 79.5t79 33.5
q45 0 76.5 -32t31.5 -81q0 -47 -31.5 -79.5t-76.5 -32.5z" />
    <glyph glyph-name="zdotaccent" unicode="&#x17c;" horiz-adv-x="935" 
d="M72 0v88l600 743h-326q-78 0 -106 -39.5t-62 -191.5h-76v322h766v-88l-604 -744h375q75 0 101.5 44.5t54.5 209.5h77v-344h-800zM496 1087q-48 0 -79.5 31.5t-31.5 81.5q0 46 32 79.5t79 33.5q45 0 76.5 -32t31.5 -81q0 -47 -32 -80t-76 -33z" />
    <glyph glyph-name="Zcaron" unicode="&#x17d;" horiz-adv-x="1247" 
d="M598 1530l-223 371h80l180 -207l180 207h80l-221 -371h-76zM80 0v76l854 1155h-512q-34 0 -53.5 -2.5t-40.5 -15.5t-33.5 -33t-28.5 -62.5t-30 -97t-33 -141.5h-82v456h1036v-73l-848 -1156h553q33 0 53 3.5t40.5 18.5t33 36.5t28 66.5t29 99t33.5 143h80v-473h-1079z
" />
    <glyph glyph-name="zcaron" unicode="&#x17e;" horiz-adv-x="935" 
d="M461 1100l-223 370h79l181 -206l180 206h80l-221 -370h-76zM72 0v88l600 743h-326q-78 0 -106 -39.5t-62 -191.5h-76v322h766v-88l-604 -744h375q75 0 101.5 44.5t54.5 209.5h77v-344h-800z" />
    <glyph glyph-name="Aringacute" unicode="&#x1fa;" horiz-adv-x="1376" 
d="M629 1821l102 258q30 77 57.5 110t65.5 33q30 0 52 -21.5t22 -54.5q0 -28 -18.5 -58.5t-69.5 -96.5l-133 -170h-78zM690 1391q55 0 88 40t33 99q0 64 -32.5 102.5t-88.5 38.5t-88.5 -38.5t-32.5 -102.5q0 -59 33 -99t88 -40zM862 578l-200 567h-7l-217 -567h424zM403 481
l-143 -375h180v-106h-448v106h143l481 1229q-66 20 -102.5 73.5t-36.5 121.5q0 87 56 147t157 60t157 -60t56 -147q0 -67 -34.5 -120.5t-100.5 -72.5l453 -1231h172v-106h-574v106h211l-133 375h-494z" />
    <glyph glyph-name="aringacute" unicode="&#x1fb;" horiz-adv-x="989" 
d="M358 -14q-124 0 -194 65t-70 174q0 97 64 164q51 51 128 77.5t222 49.5q98 16 121.5 25t23.5 34v91q0 98 -47.5 141t-142.5 43q-111 0 -176 -53q55 -28 55 -95q0 -45 -29 -74.5t-77 -29.5q-49 0 -79 31.5t-30 79.5q0 97 108 162t254 65q324 0 324 -277v-481
q0 -46 14.5 -64t46.5 -18q25 0 44.5 20t37.5 62l62 -35q-36 -80 -80 -116.5t-111 -36.5q-68 0 -111 42t-44 128h-6q-46 -78 -130.5 -126t-177.5 -48zM428 94q84 0 154.5 59.5t70.5 137.5v182q-22 -7 -100 -20q-161 -25 -223 -67t-62 -132q0 -77 40.5 -118.5t119.5 -41.5z
M436 1567l103 258q30 77 57.5 110t65.5 33q30 0 51.5 -21.5t21.5 -54.5q0 -28 -18.5 -58.5t-69.5 -96.5l-133 -170h-78zM496 1067q-101 0 -158 61t-57 146q0 87 57 147t158 60t158 -60t57 -147q0 -85 -57 -146t-158 -61zM496 1135q56 0 87 38.5t31 100.5t-31.5 101.5
t-86.5 39.5q-56 0 -87.5 -39.5t-31.5 -101.5t31.5 -100.5t87.5 -38.5z" />
    <glyph glyph-name="AEacute" unicode="&#x1fc;" horiz-adv-x="1961" 
d="M991 1509l103 258q30 78 57.5 111t65.5 33q30 0 51.5 -21.5t21.5 -54.5q0 -28 -19 -59.5t-69 -96.5l-133 -170h-78zM907 598v633h-14l-365 -633h379zM471 502l-225 -396h188v-106h-483v106h164l651 1125h-211v104h1270v-417h-82l-25 115t-22.5 81.5t-25 59t-31 33.5
t-41.5 20t-56 4h-461v-498h203q33 0 52.5 2t37.5 10.5t27.5 20.5t19 37.5t15.5 55t14 79.5h84v-510h-84q-7 52 -13 83.5t-15.5 57.5t-19 38.5t-28 21t-38 10.5t-52.5 2h-203v-535h457q29 0 49.5 2.5t39.5 11t31.5 18.5t25 32.5t20.5 44.5t18.5 62.5t18.5 79.5l20 102h82
v-459h-1161v106h225v396h-436z" />
    <glyph glyph-name="aeacute" unicode="&#x1fd;" horiz-adv-x="1523" 
d="M1450 453h-637q1 -176 77.5 -269.5t207.5 -93.5q91 0 156 41t104 139h86q-41 -141 -139 -214.5t-242 -73.5q-126 0 -219 59t-139 158q-57 -105 -152.5 -159t-194.5 -54q-124 0 -194 65t-70 174q0 97 64 164q51 51 128 77.5t222 49.5q98 16 121.5 25t23.5 34v91
q0 98 -47.5 141t-142.5 43q-111 0 -176 -53q55 -28 55 -95q0 -45 -29 -74.5t-77 -29.5q-49 0 -79 31.5t-30 79.5q0 97 108 162t254 65q219 0 283 -135q115 137 297 137q96 0 172 -41t121 -110.5t67.5 -154.5t20.5 -179zM1061 850q-102 0 -167.5 -79t-78.5 -230h469
q-11 148 -66.5 228.5t-156.5 80.5zM428 94q84 0 154.5 59.5t70.5 137.5v182q-22 -7 -100 -20q-161 -25 -223 -67t-62 -132q0 -77 40.5 -118.5t119.5 -41.5zM764 1079l102 258q30 78 57.5 111t65.5 33q30 0 52 -21.5t22 -54.5q0 -28 -19 -59.5t-69 -96.5l-133 -170h-78z" />
    <glyph glyph-name="Oslashacute" unicode="&#x1fe;" 
d="M242 -70h-129l172 228q-90 94 -139.5 225t-49.5 285q0 147 51 277.5t136.5 222.5t202 145t243.5 53q209 0 371 -125l114 162h132l-172 -227q88 -94 137 -224t49 -284q0 -148 -50.5 -279t-136 -223t-201.5 -145.5t-243 -53.5q-211 0 -373 125zM729 76q203 0 319.5 158.5
t116.5 433.5q0 234 -90 389l-633 -862q113 -119 287 -119zM293 668q0 -241 90 -394l631 865q-112 118 -285 118q-204 0 -320 -158.5t-116 -430.5zM676 1509l102 258q30 78 57.5 111t65.5 33q30 0 52 -21.5t22 -54.5q0 -28 -19 -59.5t-69 -96.5l-133 -170h-78z" />
    <glyph glyph-name="oslashacute" unicode="&#x1ff;" horiz-adv-x="1048" 
d="M182 -55h-106l127 166q-123 129 -123 342t126.5 349t317.5 136q146 0 258 -76l84 113h107l-129 -166q125 -135 125 -342q0 -213 -127 -349t-318 -136q-148 0 -258 75zM252 459q0 -138 43 -232l410 537q-72 84 -189 84q-119 0 -191.5 -98.5t-72.5 -290.5zM532 72
q119 0 191 98.5t72 290.5q0 139 -45 231l-406 -538q73 -82 188 -82zM471 1079l102 258q30 78 57.5 111t65.5 33q30 0 52 -21.5t22 -54.5q0 -28 -19 -59.5t-69 -96.5l-133 -170h-78z" />
    <glyph glyph-name="Scommaaccent" unicode="&#x218;" horiz-adv-x="1171" 
d="M487 -600l-30 59q150 73 166 189l-7 4q-21 -14 -49 -14q-34 0 -60 28t-26 68q0 44 31 76t76 32q58 0 90.5 -38.5t32.5 -102.5q0 -200 -224 -301zM113 -27v465h92q97 -199 202 -285.5t252 -86.5q122 0 194.5 64t72.5 181q0 53 -19 94t-46.5 67.5t-80.5 50.5t-97.5 38
t-121.5 35l-81 22.5t-76.5 25t-73.5 31.5t-64 38t-56 49t-41.5 59.5t-28.5 74t-9 89.5q0 162 113 271.5t297 109.5q99 0 191 -39.5t151 -107.5l41 141h100v-440h-92q-140 350 -402 350q-105 0 -172 -62.5t-67 -171.5q0 -54 20.5 -96t44.5 -67t80 -49.5t89.5 -34.5t110.5 -31
q5 -1 7 -2l69 -18t65.5 -19t63.5 -22t57 -25t53 -30.5t44.5 -36t38 -44t27.5 -51.5t18.5 -62t5.5 -73q0 -175 -121.5 -291.5t-308.5 -116.5q-241 0 -397 166l-45 -160h-100z" />
    <glyph glyph-name="scommaaccent" unicode="&#x219;" horiz-adv-x="886" 
d="M346 -600l-31 59q150 73 166 189l-6 4q-21 -14 -49 -14q-34 0 -60 28t-26 68q0 44 30.5 76t75.5 32q58 0 90.5 -38.5t32.5 -102.5q0 -201 -223 -301zM92 -18v348h94q37 -123 117.5 -193.5t188.5 -70.5q85 0 132.5 39t47.5 104q0 68 -54.5 106.5t-195.5 77.5
q-170 48 -241.5 111t-71.5 168q0 109 87 187.5t222 78.5q79 0 141.5 -28.5t97.5 -82.5l23 111h90v-315h-90q-51 121 -109 176t-155 55q-68 0 -116 -36t-48 -97q0 -63 56 -103.5t186 -76.5q175 -47 246 -107t71 -172q0 -111 -88.5 -195.5t-230.5 -84.5q-186 0 -287 129
l-23 -129h-90z" />
    <glyph glyph-name="schwa" unicode="&#x259;" horiz-adv-x="974" 
d="M457 -2q-78 0 -143 27t-109 73.5t-74.5 108.5t-43.5 132t-11 144h647q-4 175 -83 269t-212 94q-190 0 -262 -180h-86q41 141 140 214.5t243 73.5q198 0 315 -130t117 -339t-126 -348t-312 -139zM467 86q102 0 169.5 79.5t82.5 229.5h-479q11 -149 67.5 -229t159.5 -80z
" />
    <glyph glyph-name="circumflex" unicode="&#x2c6;" horiz-adv-x="612" 
d="M47 1081l221 371h76l223 -371h-80l-180 209l-180 -209h-80z" />
    <glyph glyph-name="caron" unicode="&#x2c7;" horiz-adv-x="612" 
d="M270 1100l-223 370h80l180 -206l180 206h80l-221 -370h-76z" />
    <glyph glyph-name="breve" unicode="&#x2d8;" horiz-adv-x="688" 
d="M344 1094q-115 0 -186.5 82t-77.5 225h63q53 -180 201 -180q79 0 127 45.5t74 134.5h63q-4 -143 -75.5 -225t-188.5 -82z" />
    <glyph glyph-name="dotaccent" unicode="&#x2d9;" horiz-adv-x="393" 
d="M197 1087q-48 0 -79.5 31.5t-31.5 81.5q0 46 32 79.5t79 33.5q45 0 76.5 -32t31.5 -81q0 -47 -32 -80t-76 -33z" />
    <glyph glyph-name="ring" unicode="&#x2da;" horiz-adv-x="528" 
d="M264 1067q-101 0 -158 61t-57 146q0 87 57 147t158 60t158 -60t57 -147q0 -85 -57 -146t-158 -61zM264 1135q56 0 87.5 38.5t31.5 100.5t-31.5 101.5t-87.5 39.5t-87.5 -39.5t-31.5 -101.5t31.5 -100.5t87.5 -38.5z" />
    <glyph glyph-name="ogonek" unicode="&#x2db;" horiz-adv-x="550" 
d="M221 -485q-93 0 -147 48t-54 128q0 67 43 130.5t142 149.5l65 58h95l-60 -60q-87 -90 -120 -149t-33 -107q0 -51 30 -78.5t76 -27.5q52 0 117 45l39 -58q-89 -79 -193 -79z" />
    <glyph glyph-name="tilde" unicode="&#x2dc;" horiz-adv-x="677" 
d="M39 1092q18 137 60.5 193t121.5 56q45 0 95 -29t93 -58t70 -29q35 0 54 32t30 97h76q-19 -138 -61 -195t-121 -57q-36 0 -75.5 18.5t-68 41t-60.5 41t-54 18.5q-35 0 -54 -32t-30 -97h-76z" />
    <glyph glyph-name="hungarumlaut" unicode="&#x2dd;" horiz-adv-x="589" 
d="M285 1079l112 258q36 80 62.5 112t64.5 32q29 0 49.5 -20.5t20.5 -53.5q0 -28 -20 -62t-70 -94l-142 -172h-77zM-10 1079l112 258q34 78 61 111t64 33q30 0 51 -20.5t21 -53.5q0 -27 -20 -60.5t-70 -95.5l-141 -172h-78z" />
    <glyph glyph-name="commaaccent" unicode="&#x326;" horiz-adv-x="460" 
d="M104 -600l-30 59q150 73 166 189l-7 4q-21 -14 -49 -14q-34 0 -60 28t-26 68q0 44 31 76t76 32q58 0 90.5 -38.5t32.5 -102.5q0 -200 -224 -301z" />
    <glyph glyph-name="Wgrave" unicode="&#x1e80;" horiz-adv-x="2015" 
d="M1335 1231h-215l293 -1008h10l326 1008h-180v104h446v-104h-143l-418 -1239h-145l-283 950l-326 -950h-143l-389 1239h-174v104h567v-104h-207l308 -1008h10l299 891l-33 117h-172v104h569v-104zM1110 1509h-78l-133 170q-50 65 -69 96.5t-19 59.5q0 33 22 54.5t52 21.5
q37 0 65 -33.5t58 -110.5z" />
    <glyph glyph-name="wgrave" unicode="&#x1e81;" horiz-adv-x="1540" 
d="M1030 815h-166l221 -651h7l223 651h-144v107h365v-107h-111l-299 -827h-131l-209 594l-241 -594h-129l-285 827h-127v107h449v-107h-156l211 -651h4l225 561l-30 90h-127v107h450v-107zM864 1079h-78l-133 170q-50 65 -69 96.5t-19 59.5q0 33 22 54.5t52 21.5
q37 0 65 -33.5t58 -110.5z" />
    <glyph glyph-name="Wacute" unicode="&#x1e82;" horiz-adv-x="2015" 
d="M1335 1231h-215l293 -1008h10l326 1008h-180v104h446v-104h-143l-418 -1239h-145l-283 950l-326 -950h-143l-389 1239h-174v104h567v-104h-207l308 -1008h10l299 891l-33 117h-172v104h569v-104zM991 1509l103 258q30 78 57.5 111t65.5 33q30 0 51.5 -21.5t21.5 -54.5
q0 -28 -19 -59.5t-69 -96.5l-133 -170h-78z" />
    <glyph glyph-name="wacute" unicode="&#x1e83;" horiz-adv-x="1540" 
d="M1030 815h-166l221 -651h7l223 651h-144v107h365v-107h-111l-299 -827h-131l-209 594l-241 -594h-129l-285 827h-127v107h449v-107h-156l211 -651h4l225 561l-30 90h-127v107h450v-107zM745 1079l103 258q30 78 57.5 111t65.5 33q30 0 51.5 -21.5t21.5 -54.5
q0 -28 -19 -59.5t-69 -96.5l-133 -170h-78z" />
    <glyph glyph-name="Wdieresis" unicode="&#x1e84;" horiz-adv-x="2015" 
d="M1335 1231h-215l293 -1008h10l326 1008h-180v104h446v-104h-143l-418 -1239h-145l-283 950l-326 -950h-143l-389 1239h-174v104h567v-104h-207l308 -1008h10l299 891l-33 117h-172v104h569v-104zM864 1556q-44 0 -74 32.5t-30 78.5t30 79.5t74 33.5t75.5 -33.5
t31.5 -79.5t-31.5 -78.5t-75.5 -32.5zM1221 1556q-44 0 -75.5 32.5t-31.5 78.5t31.5 79.5t75.5 33.5t74 -33.5t30 -79.5t-30 -78.5t-74 -32.5z" />
    <glyph glyph-name="wdieresis" unicode="&#x1e85;" horiz-adv-x="1540" 
d="M1030 815h-166l221 -651h7l223 651h-144v107h365v-107h-111l-299 -827h-131l-209 594l-241 -594h-129l-285 827h-127v107h449v-107h-156l211 -651h4l225 561l-30 90h-127v107h450v-107zM618 1126q-44 0 -74 32.5t-30 78.5t30 79.5t74 33.5t75.5 -33.5t31.5 -79.5
t-31.5 -78.5t-75.5 -32.5zM975 1126q-44 0 -75.5 32.5t-31.5 78.5t31.5 79.5t75.5 33.5t74 -33.5t30 -79.5t-30 -78.5t-74 -32.5z" />
    <glyph glyph-name="Ygrave" unicode="&#x1ef2;" horiz-adv-x="1304" 
d="M692 672l330 559h-172v104h453v-104h-158l-408 -668v-457h207v-106h-586v106h205v455l-383 670h-168v104h557v-104h-184zM758 1509h-78l-133 170q-50 65 -69 96.5t-19 59.5q0 33 21.5 54.5t51.5 21.5q37 0 65 -33.5t58 -110.5z" />
    <glyph glyph-name="ygrave" unicode="&#x1ef3;" horiz-adv-x="1001" 
d="M143 -68q46 0 75.5 -30t29.5 -74q0 -40 -19 -70q63 3 115.5 54.5t108.5 189.5l-326 813h-127v107h459v-107h-160l238 -633l245 633h-141v107h369v-107h-113l-317 -778q-83 -207 -172.5 -289t-200.5 -82q-83 0 -130.5 40.5t-47.5 103.5q0 51 32 86.5t82 35.5zM604 1079
h-78l-133 170q-50 65 -69 96.5t-19 59.5q0 33 22 54.5t52 21.5q37 0 65 -33.5t58 -110.5z" />
    <glyph glyph-name="enspace" unicode="&#x2002;" horiz-adv-x="1024" 
 />
    <glyph glyph-name="emspace" unicode="&#x2003;" horiz-adv-x="2048" 
 />
    <glyph glyph-name="threeperemspace" unicode="&#x2004;" horiz-adv-x="681" 
 />
    <glyph glyph-name="fourperemspace" unicode="&#x2005;" horiz-adv-x="512" 
 />
    <glyph glyph-name="thinspace" unicode="&#x2009;" horiz-adv-x="272" 
 />
    <glyph glyph-name="hairspace" unicode="&#x200a;" horiz-adv-x="153" 
 />
    <glyph glyph-name="endash" unicode="&#x2013;" horiz-adv-x="1105" 
d="M113 432v117h880v-117h-880z" />
    <glyph glyph-name="emdash" unicode="&#x2014;" horiz-adv-x="1617" 
d="M113 432v117h1392v-117h-1392z" />
    <glyph glyph-name="quoteleft" unicode="&#x2018;" horiz-adv-x="438" 
d="M227 887q-59 0 -94 41.5t-35 107.5q0 107 65 189.5t212 148.5l33 -61q-107 -51 -157 -103t-61 -116l9 -7q21 15 47 15q38 0 65 -29t27 -72q0 -47 -31.5 -80.5t-79.5 -33.5z" />
    <glyph glyph-name="quoteright" unicode="&#x2019;" horiz-adv-x="438" 
d="M66 879l-31 61q106 51 156 104t61 117l-8 4q-21 -12 -47 -12q-39 0 -66 29t-27 71q0 46 31.5 79.5t79.5 33.5q59 0 94 -41t35 -108q0 -107 -65.5 -189.5t-212.5 -148.5z" />
    <glyph glyph-name="quotesinglbase" unicode="&#x201a;" horiz-adv-x="438" 
d="M66 -287l-31 62q106 51 156 104t61 117l-8 4q-21 -12 -47 -12q-39 0 -66 29t-27 71q0 46 31.5 79.5t79.5 33.5q59 0 94 -41.5t35 -108.5q0 -107 -65.5 -189.5t-212.5 -148.5z" />
    <glyph glyph-name="quotedblleft" unicode="&#x201c;" horiz-adv-x="796" 
d="M588 887q-59 0 -94 41.5t-35 107.5q0 108 65 190t213 148l31 -61q-107 -51 -156.5 -103t-60.5 -116l8 -7q21 15 47 15q38 0 65 -29t27 -72q0 -47 -31 -80.5t-79 -33.5zM227 887q-60 0 -94.5 41.5t-34.5 107.5q0 107 65 189.5t212 148.5l33 -61q-107 -51 -158 -103.5
t-62 -115.5l9 -7q24 15 47 15q38 0 65 -29t27 -72q0 -47 -31.5 -80.5t-77.5 -33.5z" />
    <glyph glyph-name="quotedblright" unicode="&#x201d;" horiz-adv-x="796" 
d="M428 879l-33 61q107 51 157.5 104t61.5 117l-8 4q-24 -12 -47 -12q-39 0 -66.5 29t-27.5 71q0 45 32 79t78 34q61 0 95.5 -41t34.5 -108q0 -107 -65 -189.5t-212 -148.5zM66 879l-31 61q106 51 156 104t61 117l-8 4q-21 -12 -47 -12q-39 0 -66 29t-27 71q0 46 31.5 79.5
t79.5 33.5q59 0 94 -41t35 -108q0 -107 -65.5 -189.5t-212.5 -148.5z" />
    <glyph glyph-name="quotedblbase" unicode="&#x201e;" horiz-adv-x="796" 
d="M428 -287l-33 62q107 51 157.5 104t61.5 117l-8 4q-24 -12 -47 -12q-39 0 -66.5 29t-27.5 71q0 45 32 79t78 34q60 0 95 -41.5t35 -108.5q0 -107 -65 -189.5t-212 -148.5zM66 -287l-31 62q106 51 156 104t61 117l-8 4q-21 -12 -47 -12q-39 0 -66 29t-27 71
q0 46 31.5 79.5t79.5 33.5q59 0 94 -41.5t35 -108.5q0 -107 -65.5 -189.5t-212.5 -148.5z" />
    <glyph glyph-name="dagger" unicode="&#x2020;" horiz-adv-x="1060" 
d="M496 870q-62 26 -124 43t-87 17q-19 0 -25 -2q14 -23 14 -56q0 -42 -25.5 -69t-64.5 -27q-40 0 -69 26t-29 70q0 53 43.5 94.5t130.5 41.5q83 0 236 -62l-58 365l17 43q15 39 31 59.5t44 20.5t44.5 -21t31.5 -59l17 -43l-60 -387q62 -26 125 -43t88 -17q19 0 25 2
q-15 25 -15 56q0 41 25.5 68.5t65.5 27.5t69 -26t29 -70q0 -53 -43.5 -94.5t-130.5 -41.5q-81 0 -234 62l35 -551v-313q0 -46 -14.5 -92.5t-31 -72.5t-26.5 -26q-8 0 -20 16t-24 41.5t-20.5 62t-8.5 71.5v313z" />
    <glyph glyph-name="daggerdbl" unicode="&#x2021;" horiz-adv-x="1060" 
d="M496 946l-58 365l17 43q15 39 31 59.5t44 20.5t44.5 -21t31.5 -59l17 -43l-60 -387q62 -26 125 -43t88 -17q19 0 25 2q-15 25 -15 56q0 41 25.5 68.5t65.5 27.5t69 -26t29 -70q0 -53 -43.5 -94.5t-130.5 -41.5q-81 0 -234 62l35 -256l-35 -238q60 -26 121.5 -42.5
t87.5 -16.5q19 0 25 2q-15 30 -15 57q0 40 26 68.5t65 28.5q40 0 69 -27.5t29 -71.5q0 -52 -43.5 -92.5t-130.5 -40.5q-83 0 -236 62l58 -365l-17 -45q-15 -37 -31.5 -57.5t-44.5 -20.5t-44 20t-31 58l-17 45l60 385q-61 27 -124 44t-89 17q-19 0 -25 -2q14 -28 14 -57
q0 -40 -25.5 -68t-64.5 -28q-40 0 -69 27t-29 71q0 52 43.5 92.5t130.5 40.5q88 0 234 -59l-35 256l35 237q-63 25 -123.5 41.5t-85.5 16.5q-19 0 -25 -2q14 -23 14 -56q0 -42 -25.5 -69t-64.5 -27q-40 0 -69 26t-29 70q0 53 43.5 94.5t130.5 41.5q83 0 236 -62z" />
    <glyph glyph-name="bullet" unicode="&#x2022;" horiz-adv-x="942" 
d="M471 395q-103 0 -175.5 73t-72.5 177t72.5 178t175.5 74t175.5 -74t72.5 -178t-72.5 -177t-175.5 -73z" />
    <glyph glyph-name="ellipsis" unicode="&#x2026;" horiz-adv-x="1296" 
d="M1077 -31q-49 0 -82.5 33.5t-33.5 81.5q0 50 33.5 83.5t82.5 33.5t83 -33.5t34 -83.5q0 -48 -34 -81.5t-83 -33.5zM649 -31q-49 0 -84 34t-35 81q0 49 34.5 83t84.5 34q48 0 81.5 -34t33.5 -83q0 -47 -34 -81t-81 -34zM219 -31q-49 0 -83 33.5t-34 81.5q0 50 34 83.5
t83 33.5t83 -33.5t34 -83.5q0 -48 -34 -81.5t-83 -33.5z" />
    <glyph glyph-name="guilsinglleft" unicode="&#x2039;" horiz-adv-x="610" 
d="M254 461l256 -355l-59 -40l-308 311q-55 55 -55 82t55 82l308 311l59 -41z" />
    <glyph glyph-name="guilsinglright" unicode="&#x203a;" horiz-adv-x="610" 
d="M356 457l-256 354l60 41l307 -311q55 -55 55 -82t-55 -82l-307 -311l-60 40z" />
    <glyph glyph-name="Euro" unicode="&#x20ac;" horiz-adv-x="1316" 
d="M78 719v96h192q52 220 205 361t354 141q168 0 284 -84.5t116 -194.5q0 -56 -34.5 -98.5t-92.5 -42.5t-90.5 33t-32.5 88q0 71 61 112q-29 41 -87.5 62.5t-121.5 21.5q-48 0 -93.5 -11.5t-93 -40.5t-86 -73t-69 -114.5t-45.5 -159.5h406v-96h-418q-2 -29 -2 -90
q0 -55 2 -82h418v-96h-404q34 -169 131 -262t238 -93q135 0 222 86.5t106 231.5h96q-5 -87 -38 -166.5t-89.5 -142.5t-142 -100.5t-187.5 -37.5q-208 0 -343 135t-175 349h-186v96h172q-2 25 -2 78q0 32 4 94h-174z" />
    <glyph glyph-name="published" unicode="&#x2117;" horiz-adv-x="1611" 
d="M805 -66q-152 0 -288 57.5t-234 155.5t-155.5 236t-57.5 293q0 153 57.5 290t155.5 235t234 155t288 57q204 0 373 -97t266.5 -266t97.5 -374q0 -155 -57.5 -293t-155.5 -236t-234.5 -155.5t-289.5 -57.5zM805 4q183 0 334 89t237 243t86 340q0 184 -86 337t-237.5 241.5
t-333.5 88.5q-181 0 -331.5 -88.5t-237 -241.5t-86.5 -337q0 -139 51 -263.5t138.5 -214t209 -142t256.5 -52.5zM506 309v66h123v612h-123v68h344q159 0 229 -60.5t70 -156.5q0 -99 -74.5 -164.5t-220.5 -65.5h-113v-233h136v-66h-371zM741 672h101q184 0 184 166
q0 151 -182 151h-103v-317z" />
    <glyph glyph-name="servicemark" unicode="&#x2120;" horiz-adv-x="1591" 
d="M104 723v213h56q43 -84 91 -121t114 -37q54 0 84 26t30 77q0 22 -9 38.5t-20 27t-36 20t-43 14.5t-54 14q-37 10 -61 17.5t-54 23t-47.5 33t-29.5 45.5t-12 64q0 74 54.5 125t141.5 51q92 0 150 -68l20 64h56v-203h-54q-34 80 -76.5 114.5t-97.5 34.5q-46 0 -76 -24.5
t-30 -71.5q0 -23 9 -40.5t20.5 -28t35.5 -20t40.5 -14t49.5 -12.5q41 -10 66 -17.5t55.5 -21.5t47 -31t28.5 -44.5t12 -63.5q0 -80 -57 -133t-146 -53q-110 0 -178 74l-20 -72h-60zM659 733v60h91v485h-91v59l261 -2l159 -463h8l166 463h252v-57h-92v-485h92v-60h-268v60h72
v460h-19l-192 -520h-70l-188 520h-21v-460h78v-60h-238z" />
    <glyph glyph-name="trademark" unicode="&#x2122;" horiz-adv-x="1677" 
d="M748 733v60h90v485h-90v57h260l159 -463h7l167 463h252v-57h-92v-485h92v-60h-270v60h74v460h-19l-192 -520h-72l-186 520h-21v-460h76v-60h-235zM207 733v60h117v487h-68q-53 0 -71 -28t-46 -140h-47v223h567v-223h-47q-24 109 -43 138.5t-71 29.5h-68v-487h115v-60
h-338z" />
    <glyph glyph-name="minus" unicode="&#x2212;" horiz-adv-x="1069" 
d="M913 514h-757v111h757v-111z" />
    <glyph glyph-name="registered.alt" horiz-adv-x="1611" 
d="M805 -66q-152 0 -288 57.5t-234 155.5t-155.5 236t-57.5 293q0 153 57.5 290t155.5 235t234 155t288 57q204 0 373 -97t266.5 -266t97.5 -374q0 -155 -57.5 -293t-155.5 -236t-234.5 -155.5t-289.5 -57.5zM805 4q183 0 334 89t237 243t86 340q0 184 -86 337t-237.5 241.5
t-333.5 88.5q-181 0 -331.5 -88.5t-237 -241.5t-86.5 -337q0 -139 51 -263.5t138.5 -214t209 -142t256.5 -52.5zM694 641v-266h125v-66h-360v66h125v612h-125v68h379q138 0 206 -54.5t68 -140.5q0 -66 -46 -117t-142 -67v-4q80 -18 114 -57t39 -107l8 -86q3 -51 39 -51
q33 0 54 51l43 -19q-37 -108 -131 -108q-122 0 -125 139l-2 86q-2 65 -31 93t-107 28h-131zM694 702h127q168 0 168 154q0 131 -153 131h-142v-285z" />
    <glyph glyph-name="zero.osf" horiz-adv-x="1142" 
d="M573 -33q-146 0 -258.5 81.5t-170.5 214t-58 292.5t60 295t172 217t253 82q110 0 203 -47.5t154.5 -128t96 -187t34.5 -225.5q0 -159 -60.5 -294t-173 -217.5t-252.5 -82.5zM580 68q144 0 218 133t74 356q0 144 -34.5 254t-105 174t-167.5 64q-144 0 -219.5 -134
t-75.5 -356q0 -219 82 -355t228 -136z" />
    <glyph glyph-name="one.osf" horiz-adv-x="897" 
d="M115 0v106h286v791q-62 -33 -170 -33q-69 0 -122 17v86q119 -2 213.5 42t138.5 124h108v-1027h277v-106h-731z" />
    <glyph glyph-name="two.osf" horiz-adv-x="1085" 
d="M936 825q0 -127 -85.5 -212.5t-275.5 -157.5q-144 -52 -230.5 -124t-113.5 -145l5 -6q73 45 170 45q59 0 120 -25t115.5 -50t95.5 -25q68 0 107.5 54t73.5 190l79 -7q-19 -204 -95 -299.5t-187 -95.5q-54 0 -109.5 26t-93.5 57t-85.5 57t-88.5 26q-16 0 -51 -10
q16 -26 16 -60q0 -41 -25 -68.5t-67 -27.5q-52 0 -82.5 39t-30.5 96q0 114 98 221t289 197q156 74 215.5 139.5t59.5 171.5q0 99 -63.5 159.5t-174.5 60.5q-87 0 -150 -33.5t-96 -83.5q43 -12 69 -43t26 -74q0 -51 -33 -85t-86 -34t-88 40.5t-35 99.5q0 119 118.5 215
t291.5 96q96 0 173 -26.5t125 -72t73.5 -103t25.5 -122.5z" />
    <glyph glyph-name="three.osf" horiz-adv-x="1046" 
d="M494 -176q-174 0 -295 82.5t-121 199.5q0 57 35.5 96.5t89.5 39.5q53 0 84.5 -35.5t31.5 -83.5q0 -74 -63 -115q82 -86 238 -86q125 0 196.5 73.5t71.5 190.5q0 271 -340 271h-47v100h37q327 0 327 262q0 108 -63 170t-176 62q-156 0 -236 -101q39 -14 63.5 -45t24.5 -69
q0 -49 -30 -84t-84 -35t-89.5 37.5t-35.5 97.5q0 118 113.5 207.5t289.5 89.5q183 0 293.5 -94t110.5 -226q0 -120 -84 -202.5t-242 -116.5v-4q169 -20 258.5 -99.5t89.5 -203.5q0 -161 -122.5 -270t-325.5 -109z" />
    <glyph glyph-name="four.osf" horiz-adv-x="1132" 
d="M659 336v620h-6l-463 -620h469zM821 -51h172v-103h-510v103h174v278h-600v109l602 803h162v-803h269v-109h-269v-278z" />
    <glyph glyph-name="five.osf" horiz-adv-x="1034" 
d="M317 958l-26 -389q113 88 268 88q181 0 286 -109t105 -276q0 -66 -17.5 -130t-54 -121.5t-88.5 -101t-127 -69.5t-163 -26q-104 0 -197.5 39t-151 107.5t-57.5 148.5q0 62 37 104.5t92 42.5q53 0 82 -33t29 -79q0 -41 -23.5 -74t-60.5 -49q35 -45 99 -77t145 -32
q133 0 206.5 90.5t73.5 243.5q0 149 -65 225t-185 76q-81 0 -144 -31t-124 -88l-82 25l45 655l25 21q181 -74 354 -74q161 0 289 72l26 -58q-120 -174 -333 -174q-129 0 -263 53z" />
    <glyph glyph-name="six.osf" horiz-adv-x="1075" 
d="M272 604q125 187 328 187q181 0 284 -108t103 -275q0 -69 -17.5 -133t-53 -120t-86.5 -98t-122 -66t-155 -24q-210 0 -332.5 164t-122.5 428q0 202 71.5 370t198 265.5t281.5 97.5q146 0 230 -66.5t84 -160.5q0 -64 -34 -103.5t-91 -39.5q-55 0 -85 30.5t-30 77.5
q0 37 22 67.5t62 43.5q-59 53 -160 53q-159 0 -265 -161t-110 -429zM285 381q0 -128 78 -220.5t198 -92.5t185 89t65 240q0 123 -64.5 207t-185.5 84q-120 0 -198 -87t-78 -220z" />
    <glyph glyph-name="seven.osf" horiz-adv-x="1017" 
d="M326 -78q0 97 46 242t140.5 314.5t212.5 297.5q123 130 139 168l-6 6q-107 -61 -196 -61q-59 0 -114 21.5t-101.5 43t-84.5 21.5q-46 0 -76 -26t-52 -95t-33 -190h-101v462h109l8 -165h6q29 90 75.5 133t115.5 43q42 0 80 -17t66.5 -41.5l55 -49t59 -41.5t66.5 -17
q39 0 80 20q-24 27 -24 72q0 38 26.5 66t65.5 28q49 0 76.5 -31.5t27.5 -78.5q0 -57 -34.5 -113.5t-124.5 -159.5q-146 -164 -216.5 -352t-93.5 -475q-5 -63 -28.5 -93t-71.5 -30q-43 0 -70.5 25t-27.5 73z" />
    <glyph glyph-name="eight.osf" horiz-adv-x="1073" 
d="M135 934q0 150 114.5 254t301.5 104q174 0 281.5 -93.5t107.5 -223.5q0 -216 -225 -307q268 -100 268 -314q0 -162 -129.5 -274.5t-325.5 -112.5q-194 0 -314 99t-120 241q0 97 59 183t189 139q-108 50 -157.5 125t-49.5 180zM451 588q-7 0 -15 4q-186 -79 -186 -266
q0 -112 80 -186t215 -74q122 0 200 71t78 170q0 100 -81.5 159.5t-290.5 121.5zM295 973q0 -104 74 -165t247 -108q95 43 139 112t44 151q0 98 -69.5 164.5t-186.5 66.5q-115 0 -181.5 -64.5t-66.5 -156.5z" />
    <glyph glyph-name="nine.osf" horiz-adv-x="1075" 
d="M803 500q-52 -89 -135.5 -138t-190.5 -49q-177 0 -283 109t-106 278q0 118 53.5 219.5t157.5 165.5t236 64q109 0 194 -45t139 -125.5t81.5 -189.5t27.5 -240q0 -199 -63.5 -362.5t-186.5 -263t-283 -99.5q-156 0 -248 70t-92 169q0 64 36 107t91 43q53 0 83 -32.5
t30 -80.5q0 -36 -21.5 -66.5t-58.5 -45.5q66 -66 180 -66q168 0 259 152t100 426zM791 735q0 131 -70 222.5t-186 91.5q-125 0 -198 -95.5t-73 -238.5q0 -132 64.5 -216.5t187.5 -84.5q124 0 199.5 87.5t75.5 233.5z" />
    <glyph glyph-name="dollar.osf" horiz-adv-x="1067" 
d="M594 -174h-96v162q-177 9 -293.5 87.5t-116.5 178.5q0 54 34.5 92.5t88.5 38.5q50 0 81.5 -34.5t31.5 -80.5q0 -68 -64 -108q29 -31 92.5 -55.5t145.5 -30.5v418q-92 26 -152 50.5t-112 60.5t-76.5 85t-24.5 115q0 126 98 218t267 110v141h96v-139q154 -6 260.5 -82.5
t106.5 -173.5q0 -53 -32 -87t-79 -34q-48 0 -78.5 30t-30.5 72q0 34 18 61.5t46 41.5q-28 32 -82.5 56t-128.5 28v-400q198 -57 284.5 -129.5t86.5 -193.5q0 -124 -96.5 -223.5t-274.5 -112.5v-162zM823 272q0 66 -51.5 111t-177.5 84v-391q105 9 167 64t62 132zM283 858
q0 -67 46.5 -107.5t168.5 -76.5v370q-104 -13 -159.5 -66t-55.5 -120z" />
    <glyph glyph-name="sterling.osf" horiz-adv-x="1177" 
d="M891 498h-330q2 -8 2 -23q0 -99 -57 -192q64 -20 137 -60t127.5 -67t95.5 -27q62 0 96.5 47.5t55.5 169.5l82 -6q-10 -197 -70 -284t-184 -87q-52 0 -108 22.5t-97 50.5l-97 66t-95 58q-83 -199 -238 -199q-68 0 -113 37.5t-45 101.5q0 80 75.5 141.5t215.5 61.5
q36 0 74 -6q12 44 12 86q0 45 -33 109h-291v102h226q-51 83 -51 174q0 164 123 269.5t307 105.5q85 0 155 -22t113 -59t66.5 -81.5t23.5 -91.5q0 -59 -35.5 -99t-89.5 -40q-52 0 -86.5 32t-34.5 82q0 34 20 63t48 42q-20 33 -69 54.5t-120 21.5q-115 0 -187.5 -58
t-72.5 -147q0 -34 10 -70t20.5 -58.5t31 -61.5t28.5 -56h359v-102zM223 59q82 0 135 138q-38 12 -73 12q-63 0 -94 -26t-31 -62q0 -29 18.5 -45.5t44.5 -16.5z" />
    <glyph glyph-name="Euro.osf" horiz-adv-x="1300" 
d="M74 625v96h196q55 189 206.5 308.5t348.5 119.5q167 0 283.5 -82t116.5 -188q0 -57 -34 -98.5t-93 -41.5q-56 0 -89.5 32.5t-33.5 84.5q0 34 16.5 63t44.5 44q-29 41 -88 62.5t-123 21.5q-60 0 -116.5 -16.5t-110.5 -52.5t-95.5 -102t-60.5 -155h400v-96h-414
q-2 -20 -2 -66q0 -57 4 -82h412v-96h-396q37 -138 129.5 -211.5t227.5 -73.5q139 0 226 83t108 224h98q-6 -84 -39 -161.5t-89 -139t-141.5 -98.5t-187.5 -37q-208 0 -342 115t-176 299h-186v96h172q-2 18 -2 55q0 46 6 93h-176z" />
    <glyph glyph-name="yen.osf" horiz-adv-x="1325" 
d="M201 629h256l-238 385h-162v102h531v-102h-178l282 -467l301 467h-164v102h441v-102h-150l-254 -385h250v-97h-313l-62 -94v-51h375v-96h-375v-185h236v-106h-637v106h240v185h-379v96h379v45l-64 100h-315v97z" />
    <glyph glyph-name="hfjslug" horiz-adv-x="1421" 
d="M1319 -410h-426l-16 29h-334l-17 -29h-424v621q28 0 47 18.5t19 46.5q0 27 -19.5 46.5t-46.5 19.5v1135h205l62 161h684l59 -161h207v-1887zM819 1153v-352h31v160h78v28h-78v135h88v29h-119zM377 1153v-352h31v162h96v-162h31v352h-31v-162h-96v162h-31zM942 807
q20 -8 43 -8q64 0 64 73v281h-33v-281q0 -45 -33 -45q-13 0 -41 11v-31zM760 952l-27 6q-9 -39 -16 -61h-2l-33 64q47 44 47 86q0 28 -14 45.5t-41 17.5q-26 0 -42 -18t-16 -45q0 -9 1 -16.5t4.5 -16.5t6 -13.5l9 -16.5t8.5 -17q-47 -38 -47 -97q0 -34 16.5 -54.5
t42.5 -20.5q41 0 60 49h2l24 -49l25 12l-35 65q16 40 27 80zM1071 662v-95h16v25l17 16l31 -41h20l-41 54l37 41h-21l-40 -50h-3v50h-16zM999 598l21 -31h18l-24 35q20 8 20 29q0 13 -10 22t-25 9h-41v-95h17v31h24zM872 565q22 0 36 14.5t14 34.5q0 19 -14.5 34.5
t-35.5 15.5t-35 -15t-14 -35q0 -21 14 -35t35 -14zM758 616l-27 46h-18l37 -60v-35h16v35l37 60h-19zM395 662v-95h70v15h-53v26h47v15h-47v24h53v15h-70zM270 662v-95h17v66l51 -66h14v95h-16v-66l-51 66h-15zM494 662l28 -97h17l22 70h2l23 -70h16l29 97h-17l-20 -72h-2
l-23 72h-14l-23 -72h-2l-20 72h-16zM670 981q-25 48 -25 66q0 17 8.5 27.5t20.5 10.5q26 0 26 -38q0 -31 -30 -66zM700 866q-16 -43 -41 -43q-14 0 -23 14t-9 37q0 40 32 72zM997 612h-22v35h22q21 0 21 -16q0 -8 -6 -13.5t-15 -5.5zM872 580q-14 0 -23 10t-9 24q0 13 9 24
t23 11t23.5 -11t9.5 -24q0 -14 -9 -24t-24 -10z" />
    <glyph glyph-name="i.dot" horiz-adv-x="614" 
d="M315 1130q-52 0 -84 31t-32 84q0 52 32 85.5t84 33.5q48 0 80.5 -32.5t32.5 -84.5t-32.5 -84.5t-80.5 -32.5zM74 0v106h174v709h-174v107h332v-816h174v-106h-506z" />
    <glyph glyph-name="caron.alt" horiz-adv-x="487" 
d="M223 1090h-65l-6 294q-3 154 86 154q31 0 51 -22.5t20 -63.5q0 -40 -24 -129z" />
    </font>
</defs>
</svg>
